<svg width="16" height="16" viewBox="0 0 16 16" fill="none" xmlns="http://www.w3.org/2000/svg">
<path fill-rule="evenodd" clip-rule="evenodd" d="M7.99325 1.33331C4.31325 1.33331 1.33325 4.31998 1.33325 7.99998C1.33325 11.68 4.31325 14.6666 7.99325 14.6666C11.6799 14.6666 14.6666 11.68 14.6666 7.99998C14.6666 4.31998 11.6799 1.33331 7.99325 1.33331ZM7.99992 13.3333C5.05325 13.3333 2.66659 10.9466 2.66659 7.99998C2.66659 5.05331 5.05325 2.66665 7.99992 2.66665C10.9466 2.66665 13.3333 5.05331 13.3333 7.99998C13.3333 10.9466 10.9466 13.3333 7.99992 13.3333ZM7.33325 4.66665H8.33325V8.16665L11.3333 9.94665L10.8333 10.7666L7.33325 8.66665V4.66665Z" fill="#047453"/>
</svg>
