<svg width="53" height="53" viewBox="0 0 53 53" fill="none" xmlns="http://www.w3.org/2000/svg">
<mask id="mask0_660_653" style="mask-type:alpha" maskUnits="userSpaceOnUse" x="0" y="0" width="53" height="53">
<circle cx="26.5" cy="26.25" r="26" fill="#003788"/>
</mask>
<g mask="url(#mask0_660_653)">
<circle cx="26.5" cy="26.25" r="26" fill="#00A79D"/>
<g opacity="0.5">
<path d="M41.3476 14.483C50.9119 8.62773 62.7677 12.0433 67.5 14.483V54.25H0.5V44.7352C16.1914 46.199 29.3922 21.8021 41.3476 14.483Z" fill="url(#paint0_linear_660_653)" style="mix-blend-mode:overlay"/>
</g>
</g>
<path d="M27.1364 13.25L27.1375 16.7295C29.14 16.9827 31.0014 17.8948 32.4286 19.3222C33.8557 20.7495 34.7676 22.6111 35.0205 24.6136H38.5V26.8864L35.0205 26.8875C34.7673 28.8898 33.8554 30.7511 32.4283 32.1783C31.0011 33.6054 29.1398 34.5173 27.1375 34.7705L27.1364 38.25H24.8636V34.7705C22.8611 34.5176 20.9995 33.6057 19.5722 32.1786C18.1448 30.7514 17.2327 28.89 16.9795 26.8875L13.5 26.8864V24.6136H16.9795C17.2325 22.6109 18.1445 20.7492 19.5719 19.3219C20.9992 17.8945 22.8609 16.9825 24.8636 16.7295V13.25H27.1364ZM26 18.9318C24.1917 18.9318 22.4575 19.6502 21.1788 20.9288C19.9002 22.2075 19.1818 23.9417 19.1818 25.75C19.1818 27.5583 19.9002 29.2925 21.1788 30.5712C22.4575 31.8498 24.1917 32.5682 26 32.5682C27.8083 32.5682 29.5425 31.8498 30.8212 30.5712C32.0998 29.2925 32.8182 27.5583 32.8182 25.75C32.8182 23.9417 32.0998 22.2075 30.8212 20.9288C29.5425 19.6502 27.8083 18.9318 26 18.9318ZM26 23.4773C26.6028 23.4773 27.1808 23.7167 27.6071 24.1429C28.0333 24.5692 28.2727 25.1472 28.2727 25.75C28.2727 26.3528 28.0333 26.9308 27.6071 27.3571C27.1808 27.7833 26.6028 28.0227 26 28.0227C25.3972 28.0227 24.8192 27.7833 24.3929 27.3571C23.9667 26.9308 23.7273 26.3528 23.7273 25.75C23.7273 25.1472 23.9667 24.5692 24.3929 24.1429C24.8192 23.7167 25.3972 23.4773 26 23.4773Z" fill="white"/>
<defs>
<linearGradient id="paint0_linear_660_653" x1="69.6713" y1="6.82802" x2="28.9741" y2="66.3121" gradientUnits="userSpaceOnUse">
<stop stop-color="white" stop-opacity="0"/>
<stop offset="1" stop-color="white"/>
</linearGradient>
</defs>
</svg>
