<svg width="53" height="52" viewBox="0 0 53 52" fill="none" xmlns="http://www.w3.org/2000/svg">
<g opacity="0.3">
<mask id="mask0_623_608" style="mask-type:alpha" maskUnits="userSpaceOnUse" x="0" y="0" width="53" height="52">
<circle cx="26.5" cy="26" r="26" fill="#003788"/>
</mask>
<g mask="url(#mask0_623_608)">
<circle cx="26.5" cy="26" r="26" fill="#00A79D"/>
<g opacity="0.5">
<path d="M41.3476 14.233C50.9119 8.37773 62.7677 11.7933 67.5 14.233V54H0.5V44.4852C16.1914 45.949 29.3922 21.5521 41.3476 14.233Z" fill="url(#paint0_linear_623_608)" style="mix-blend-mode:overlay"/>
</g>
</g>
<path d="M27.1364 13L27.1375 16.4795C29.14 16.7327 31.0014 17.6448 32.4286 19.0722C33.8557 20.4995 34.7676 22.3611 35.0205 24.3636H38.5V26.6364L35.0205 26.6375C34.7673 28.6398 33.8554 30.5011 32.4283 31.9283C31.0011 33.3554 29.1398 34.2673 27.1375 34.5205L27.1364 38H24.8636V34.5205C22.8611 34.2676 20.9995 33.3557 19.5722 31.9286C18.1448 30.5014 17.2327 28.64 16.9795 26.6375L13.5 26.6364V24.3636H16.9795C17.2325 22.3609 18.1445 20.4992 19.5719 19.0719C20.9992 17.6445 22.8609 16.7325 24.8636 16.4795V13H27.1364ZM26 18.6818C24.1917 18.6818 22.4575 19.4002 21.1788 20.6788C19.9002 21.9575 19.1818 23.6917 19.1818 25.5C19.1818 27.3083 19.9002 29.0425 21.1788 30.3212C22.4575 31.5998 24.1917 32.3182 26 32.3182C27.8083 32.3182 29.5425 31.5998 30.8212 30.3212C32.0998 29.0425 32.8182 27.3083 32.8182 25.5C32.8182 23.6917 32.0998 21.9575 30.8212 20.6788C29.5425 19.4002 27.8083 18.6818 26 18.6818ZM26 23.2273C26.6028 23.2273 27.1808 23.4667 27.6071 23.8929C28.0333 24.3192 28.2727 24.8972 28.2727 25.5C28.2727 26.1028 28.0333 26.6808 27.6071 27.1071C27.1808 27.5333 26.6028 27.7727 26 27.7727C25.3972 27.7727 24.8192 27.5333 24.3929 27.1071C23.9667 26.6808 23.7273 26.1028 23.7273 25.5C23.7273 24.8972 23.9667 24.3192 24.3929 23.8929C24.8192 23.4667 25.3972 23.2273 26 23.2273Z" fill="white"/>
</g>
<defs>
<linearGradient id="paint0_linear_623_608" x1="69.6713" y1="6.57802" x2="28.9741" y2="66.0621" gradientUnits="userSpaceOnUse">
<stop stop-color="white" stop-opacity="0"/>
<stop offset="1" stop-color="white"/>
</linearGradient>
</defs>
</svg>
