<svg width="45" height="44" viewBox="0 0 45 44" fill="none" xmlns="http://www.w3.org/2000/svg">
<g filter="url(#filter0_d_1_4975)">
<path fill-rule="evenodd" clip-rule="evenodd" d="M22.4208 36.7103C31.4395 36.7103 38.7506 29.3993 38.7506 20.3806C38.7506 11.3619 31.4395 4.05078 22.4208 4.05078C13.4022 4.05078 6.09106 11.3619 6.09106 20.3806C6.09106 29.3993 13.4022 36.7103 22.4208 36.7103Z" fill="white"/>
</g>
<path fill-rule="evenodd" clip-rule="evenodd" d="M22.4209 15.3062C23.4972 14.499 25.0559 14.2055 26.5033 14.2055C27.5796 14.2055 28.7227 14.367 29.6728 14.7852C30.2146 15.0273 30.5783 15.5483 30.5783 16.1426V24.4192C30.5783 25.3805 29.6728 26.0848 28.7375 25.8427C28.0101 25.6593 27.2382 25.5786 26.4959 25.5786C25.338 25.5786 24.1058 25.762 23.1112 26.2536C22.6732 26.4737 22.1685 26.4737 21.7231 26.2536C20.7285 25.7693 19.4964 25.5786 18.3384 25.5786C17.5962 25.5786 16.8242 25.6593 16.0968 25.8427C15.1615 26.0775 14.256 25.3731 14.256 24.4192V16.1426C14.256 15.5483 14.6197 15.0273 15.1615 14.7852C16.1191 14.367 17.2621 14.2055 18.3384 14.2055C19.7858 14.2055 21.3446 14.499 22.4209 15.3062ZM28.2115 24.2653C28.6717 24.346 29.1022 24.0085 29.1022 23.5462V16.5977C29.1022 16.2528 28.8498 15.952 28.5084 15.8786C27.8626 15.7392 27.1872 15.6732 26.5043 15.6732C25.2424 15.6732 23.4239 16.1501 22.4218 16.7738V25.2192C23.4239 24.5955 25.2424 24.1185 26.5043 24.1185C27.0758 24.1185 27.6548 24.1626 28.2115 24.2653Z" fill="#2684FF"/>
<path d="M23.8907 18.9823C23.6531 18.9823 23.4379 18.8356 23.3636 18.6008C23.2671 18.3146 23.4304 17.999 23.72 17.911C24.8632 17.544 26.3404 17.4266 27.6989 17.5807C28.0033 17.6174 28.226 17.8889 28.1889 18.1898C28.1518 18.4907 27.8771 18.7108 27.5727 18.6741C26.3701 18.5347 25.0562 18.6448 24.0614 18.9603C24.002 18.9677 23.9427 18.9823 23.8907 18.9823Z" fill="#2684FF"/>
<path d="M23.8907 20.9341C23.6531 20.9341 23.4379 20.7873 23.3636 20.5525C23.2671 20.2663 23.4304 19.9508 23.72 19.8627C24.8557 19.4958 26.3404 19.3784 27.6989 19.5325C28.0033 19.5692 28.226 19.8407 28.1889 20.1416C28.1518 20.4424 27.8771 20.6626 27.5727 20.6259C26.3701 20.4865 25.0562 20.5965 24.0614 20.9121C24.002 20.9268 23.9427 20.9341 23.8907 20.9341Z" fill="#2684FF"/>
<path d="M23.8907 22.8858C23.6531 22.8858 23.4379 22.7391 23.3636 22.5042C23.2671 22.218 23.4304 21.9025 23.72 21.8144C24.8557 21.4475 26.3404 21.3301 27.6989 21.4842C28.0033 21.5209 28.226 21.7924 28.1889 22.0933C28.1518 22.3942 27.8771 22.607 27.5727 22.5776C26.3701 22.4382 25.0562 22.5483 24.0614 22.8638C24.002 22.8785 23.9427 22.8858 23.8907 22.8858Z" fill="#2684FF"/>
<defs>
<filter id="filter0_d_1_4975" x="0.647804" y="0.421941" width="43.5461" height="43.5461" filterUnits="userSpaceOnUse" color-interpolation-filters="sRGB">
<feFlood flood-opacity="0" result="BackgroundImageFix"/>
<feColorMatrix in="SourceAlpha" type="matrix" values="0 0 0 0 0 0 0 0 0 0 0 0 0 0 0 0 0 0 127 0" result="hardAlpha"/>
<feOffset dy="1.81442"/>
<feGaussianBlur stdDeviation="2.72163"/>
<feColorMatrix type="matrix" values="0 0 0 0 0.180392 0 0 0 0 0.239216 0 0 0 0 0.286275 0 0 0 0.2 0"/>
<feBlend mode="normal" in2="BackgroundImageFix" result="effect1_dropShadow_1_4975"/>
<feBlend mode="normal" in="SourceGraphic" in2="effect1_dropShadow_1_4975" result="shape"/>
</filter>
</defs>
</svg>
