<svg width="53" height="52" viewBox="0 0 53 52" fill="none" xmlns="http://www.w3.org/2000/svg">
<mask id="mask0_623_671" style="mask-type:alpha" maskUnits="userSpaceOnUse" x="0" y="0" width="53" height="52">
<circle cx="26.5" cy="26" r="26" fill="#003788"/>
</mask>
<g mask="url(#mask0_623_671)">
<circle cx="26.5" cy="26" r="26" fill="#047453"/>
<g opacity="0.5">
<path d="M41.3476 14.233C50.9119 8.37773 62.7677 11.7933 67.5 14.233V54H0.5V44.4852C16.1914 45.949 29.3922 21.5521 41.3476 14.233Z" fill="url(#paint0_linear_623_671)" style="mix-blend-mode:overlay"/>
</g>
</g>
<path d="M26.0006 31.7501C24.343 31.7501 22.7533 31.0916 21.5812 29.9195C20.4091 28.7474 19.7506 27.1577 19.7506 25.5001C19.7506 23.8425 20.4091 22.2528 21.5812 21.0807C22.7533 19.9086 24.343 19.2501 26.0006 19.2501C27.6582 19.2501 29.2479 19.9086 30.42 21.0807C31.5921 22.2528 32.2506 23.8425 32.2506 25.5001C32.2506 27.1577 31.5921 28.7474 30.42 29.9195C29.2479 31.0916 27.6582 31.7501 26.0006 31.7501ZM26.0006 29.6667C27.1056 29.6667 28.1654 29.2278 28.9468 28.4464C29.7283 27.665 30.1672 26.6052 30.1672 25.5001C30.1672 24.395 29.7283 23.3352 28.9468 22.5538C28.1654 21.7724 27.1056 21.3334 26.0006 21.3334C24.8955 21.3334 23.8357 21.7724 23.0543 22.5538C22.2729 23.3352 21.8339 24.395 21.8339 25.5001C21.8339 26.6052 22.2729 27.665 23.0543 28.4464C23.8357 29.2278 24.8955 29.6667 26.0006 29.6667ZM24.9589 14.0417H27.0422V17.1667H24.9589V14.0417ZM24.9589 33.8334H27.0422V36.9584H24.9589V33.8334ZM17.162 18.1345L18.6349 16.6615L20.8443 18.8709L19.3714 20.3438L17.162 18.1355V18.1345ZM31.1568 32.1292L32.6297 30.6563L34.8391 32.8657L33.3662 34.3386L31.1568 32.1292ZM33.3662 16.6605L34.8391 18.1345L32.6297 20.3438L31.1568 18.8709L33.3662 16.6615V16.6605ZM19.3714 30.6563L20.8443 32.1292L18.6349 34.3386L17.162 32.8657L19.3714 30.6563ZM37.4589 24.4584V26.5417H34.3339V24.4584H37.4589ZM17.6672 24.4584V26.5417H14.5422V24.4584H17.6672Z" fill="white"/>
<defs>
<linearGradient id="paint0_linear_623_671" x1="69.6713" y1="6.57802" x2="28.9741" y2="66.0621" gradientUnits="userSpaceOnUse">
<stop stop-color="white" stop-opacity="0"/>
<stop offset="1" stop-color="white"/>
</linearGradient>
</defs>
</svg>
