<svg width="252" height="241" viewBox="0 0 252 241" fill="none" xmlns="http://www.w3.org/2000/svg">
<path d="M225.466 188.229C216.372 203.981 203.29 217.062 187.536 226.155C171.783 235.248 153.913 240.033 135.723 240.03C117.534 240.026 99.6658 235.233 83.9161 226.133C68.1664 217.034 55.09 203.948 46.0019 188.191L135.745 136.428L225.466 188.229Z" fill="#5AD3A0"/>
<path d="M19.1357 203.186C7.25806 182.613 1.00617 159.276 1.00867 135.521C1.01117 111.765 7.26795 88.4295 19.1499 67.8593C31.0318 47.2891 48.1201 30.2098 68.6965 18.3386C89.2729 6.46744 112.612 0.222891 136.367 0.232844L136.311 135.535L19.1357 203.186Z" fill="#047453"/>
<path d="M136.292 20.4191C156.604 20.4191 176.557 25.7667 194.146 35.9241C211.735 46.0816 226.339 60.6908 236.491 78.2829C246.643 95.875 251.984 115.83 251.978 136.141C251.972 156.452 246.618 176.404 236.455 193.99L136.292 136.105L136.292 20.4191Z" fill="#00A79D"/>
</svg>
