<svg width="50" height="58" viewBox="0 0 50 58" fill="none" xmlns="http://www.w3.org/2000/svg">
<path d="M9.872 24.948C10.256 24.868 10.624 24.812 10.976 24.78C11.328 24.74 11.668 24.72 11.996 24.72C12.908 24.72 13.712 24.856 14.408 25.128C15.104 25.4 15.688 25.776 16.16 26.256C16.632 26.736 16.988 27.3 17.228 27.948C17.468 28.588 17.588 29.28 17.588 30.024C17.588 30.944 17.424 31.784 17.096 32.544C16.776 33.304 16.328 33.956 15.752 34.5C15.176 35.036 14.492 35.452 13.7 35.748C12.916 36.044 12.06 36.192 11.132 36.192C10.588 36.192 10.072 36.136 9.584 36.024C9.096 35.912 8.636 35.764 8.204 35.58C7.78 35.388 7.384 35.172 7.016 34.932C6.656 34.684 6.332 34.424 6.044 34.152L6.956 32.892C7.148 32.62 7.4 32.484 7.712 32.484C7.912 32.484 8.116 32.548 8.324 32.676C8.532 32.804 8.768 32.944 9.032 33.096C9.304 33.248 9.62 33.388 9.98 33.516C10.348 33.644 10.788 33.708 11.3 33.708C11.844 33.708 12.324 33.62 12.74 33.444C13.156 33.268 13.5 33.024 13.772 32.712C14.052 32.392 14.26 32.016 14.396 31.584C14.54 31.144 14.612 30.668 14.612 30.156C14.612 29.212 14.336 28.476 13.784 27.948C13.24 27.412 12.432 27.144 11.36 27.144C10.536 27.144 9.692 27.296 8.828 27.6L6.98 27.072L8.42 18.648H16.988V19.908C16.988 20.332 16.856 20.676 16.592 20.94C16.328 21.204 15.88 21.336 15.248 21.336H10.484L9.872 24.948ZM19.9539 34.368C19.9539 34.12 19.9979 33.884 20.0859 33.66C20.1819 33.436 20.3099 33.244 20.4699 33.084C20.6299 32.924 20.8219 32.796 21.0459 32.7C21.2699 32.604 21.5099 32.556 21.7659 32.556C22.0219 32.556 22.2579 32.604 22.4739 32.7C22.6979 32.796 22.8899 32.924 23.0499 33.084C23.2179 33.244 23.3499 33.436 23.4459 33.66C23.5419 33.884 23.5899 34.12 23.5899 34.368C23.5899 34.624 23.5419 34.864 23.4459 35.088C23.3499 35.304 23.2179 35.492 23.0499 35.652C22.8899 35.812 22.6979 35.936 22.4739 36.024C22.2579 36.12 22.0219 36.168 21.7659 36.168C21.5099 36.168 21.2699 36.12 21.0459 36.024C20.8219 35.936 20.6299 35.812 20.4699 35.652C20.3099 35.492 20.1819 35.304 20.0859 35.088C19.9979 34.864 19.9539 34.624 19.9539 34.368ZM29.4892 24.948C29.8732 24.868 30.2412 24.812 30.5932 24.78C30.9452 24.74 31.2852 24.72 31.6132 24.72C32.5252 24.72 33.3292 24.856 34.0252 25.128C34.7212 25.4 35.3052 25.776 35.7772 26.256C36.2492 26.736 36.6052 27.3 36.8452 27.948C37.0852 28.588 37.2052 29.28 37.2052 30.024C37.2052 30.944 37.0412 31.784 36.7132 32.544C36.3932 33.304 35.9452 33.956 35.3692 34.5C34.7932 35.036 34.1092 35.452 33.3172 35.748C32.5332 36.044 31.6772 36.192 30.7492 36.192C30.2052 36.192 29.6892 36.136 29.2012 36.024C28.7132 35.912 28.2532 35.764 27.8212 35.58C27.3972 35.388 27.0012 35.172 26.6332 34.932C26.2732 34.684 25.9492 34.424 25.6612 34.152L26.5732 32.892C26.7652 32.62 27.0172 32.484 27.3292 32.484C27.5292 32.484 27.7332 32.548 27.9412 32.676C28.1492 32.804 28.3852 32.944 28.6492 33.096C28.9212 33.248 29.2372 33.388 29.5972 33.516C29.9652 33.644 30.4052 33.708 30.9172 33.708C31.4612 33.708 31.9412 33.62 32.3572 33.444C32.7732 33.268 33.1172 33.024 33.3892 32.712C33.6692 32.392 33.8772 32.016 34.0132 31.584C34.1572 31.144 34.2292 30.668 34.2292 30.156C34.2292 29.212 33.9532 28.476 33.4012 27.948C32.8572 27.412 32.0492 27.144 30.9772 27.144C30.1532 27.144 29.3092 27.296 28.4452 27.6L26.5972 27.072L28.0372 18.648H36.6052V19.908C36.6052 20.332 36.4732 20.676 36.2092 20.94C35.9452 21.204 35.4972 21.336 34.8652 21.336H30.1012L29.4892 24.948Z" fill="#00A79D"/>
<path d="M0.23845 46.3813C3.28305 49.9517 7.18892 52.6855 11.5859 54.3236C15.9829 55.9617 20.7254 56.4499 25.3639 55.7419C30.0024 55.0339 34.3833 53.1532 38.0914 50.278C41.7995 47.4027 44.712 43.6282 46.5529 39.3122C48.3938 34.9962 49.102 30.2815 48.6106 25.6151C48.1191 20.9487 46.4442 16.4851 43.7446 12.6472C41.0449 8.80939 37.41 5.72448 33.1843 3.68484C28.9585 1.6452 24.282 0.718392 19.5977 0.992262" stroke="#00A79D" stroke-width="0.469574"/>
</svg>
