<svg width="25" height="23" viewBox="0 0 25 23" fill="none" xmlns="http://www.w3.org/2000/svg">
<path d="M2.21567 2.77819C3.56548 1.42813 5.37591 0.638492 7.28368 0.567705C9.19146 0.496919 11.0554 1.15023 12.5016 2.39654C13.9464 1.1523 15.8079 0.49973 17.7134 0.569464C19.6189 0.639198 21.4277 1.42609 22.7778 2.77261C24.1278 4.11912 24.9195 5.92589 24.9942 7.83118C25.0689 9.73648 24.4212 11.5997 23.1808 13.0478L14.1457 22.112C13.7306 22.5272 13.1739 22.7702 12.5871 22.7922C12.0004 22.8142 11.427 22.6136 10.982 22.2306L10.854 22.1131L1.82006 13.0478C0.580265 11.6009 -0.0677353 9.73945 0.00561044 7.83548C0.0789562 5.93151 0.868242 4.12538 2.21567 2.77819V2.77819ZM3.86095 4.42346C2.90943 5.37524 2.36094 6.65686 2.32931 8.00232C2.29768 9.34778 2.78533 10.6538 3.69107 11.6492L3.86095 11.8284L12.5004 20.4678L18.6708 14.2963L14.5576 10.1831L13.3242 11.4165C13.0001 11.7407 12.6153 11.998 12.1918 12.1735C11.7683 12.349 11.3144 12.4394 10.856 12.4396C9.93009 12.4398 9.04205 12.0722 8.38721 11.4176C7.73237 10.7631 7.36436 9.87526 7.36414 8.94939C7.36392 8.02352 7.73151 7.13549 8.38605 6.48065L10.8319 4.03367C9.8585 3.25685 8.64018 2.85229 7.39549 2.89259C6.1508 2.9329 4.9612 3.41542 4.04014 4.25358L3.86095 4.42346V4.42346ZM13.735 7.71402C13.9532 7.49589 14.2491 7.37335 14.5576 7.37335C14.8661 7.37335 15.162 7.49589 15.3802 7.71402L20.3161 12.6499L21.1399 11.8284C22.1073 10.8616 22.6581 9.55469 22.6744 8.18708C22.6907 6.81948 22.1713 5.49978 21.2272 4.51021C20.2831 3.52065 18.9892 2.93977 17.6224 2.89181C16.2555 2.84385 14.9241 3.33262 13.913 4.25358L13.735 4.42346L10.0325 8.12592C9.83081 8.32747 9.71015 8.59605 9.69342 8.88069C9.67669 9.16532 9.76505 9.44619 9.94173 9.66997L10.0325 9.7712C10.234 9.97289 10.5026 10.0935 10.7873 10.1103C11.0719 10.127 11.3528 10.0386 11.5765 9.86196L11.6778 9.7712L13.735 7.71402V7.71402Z" fill="white"/>
</svg>
