<svg width="676" height="184" viewBox="0 0 676 184" fill="none" xmlns="http://www.w3.org/2000/svg">
<g filter="url(#filter0_d_675_731)">
<rect width="676" height="184" rx="8" fill="#047453"/>
</g>
<g filter="url(#filter1_d_675_731)">
<rect width="676" height="184" rx="8" fill="url(#paint0_linear_675_731)" shape-rendering="crispEdges"/>
</g>
<mask id="mask0_675_731" style="mask-type:alpha" maskUnits="userSpaceOnUse" x="0" y="0" width="676" height="184">
<rect width="676" height="184" rx="8" fill="#00A79D"/>
</mask>
<g mask="url(#mask0_675_731)">
<ellipse cx="653.869" cy="88.2173" rx="137.815" ry="137" fill="url(#paint1_linear_675_731)" fill-opacity="0.5"/>
<path d="M467.327 56.4928C465.277 57.1718 463.123 57.5375 460.837 57.5375C450.88 57.5375 442.578 50.4858 440.713 41.162C438.532 41.7888 436.246 42.1022 433.882 42.1022C429.783 42.1022 425.895 41.1098 422.479 39.3599L422.479 -24.9927L685.205 -24.9927L685.205 41.9455C681.632 43.7215 677.613 44.7401 673.356 44.7401C672.2 44.7401 671.071 44.6617 669.967 44.5311C670.099 45.6019 670.177 46.6727 670.177 47.7697C670.177 61.1677 659.248 72.0325 645.77 72.0325C637.941 72.0325 630.979 68.3761 626.512 62.6825C623.727 69.3947 617.08 74.1218 609.304 74.1218C599.031 74.1218 590.703 65.8427 590.703 55.6309C590.703 55.3959 590.703 55.1347 590.729 54.8996C589.862 55.0302 588.969 55.1086 588.076 55.1086C581.612 55.1086 576.016 51.4522 573.258 46.0982C570.736 50.747 565.796 53.9333 560.095 53.9333C552.765 53.9333 546.67 48.6838 545.409 41.7627C543.517 42.6507 541.415 43.1208 539.209 43.1208C538.289 43.1208 537.396 43.0425 536.529 42.8858C535.057 50.303 528.489 55.8921 520.608 55.8921C517.481 55.8921 514.565 55.0041 512.069 53.4893C511.386 65.2681 501.56 74.6181 489.527 74.6181C478.519 74.5919 469.376 66.809 467.327 56.4928Z" fill="url(#paint2_linear_675_731)" fill-opacity="0.8"/>
<path d="M467.327 30.8675C465.277 31.5466 463.123 31.9122 460.837 31.9122C450.88 31.9122 442.578 24.8606 440.713 15.5368C438.532 16.1636 436.246 16.477 433.882 16.477C429.783 16.477 425.895 15.4845 422.479 13.7347L422.479 -50.6179L685.205 -50.6179L685.205 16.3203C681.632 18.0963 677.613 19.1148 673.356 19.1148C672.2 19.1148 671.071 19.0365 669.967 18.9059C670.099 19.9767 670.177 21.0475 670.177 22.1444C670.177 35.5425 659.248 46.4072 645.77 46.4072C637.941 46.4072 630.979 42.7508 626.512 37.0573C623.727 43.7694 617.08 48.4966 609.304 48.4966C599.031 48.4966 590.703 40.2175 590.703 30.0057C590.703 29.7706 590.703 29.5094 590.729 29.2744C589.862 29.405 588.969 29.4833 588.076 29.4833C581.612 29.4833 576.016 25.8269 573.258 20.4729C570.736 25.1218 565.796 28.3081 560.095 28.3081C552.765 28.3081 546.67 23.0585 545.409 16.1375C543.517 17.0255 541.415 17.4956 539.209 17.4956C538.289 17.4956 537.396 17.4172 536.529 17.2605C535.057 24.6778 528.489 30.2668 520.608 30.2668C517.481 30.2668 514.565 29.3789 512.069 27.8641C511.386 39.6429 501.56 48.9928 489.527 48.9928C478.519 48.9667 469.376 41.1838 467.327 30.8675Z" fill="url(#paint3_linear_675_731)"/>
<path d="M244.321 131.733C243.957 132.382 243.882 133.206 244.158 133.905C244.46 134.691 245.037 135.302 245.841 135.577C246.569 135.827 247.435 135.677 248.075 135.29C248.816 134.841 249.281 134.129 249.369 133.281C249.444 132.519 249.092 131.721 248.552 131.184C247.912 130.547 247.033 130.285 246.142 130.46C245.125 130.66 244.46 131.633 244.51 132.632C244.56 133.493 244.999 134.429 245.815 134.791C246.267 134.99 246.795 135.09 247.272 134.903C247.724 134.728 248.126 134.429 248.364 134.005C248.854 133.156 248.615 132.058 247.749 131.546C247.008 131.109 246.029 131.209 245.389 131.77C245.05 132.07 244.849 132.569 244.861 133.019C244.886 133.505 245.075 133.942 245.401 134.304C245.715 134.666 246.192 134.866 246.657 134.891C247.184 134.928 247.711 134.666 248.075 134.317C248.653 133.767 248.804 132.944 248.665 132.182C248.54 131.521 248.063 130.859 247.448 130.56C246.682 130.185 245.778 130.248 245.037 130.685C244.296 131.134 243.832 131.858 243.744 132.707C243.669 133.493 244.058 134.317 244.623 134.841C244.949 135.153 245.326 135.365 245.74 135.515C246.167 135.664 246.606 135.677 247.046 135.602C247.774 135.49 248.527 134.978 248.841 134.304C249.042 133.867 249.117 133.38 248.967 132.906C248.804 132.407 248.264 132.033 247.724 132.207C247.222 132.37 246.845 132.906 247.021 133.443C247.033 133.493 247.046 133.543 247.058 133.593C247.046 133.505 247.033 133.418 247.021 133.331C247.033 133.405 247.033 133.48 247.021 133.555C247.033 133.468 247.046 133.38 247.058 133.293C247.046 133.38 247.021 133.468 246.996 133.543C247.033 133.468 247.058 133.38 247.096 133.306C247.058 133.393 247.008 133.468 246.958 133.543C247.008 133.48 247.058 133.405 247.121 133.343C247.033 133.455 246.945 133.543 246.832 133.63C246.895 133.58 246.971 133.53 247.033 133.468C246.92 133.555 246.795 133.618 246.669 133.68C246.745 133.643 246.832 133.618 246.908 133.58C246.77 133.63 246.644 133.668 246.493 133.692C246.581 133.68 246.669 133.668 246.757 133.655C246.632 133.668 246.506 133.68 246.38 133.655C246.468 133.668 246.556 133.68 246.644 133.692C246.481 133.668 246.33 133.63 246.167 133.568C246.242 133.605 246.33 133.63 246.406 133.668C246.242 133.593 246.092 133.505 245.941 133.405C246.004 133.455 246.079 133.505 246.142 133.568C246.016 133.468 245.903 133.356 245.803 133.231C245.853 133.293 245.903 133.368 245.966 133.43C245.853 133.293 245.765 133.143 245.703 132.981C245.74 133.056 245.765 133.143 245.803 133.218C245.753 133.081 245.715 132.944 245.69 132.806C245.703 132.894 245.715 132.981 245.728 133.068C245.715 132.944 245.715 132.819 245.728 132.682C245.715 132.769 245.703 132.856 245.69 132.944C245.703 132.819 245.74 132.707 245.79 132.594C245.753 132.669 245.728 132.756 245.69 132.831C245.74 132.707 245.815 132.594 245.891 132.482C245.841 132.544 245.79 132.619 245.728 132.682C245.815 132.569 245.928 132.457 246.041 132.37C245.979 132.419 245.903 132.469 245.841 132.532C245.966 132.444 246.092 132.37 246.23 132.307C246.154 132.345 246.067 132.37 245.991 132.407C246.129 132.345 246.267 132.307 246.418 132.295C246.33 132.307 246.242 132.32 246.154 132.332C246.28 132.32 246.393 132.32 246.519 132.332C246.431 132.32 246.343 132.307 246.255 132.295C246.368 132.307 246.493 132.345 246.594 132.382C246.519 132.345 246.431 132.32 246.355 132.282C246.443 132.32 246.519 132.37 246.606 132.419C246.544 132.37 246.468 132.32 246.406 132.257C246.506 132.332 246.581 132.407 246.657 132.507C246.606 132.444 246.556 132.37 246.493 132.307C246.569 132.407 246.632 132.519 246.694 132.644C246.657 132.569 246.632 132.482 246.594 132.407C246.644 132.532 246.682 132.657 246.694 132.781C246.682 132.694 246.669 132.607 246.657 132.519C246.669 132.644 246.682 132.769 246.657 132.906C246.669 132.819 246.682 132.731 246.694 132.644C246.682 132.756 246.657 132.869 246.606 132.981C246.644 132.906 246.669 132.819 246.707 132.744C246.669 132.831 246.619 132.906 246.569 132.981C246.619 132.919 246.669 132.844 246.732 132.781C246.669 132.856 246.594 132.931 246.519 132.994C246.581 132.944 246.657 132.894 246.719 132.831C246.644 132.881 246.569 132.931 246.493 132.969C246.569 132.931 246.657 132.906 246.732 132.869C246.657 132.906 246.581 132.919 246.493 132.931C246.581 132.919 246.669 132.906 246.757 132.894C246.694 132.894 246.632 132.894 246.569 132.894C246.657 132.906 246.745 132.919 246.832 132.931C246.77 132.919 246.719 132.906 246.657 132.881C246.732 132.919 246.82 132.944 246.895 132.981C246.832 132.956 246.77 132.919 246.707 132.869C246.77 132.919 246.845 132.969 246.908 133.031C246.832 132.981 246.782 132.919 246.719 132.844C246.77 132.906 246.82 132.981 246.883 133.044C246.832 132.969 246.782 132.894 246.757 132.819C246.795 132.894 246.82 132.981 246.858 133.056C246.832 132.981 246.807 132.919 246.795 132.844C246.807 132.931 246.82 133.019 246.832 133.106C246.82 133.031 246.82 132.956 246.832 132.894C246.82 132.981 246.807 133.068 246.795 133.156C246.807 133.106 246.82 133.056 246.832 133.019C246.795 133.093 246.77 133.181 246.732 133.256C246.757 133.193 246.782 133.143 246.82 133.093C246.77 133.156 246.719 133.231 246.657 133.293C246.694 133.243 246.745 133.193 246.795 133.156C246.732 133.206 246.657 133.256 246.594 133.318C246.644 133.281 246.707 133.243 246.77 133.218C246.694 133.256 246.606 133.281 246.531 133.318C246.606 133.293 246.682 133.268 246.757 133.256C246.669 133.268 246.581 133.281 246.493 133.293C246.581 133.281 246.682 133.281 246.77 133.293C246.682 133.281 246.594 133.268 246.506 133.256C246.594 133.268 246.682 133.293 246.77 133.331C246.694 133.293 246.606 133.268 246.531 133.231C246.606 133.268 246.669 133.306 246.745 133.343C246.682 133.293 246.606 133.243 246.544 133.181C246.594 133.218 246.644 133.268 246.682 133.318C246.632 133.256 246.581 133.181 246.519 133.118C246.556 133.168 246.581 133.218 246.606 133.268C246.569 133.193 246.544 133.106 246.506 133.031C246.531 133.093 246.544 133.156 246.556 133.218C246.544 133.131 246.531 133.044 246.519 132.956C246.531 133.031 246.531 133.106 246.519 133.181C246.531 133.093 246.544 133.006 246.556 132.919C246.544 132.994 246.519 133.068 246.493 133.143C246.531 133.068 246.556 132.981 246.594 132.906C246.556 132.994 246.506 133.068 246.456 133.143C246.506 133.081 246.556 133.006 246.619 132.944C246.556 133.019 246.493 133.081 246.418 133.131C246.481 133.081 246.556 133.031 246.619 132.969C246.556 133.019 246.493 133.056 246.418 133.081C246.493 133.044 246.581 133.019 246.657 132.981C246.581 133.006 246.506 133.031 246.431 133.044C246.519 133.031 246.606 133.019 246.694 133.006C246.632 133.019 246.556 133.019 246.493 133.006C246.581 133.019 246.669 133.031 246.757 133.044C246.669 133.031 246.581 133.006 246.506 132.981C246.581 133.019 246.669 133.044 246.745 133.081C246.669 133.044 246.594 133.006 246.519 132.956C246.581 133.006 246.657 133.056 246.719 133.118C246.632 133.044 246.544 132.969 246.468 132.869C246.519 132.931 246.569 133.006 246.632 133.068C246.544 132.956 246.481 132.844 246.431 132.719C246.468 132.794 246.493 132.881 246.531 132.956C246.468 132.819 246.431 132.669 246.406 132.519C246.418 132.607 246.431 132.694 246.443 132.781C246.431 132.644 246.418 132.507 246.443 132.357C246.431 132.444 246.418 132.532 246.406 132.619C246.418 132.507 246.443 132.407 246.493 132.307C246.456 132.382 246.431 132.469 246.393 132.544C246.431 132.457 246.481 132.382 246.531 132.307C246.481 132.37 246.431 132.444 246.368 132.507C246.418 132.444 246.468 132.395 246.531 132.345C246.468 132.395 246.393 132.444 246.33 132.507C246.406 132.457 246.481 132.407 246.569 132.37C246.493 132.407 246.406 132.432 246.33 132.469C246.431 132.432 246.544 132.407 246.644 132.382C246.556 132.395 246.468 132.407 246.38 132.419C246.519 132.407 246.657 132.407 246.795 132.419C246.707 132.407 246.619 132.395 246.531 132.382C246.669 132.407 246.807 132.444 246.933 132.494C246.858 132.457 246.77 132.432 246.694 132.395C246.82 132.457 246.945 132.519 247.058 132.607C246.996 132.557 246.92 132.507 246.858 132.444C246.983 132.544 247.084 132.644 247.184 132.769C247.134 132.707 247.084 132.632 247.021 132.569C247.121 132.707 247.209 132.844 247.272 132.994C247.234 132.919 247.209 132.831 247.171 132.756C247.222 132.881 247.259 133.019 247.284 133.156C247.272 133.068 247.259 132.981 247.247 132.894C247.259 133.031 247.259 133.168 247.247 133.306C247.259 133.218 247.272 133.131 247.284 133.044C247.272 133.168 247.234 133.281 247.184 133.393C247.222 133.318 247.247 133.231 247.284 133.156C247.234 133.281 247.159 133.393 247.084 133.493C247.134 133.43 247.184 133.356 247.247 133.293C247.159 133.405 247.046 133.505 246.933 133.605C246.996 133.555 247.071 133.505 247.134 133.443C247.008 133.543 246.87 133.618 246.719 133.692C246.795 133.655 246.883 133.63 246.958 133.593C246.795 133.655 246.632 133.705 246.456 133.73C246.544 133.717 246.632 133.705 246.719 133.692C246.569 133.705 246.431 133.705 246.28 133.692C246.368 133.705 246.456 133.717 246.544 133.73C246.406 133.705 246.28 133.668 246.154 133.618C246.23 133.655 246.318 133.68 246.393 133.717C246.28 133.668 246.18 133.605 246.079 133.543C246.142 133.593 246.217 133.643 246.28 133.705C246.167 133.618 246.067 133.518 245.966 133.405C246.016 133.468 246.067 133.543 246.129 133.605C246.029 133.48 245.954 133.343 245.891 133.193C245.928 133.268 245.954 133.356 245.991 133.43C245.928 133.281 245.891 133.131 245.866 132.981C245.878 133.068 245.891 133.156 245.903 133.243C245.878 133.093 245.878 132.931 245.903 132.781C245.891 132.869 245.878 132.956 245.866 133.044C245.891 132.919 245.916 132.794 245.966 132.669C245.928 132.744 245.903 132.831 245.866 132.906C245.891 132.856 245.916 132.806 245.941 132.769C246.192 132.307 246.067 131.658 245.577 131.396C245.225 131.121 244.585 131.246 244.321 131.733Z" fill="#484D5F"/>
<path d="M435.306 137.484C444.056 138.489 453.236 139.324 461.815 136.785C465.524 135.685 469.561 133.981 472.054 130.918C474.178 128.304 474.663 124.828 472.259 122.22C471.254 121.134 469.793 120.326 468.276 120.401C466.644 120.475 465.387 121.548 464.479 122.825C462.771 125.222 462.225 128.277 462.621 131.149C462.997 133.885 464.253 136.615 466.419 138.408C468.994 140.54 472.429 140.866 475.551 139.779C479.28 138.475 482.525 135.603 484.922 132.548C487.21 129.635 488.972 125.792 488.119 122.023C487.415 118.914 484.826 116.021 481.65 115.308C478.577 114.616 475.619 116.232 474.403 119.09C473.249 121.799 473.857 125.025 476.302 126.81C478.747 128.596 482.436 128.671 484.942 126.953C487.511 125.188 488.365 121.772 487.449 118.887C486.397 115.587 483.269 113.753 479.888 113.638C475.885 113.502 472.354 115.621 469.615 118.364C466.869 121.114 464.055 124.665 463.318 128.562C462.696 131.808 463.823 135.501 466.794 137.274C469.499 138.883 472.723 137.973 474.608 135.597C476.541 133.159 476.698 129.812 474.69 127.374C472.716 124.97 469.315 123.925 466.282 124.441C462.805 125.031 460.025 127.747 458.659 130.878C457.02 134.632 457.471 138.869 458.987 142.583C460.305 145.809 462.553 149.855 466.234 150.786C469.567 151.628 472.976 149.428 474.424 146.501C475.735 143.853 475.769 140.58 474.369 137.959C472.935 135.271 470.08 133.784 467.067 133.695C464.137 133.607 461.057 134.795 459.206 137.111C456.747 140.193 457.054 144.505 458.318 148.009C459.575 151.478 461.781 154.914 465.285 156.442C468.584 157.881 472.689 157.61 475.667 155.532C478.508 153.549 480.271 150.079 480.066 146.617C479.881 143.534 477.969 140.383 474.513 140.601C471.548 140.791 468.837 143.113 467.689 145.754C466.398 148.728 467.074 152.334 468.645 155.063C470.326 157.983 473.201 160.278 476.541 160.977C479.786 161.663 483.276 160.862 486.015 159.042C488.665 157.277 490.878 154.425 491.117 151.173C491.329 148.382 490.113 145.279 487.811 143.602C485.052 141.585 481.65 142.712 479.649 145.211C477.736 147.601 477.026 150.725 477.456 153.719C477.859 156.51 479.335 159.321 481.951 160.617C485.277 162.267 489.013 160.991 491.773 158.845C494.771 156.516 497.77 152.897 498.152 149.007C498.446 146.012 496.622 142.549 493.405 142.095C490.55 141.694 488.112 144.131 487.429 146.718C486.664 149.631 488.296 152.286 491.001 153.44C493.808 154.636 497.312 154.208 499.751 152.395C502.708 150.202 504.081 146.528 504.266 142.957C504.45 139.392 503.521 135.44 500.966 132.813C498.822 130.599 495.714 129.818 492.709 130.328C489.833 130.81 487.026 132.514 485.714 135.176C484.43 137.783 484.854 141.13 486.773 143.323C489.095 145.985 492.975 145.632 495.536 143.473C497.9 141.483 498.835 138.224 498.405 135.237C497.387 128.114 489.007 125.283 482.852 127.775C477.436 129.974 474.034 136.826 476.411 142.339C477.695 145.313 481.036 147.907 484.314 146.23C487.21 144.743 488.433 141.273 487.927 138.204C487.408 135.06 485.093 132.494 481.923 131.849C478.911 131.231 475.482 132.208 473.508 134.619C471.562 136.995 471.446 140.377 472.764 143.079C474.294 146.216 477.62 147.771 481.042 147.52C484.922 147.234 488.474 145.136 491.322 142.617C494.191 140.078 496.616 136.826 497.551 133.071C499.074 126.926 495.284 118.676 488.064 118.92C485.147 119.022 482.122 120.543 480.626 123.089C479.185 125.547 479.608 128.521 481.561 130.558C483.46 132.548 486.445 133.526 489.164 133.173C492.149 132.786 494.457 130.626 495.379 127.815C496.336 124.896 495.789 121.48 494.02 118.975C492.005 116.123 488.576 114.738 485.188 114.385C481.281 113.984 477.306 114.833 473.625 116.096C469.813 117.4 466.159 119.212 462.997 121.718C457.006 126.471 453.004 134.537 455.456 142.162C456.474 145.32 458.803 148.647 462.334 149.19C465.196 149.631 468.536 147.574 468.427 144.478C468.42 144.206 468.181 143.901 467.88 143.935C465.1 144.193 462.874 146.25 462.136 148.898C461.309 151.872 462.682 154.989 464.697 157.161C468.98 161.765 476.623 162.919 481.719 158.981C483.938 157.263 485.673 154.629 485.844 151.777C485.981 149.516 484.84 146.698 482.299 146.386C479.342 146.026 477.279 149.068 476.91 151.641C476.534 154.276 477.511 156.992 479.273 158.954C483.474 163.646 491.151 162.695 495.434 158.655C499.983 154.371 501.588 146.685 498.993 140.981C497.743 138.231 495.331 136.099 492.299 135.569C489.806 135.128 487.135 135.902 485.653 138.027C482.9 141.966 485.1 147.873 489.423 149.57C494.894 151.723 501.315 148.314 503.863 143.364C506.376 138.482 505.775 132.202 502.442 127.842C500.727 125.602 498.084 123.517 495.14 123.456C492.244 123.388 489.867 125.697 489.403 128.46C488.959 131.115 490.188 133.804 491.991 135.712C494.239 138.088 497.456 139.08 500.639 139.412C504.532 139.82 508.343 139.25 512.148 138.448C515.959 137.654 519.648 136.968 523.554 137.131C525.392 137.206 527.134 137.403 528.739 138.346C530.289 139.263 531.614 140.512 532.919 141.735C535.446 144.091 538.342 147.017 538.219 150.738C538.11 154.072 534.722 157.453 531.382 155.464C528.37 153.671 526.778 149.557 526.403 146.257C525.624 139.412 530.323 132.752 537.461 132.181C540.931 131.903 544.1 133.417 546.573 135.753C549.093 138.143 551.306 141.361 552.344 144.681C552.911 146.494 553.103 148.497 552.29 150.27C551.491 152.008 549.851 153.223 548.034 153.78C544.892 154.737 541.436 153.671 539.018 151.56C533.301 146.569 534.934 137.756 539.783 132.806C542.256 130.273 545.446 128.501 548.806 127.408C552.29 126.281 556.272 125.778 559.748 127.184C566.367 129.859 567.938 138.523 566.777 144.777C565.636 150.901 561.852 156.666 556.108 159.395C550.657 161.989 543.82 161.527 538.711 158.356C536.115 156.747 533.117 153.929 532.803 150.738C532.4 146.698 538.014 144.546 541.074 143.419C547.269 141.137 554.919 140.03 559.1 134.374C560.848 132.005 561.804 128.908 561.231 125.982C560.664 123.096 558.505 120.964 555.848 119.844C550.35 117.522 542.809 118.384 537.871 121.65C535.432 123.266 532.885 125.921 533.028 129.051C533.165 132.073 535.924 133.885 538.438 134.985C545.589 138.129 553.437 139.833 561.21 140.458C568.416 141.037 576.026 141.21 582.51 138.014C585.447 136.574 588.569 134.843 590.973 132.616C592.988 130.755 594.648 128.053 594.054 125.215C593.514 122.641 591.014 121.229 588.48 121.487C586.035 121.732 583.535 123.253 582.36 125.432C580.898 128.162 581.561 131.061 583.917 133.003C589.484 137.586 597.783 135.108 603.322 139.901C605.795 142.04 607.345 145.218 606.628 148.511C605.904 151.838 603.268 154.384 599.962 155.172C596.697 155.953 592.851 155.22 590.604 152.592C588.084 149.638 588.323 145.564 589.546 142.122C591.963 135.332 596.915 127.707 604.777 126.872C607.946 126.539 611.717 127.578 613.52 130.396C615.412 133.363 612.769 136.092 612.345 139.046C611.929 141.952 613.602 144.77 615.863 146.488C618.54 148.525 622.044 148.952 625.296 148.362C629.018 147.683 632.31 144.953 636.217 145.557C639.325 146.04 642.057 147.764 645.083 148.525C647.569 149.149 650.254 148.959 652.214 147.167C654.14 145.401 654.939 142.597 654.161 140.105C653.949 139.44 652.89 139.725 653.102 140.397C654.044 143.392 652.255 146.861 649.12 147.615C646.114 148.335 643.068 146.698 640.35 145.646C637.447 144.519 634.619 143.921 631.593 144.98C629.845 145.591 628.212 146.481 626.423 146.977C624.469 147.52 622.379 147.71 620.371 147.309C617.085 146.657 613.985 144.179 613.452 140.757C612.987 137.81 615.426 135.468 615.344 132.575C615.269 129.913 613.103 127.849 610.829 126.77C608.145 125.493 605.085 125.439 602.25 126.267C595.638 128.202 591.69 134.252 589.129 140.234C587.865 143.188 587.052 146.447 587.899 149.625C588.617 152.313 590.461 154.568 593.043 155.668C598.329 157.929 605.023 155.756 607.229 150.304C609.511 144.682 605.665 139.107 600.501 136.839C597.223 135.4 593.589 135.332 590.133 134.585C587.305 133.974 583.337 132.467 582.715 129.234C582.066 125.873 585.379 122.94 588.487 122.567C589.867 122.404 591.342 122.791 592.257 123.891C593.295 125.14 593.227 126.919 592.694 128.365C591.526 131.57 588.179 133.539 585.365 135.155C582.21 136.968 579.081 138.435 575.523 139.304C566.791 140.248 570.688 139.684 565.493 139.684C561.436 139.372 557.399 139.066 553.396 138.313C549.558 137.593 545.774 136.568 542.106 135.237C539.339 134.232 534.907 132.928 534.203 129.594C533.438 125.975 537.42 122.893 540.268 121.528C543.281 120.088 546.737 119.572 550.056 119.715C553.089 119.844 556.49 120.638 558.581 123.001C560.896 125.622 560.636 129.424 559.072 132.344C557.406 135.447 554.339 137.43 551.176 138.801C547.877 140.234 544.346 141.049 540.972 142.278C538.103 143.323 534.722 144.688 532.796 147.167C528.937 152.13 535.617 158.159 539.79 160.169C544.688 162.532 550.63 162.811 555.684 160.753C560.937 158.608 564.83 154.052 566.791 148.83C568.819 143.419 568.853 136.975 566.135 131.787C564.762 129.16 562.59 127.034 559.769 126.002C556.702 124.875 553.266 125.093 550.138 125.873C544.08 127.388 538.137 131.183 535.583 137.036C533.213 142.461 534.025 149.204 538.984 152.911C543.294 156.136 550.876 156.258 553.335 150.616C554.598 147.71 553.683 144.451 552.324 141.755C550.924 138.971 548.963 136.282 546.566 134.273C542.003 130.45 535.808 130.015 530.883 133.478C525.843 137.022 524.162 143.459 525.904 149.217C526.724 151.92 528.315 154.914 530.829 156.408C533.096 157.752 535.76 157.182 537.482 155.253C539.367 153.142 539.736 150.276 538.779 147.662C537.686 144.668 535.344 142.475 533.055 140.363C530.74 138.231 528.452 136.5 525.235 136.153C521.826 135.787 518.404 136.058 515.058 136.724C511.144 137.498 507.271 138.496 503.248 138.448C499.696 138.408 495.762 137.837 493.105 135.277C490.981 133.227 489.512 129.852 491.028 127.041C493.118 123.157 497.647 124.556 500.249 127.021C504.45 131.007 505.556 137.837 502.845 142.943C501.397 145.68 498.863 147.751 495.878 148.647C493.077 149.489 489.635 149.251 487.518 147.038C485.817 145.259 485.12 142.454 485.851 140.098C486.78 137.111 489.922 135.984 492.811 136.798C500.065 138.842 500.195 148.742 497.353 154.255C495.775 157.318 493.105 159.694 489.737 160.604C486.561 161.466 482.9 160.984 480.475 158.628C478.365 156.571 477.272 153.298 478.317 150.46C478.918 148.837 480.619 146.949 482.559 147.547C484.061 148.009 484.676 149.767 484.744 151.179C484.881 154.337 482.552 157.324 479.936 158.859C476.937 160.617 473.256 160.679 470.045 159.45C466.938 158.261 464.076 155.715 463.215 152.429C462.368 149.197 464.281 145.354 467.867 145.014C467.682 144.831 467.498 144.648 467.32 144.471C467.382 146.094 466.186 147.35 464.697 147.88C463.195 148.416 461.631 148.09 460.305 147.248C457.505 145.449 456.139 141.898 455.886 138.72C455.36 132.032 459.124 125.901 464.39 122.01C469.383 118.316 475.947 115.716 482.197 115.403C485.291 115.247 488.508 115.75 491.083 117.569C493.351 119.178 494.662 121.806 494.737 124.563C494.806 127.15 493.747 129.866 491.452 131.258C489.341 132.534 486.568 132.351 484.41 131.278C482.32 130.239 480.653 128.243 480.865 125.812C481.104 123.076 483.549 121.059 486.056 120.333C492.06 118.588 496.752 124.251 496.848 129.818C496.957 136.174 491.698 141.986 486.329 144.79C483.44 146.297 479.806 147.18 476.739 145.639C474.246 144.383 472.846 141.585 473.01 138.856C473.372 132.806 482.067 130.545 485.605 135.345C487.217 137.532 487.442 140.709 486.063 143.065C485.188 144.559 483.529 145.897 481.698 145.646C480.148 145.435 478.816 144.227 477.996 142.95C475.223 138.638 477.402 132.446 481.445 129.73C486.076 126.613 493.89 127.503 496.54 132.819C497.715 135.176 497.729 138.116 496.527 140.465C495.147 143.154 491.554 145.279 488.665 143.5C486.445 142.128 485.619 139.012 486.322 136.608C487.039 134.157 489.266 132.426 491.643 131.686C494.054 130.939 496.827 131.095 498.965 132.521C501.684 134.34 502.906 137.763 503.145 140.886C503.596 146.698 500.27 153.726 493.439 152.945C490.871 152.653 488.201 150.867 488.33 148.036C488.433 145.652 490.509 142.862 493.146 143.14C496.527 143.5 497.585 147.574 496.786 150.324C495.857 153.522 493.214 156.537 490.502 158.424C487.941 160.203 484.471 161.106 481.719 159.198C479.676 157.786 478.652 155.26 478.467 152.863C478.256 150.147 479.075 147.316 480.995 145.32C483.071 143.167 486.11 143.045 488.119 145.327C492.217 149.978 489.123 156.279 484.239 158.791C478.795 161.588 472.34 159.572 469.444 154.208C468.119 151.75 467.552 148.477 468.83 145.883C469.916 143.69 472.327 141.606 474.909 141.646C478.447 141.707 479.376 145.931 478.836 148.728C478.249 151.804 476.084 154.5 473.112 155.606C470.127 156.713 466.603 156.306 464.028 154.425C461.309 152.442 459.602 149.034 458.83 145.836C458.086 142.753 458.359 139.188 460.838 136.934C462.744 135.203 465.517 134.463 468.051 134.829C473.693 135.637 475.974 142.203 472.983 146.759C471.104 149.625 467.307 150.826 464.438 148.647C461.801 146.651 460.114 143.086 459.267 139.983C458.379 136.744 458.489 133.247 460.155 130.273C461.651 127.612 464.315 125.5 467.464 125.371C470.121 125.255 473.03 126.457 474.39 128.82C475.851 131.353 474.717 134.598 472.361 136.174C469.711 137.939 466.576 136.534 465.141 133.947C463.482 130.959 464.349 127.537 465.981 124.739C469.082 119.416 475.25 112.979 482.115 115.064C485.024 115.946 486.875 118.588 486.705 121.609C486.534 124.61 484.259 126.831 481.261 127.055C478.57 127.252 475.708 125.826 475.059 123.062C474.451 120.482 475.879 117.413 478.447 116.496C481.384 115.451 484.444 117.338 485.994 119.776C487.791 122.594 487.415 126.002 485.96 128.888C484.444 131.903 481.964 134.517 479.253 136.513C476.678 138.414 473.372 139.888 470.114 139.08C465.305 137.898 463.085 132.351 463.686 127.842C464.001 125.48 465.442 121.643 468.276 121.48C471.528 121.297 473.474 125.188 472.532 127.91C471.48 130.959 468.434 132.887 465.64 134.177C462.443 135.658 458.967 136.527 455.476 136.961C448.776 137.79 441.98 137.145 435.306 136.377C434.603 136.309 434.61 137.403 435.306 137.484Z" fill="white"/>
<path d="M626.275 108.948C624.458 113.269 622.791 122.592 630.658 125.312C640.492 128.712 650.279 132.42 653.549 140.097" stroke="white" stroke-linecap="round" stroke-linejoin="round"/>
<g filter="url(#filter2_d_675_731)">
<path d="M602.338 67.1097C602.338 54.3413 612.741 44 625.585 44C638.429 44 648.832 54.3413 648.832 67.1097C648.832 72.2012 647.187 76.897 644.374 80.7223C641.057 85.6819 632.432 91.301 632.432 94.6778V98.5294C632.432 99.2944 631.795 99.9276 631.025 99.9276H627.283H623.86H620.118C619.348 99.9276 618.712 99.2944 618.712 98.5294V94.6778C618.712 91.3274 610.087 85.7083 606.769 80.7223C603.983 76.897 602.338 72.2012 602.338 67.1097Z" fill="url(#paint4_linear_675_731)"/>
</g>
<path d="M608.257 87.0739C608.282 87.1613 608.29 87.253 608.28 87.3435C608.27 87.434 608.242 87.5216 608.197 87.6013L605.071 93.228C604.98 93.3867 604.83 93.5034 604.653 93.553C604.476 93.6025 604.287 93.5807 604.127 93.4924C603.966 93.4042 603.847 93.2565 603.795 93.0814C603.743 92.9063 603.762 92.7179 603.849 92.5571L606.976 86.9306C607.043 86.8105 607.144 86.7127 607.266 86.6497C607.389 86.5867 607.528 86.5613 607.665 86.5766C607.802 86.592 607.931 86.6474 608.037 86.7359C608.142 86.8244 608.219 86.942 608.257 87.0739Z" fill="url(#paint5_linear_675_731)"/>
<path d="M603.214 83.0472C603.253 83.1824 603.25 83.3262 603.205 83.4596C603.16 83.5931 603.076 83.7098 602.963 83.7942L596.383 88.7012C596.235 88.8044 596.052 88.8462 595.873 88.8179C595.695 88.7895 595.534 88.6932 595.425 88.5492C595.317 88.4053 595.268 88.2251 595.291 88.0466C595.313 87.868 595.405 87.7052 595.546 87.5924L602.125 82.6853C602.216 82.6179 602.321 82.5734 602.433 82.5554C602.544 82.5375 602.658 82.5467 602.766 82.5824C602.873 82.618 602.97 82.679 603.048 82.7601C603.126 82.8412 603.183 82.9399 603.214 83.0478L603.214 83.0472Z" fill="url(#paint6_linear_675_731)"/>
<path d="M600.133 72.4214C600.165 72.5293 600.169 72.6431 600.146 72.7531C600.124 72.8632 600.074 72.966 600.003 73.0529C599.931 73.1398 599.839 73.2081 599.735 73.252C599.631 73.2958 599.518 73.3139 599.406 73.3047L591.208 72.6328C591.025 72.6164 590.855 72.5285 590.737 72.3884C590.618 72.2484 590.56 72.0674 590.576 71.885C590.591 71.7026 590.678 71.5335 590.818 71.4146C590.958 71.2958 591.139 71.2367 591.323 71.2503L599.52 71.9223C599.661 71.9339 599.796 71.9879 599.905 72.077C600.015 72.1661 600.094 72.2862 600.133 72.4214Z" fill="url(#paint7_linear_675_731)"/>
<path d="M600.778 77.8989C600.83 78.0756 600.808 78.2653 600.719 78.4263C600.629 78.5872 600.479 78.7063 600.301 78.7573L589.635 81.8143C589.547 81.8395 589.455 81.8473 589.364 81.8371C589.273 81.827 589.185 81.799 589.105 81.755C589.025 81.711 588.954 81.6517 588.897 81.5805C588.84 81.5093 588.797 81.4276 588.772 81.3401C588.746 81.2526 588.739 81.1611 588.749 81.0706C588.759 80.9801 588.787 80.8925 588.831 80.8128C588.876 80.7331 588.935 80.6628 589.007 80.606C589.079 80.5492 589.161 80.507 589.249 80.4818L599.915 77.4247C600.093 77.3738 600.284 77.3951 600.445 77.484C600.607 77.573 600.727 77.7222 600.778 77.8989Z" fill="url(#paint8_linear_675_731)"/>
<g opacity="0.55">
<g opacity="0.55">
<g opacity="0.55">
<path opacity="0.55" d="M648.805 68.7969C647.531 78.2676 639.835 88.0813 625.584 88.0813C611.36 88.0813 603.956 77.8191 602.364 68.7969C602.629 73.3608 604.221 77.5553 606.769 81.0376C610.086 85.9972 618.711 91.6164 618.711 94.9931V98.8447C618.711 99.6098 619.348 100.243 620.117 100.243H623.859H627.283H631.051C631.821 100.243 632.458 99.6098 632.458 98.8447V94.9931C632.458 91.6427 641.082 86.0236 644.4 81.0376C646.921 77.5817 648.513 73.3608 648.805 68.7969Z" fill="#F6AD15"/>
</g>
</g>
</g>
<path d="M632.99 96.6545H618.182V103.672C618.182 104.806 618.5 105.941 619.137 106.917C620.305 108.737 622.322 109.845 624.498 109.845H626.674C628.85 109.845 630.867 108.737 632.035 106.917C632.645 105.941 632.99 104.833 632.99 103.672V96.6545Z" fill="#484D5F"/>
<path d="M449.661 92C449.661 -148.927 252.666 -344.73 8.03009 -348.931C3.61247 -349.007 -3.83969e-05 -345.418 -3.82038e-05 -341L-3.49691e-07 525C-1.56562e-07 529.418 3.6125 533.007 8.03013 532.931C252.666 528.73 449.661 332.927 449.661 92Z" fill="white"/>
</g>
<defs>
<filter id="filter0_d_675_731" x="-19" y="-12" width="714" height="222" filterUnits="userSpaceOnUse" color-interpolation-filters="sRGB">
<feFlood flood-opacity="0" result="BackgroundImageFix"/>
<feColorMatrix in="SourceAlpha" type="matrix" values="0 0 0 0 0 0 0 0 0 0 0 0 0 0 0 0 0 0 127 0" result="hardAlpha"/>
<feOffset dy="7"/>
<feGaussianBlur stdDeviation="9.5"/>
<feComposite in2="hardAlpha" operator="out"/>
<feColorMatrix type="matrix" values="0 0 0 0 0.0196078 0 0 0 0 0.521569 0 0 0 0 0.372549 0 0 0 0.2 0"/>
<feBlend mode="normal" in2="BackgroundImageFix" result="effect1_dropShadow_675_731"/>
<feBlend mode="normal" in="SourceGraphic" in2="effect1_dropShadow_675_731" result="shape"/>
</filter>
<filter id="filter1_d_675_731" x="-19" y="-12" width="714" height="222" filterUnits="userSpaceOnUse" color-interpolation-filters="sRGB">
<feFlood flood-opacity="0" result="BackgroundImageFix"/>
<feColorMatrix in="SourceAlpha" type="matrix" values="0 0 0 0 0 0 0 0 0 0 0 0 0 0 0 0 0 0 127 0" result="hardAlpha"/>
<feOffset dy="7"/>
<feGaussianBlur stdDeviation="9.5"/>
<feComposite in2="hardAlpha" operator="out"/>
<feColorMatrix type="matrix" values="0 0 0 0 0.0196078 0 0 0 0 0.521569 0 0 0 0 0.372549 0 0 0 0.2 0"/>
<feBlend mode="normal" in2="BackgroundImageFix" result="effect1_dropShadow_675_731"/>
<feBlend mode="normal" in="SourceGraphic" in2="effect1_dropShadow_675_731" result="shape"/>
</filter>
<filter id="filter2_d_675_731" x="582.338" y="21" width="86.4945" height="95.9276" filterUnits="userSpaceOnUse" color-interpolation-filters="sRGB">
<feFlood flood-opacity="0" result="BackgroundImageFix"/>
<feColorMatrix in="SourceAlpha" type="matrix" values="0 0 0 0 0 0 0 0 0 0 0 0 0 0 0 0 0 0 127 0" result="hardAlpha"/>
<feOffset dy="-3"/>
<feGaussianBlur stdDeviation="10"/>
<feComposite in2="hardAlpha" operator="out"/>
<feColorMatrix type="matrix" values="0 0 0 0 0.956863 0 0 0 0 0.819608 0 0 0 0 0.129412 0 0 0 0.6 0"/>
<feBlend mode="normal" in2="BackgroundImageFix" result="effect1_dropShadow_675_731"/>
<feBlend mode="normal" in="SourceGraphic" in2="effect1_dropShadow_675_731" result="shape"/>
</filter>
<linearGradient id="paint0_linear_675_731" x1="422.535" y1="23.0976" x2="617.296" y2="238.517" gradientUnits="userSpaceOnUse">
<stop stop-color="white" stop-opacity="0.3"/>
<stop offset="1" stop-color="white" stop-opacity="0"/>
</linearGradient>
<linearGradient id="paint1_linear_675_731" x1="820.256" y1="-94.7278" x2="655.422" y2="226.015" gradientUnits="userSpaceOnUse">
<stop stop-color="white" stop-opacity="0.9"/>
<stop offset="1" stop-color="white" stop-opacity="0"/>
</linearGradient>
<linearGradient id="paint2_linear_675_731" x1="658.038" y1="60.1906" x2="397.612" y2="-7.04389" gradientUnits="userSpaceOnUse">
<stop stop-color="#76DD9E"/>
<stop offset="1" stop-color="#1FB381"/>
</linearGradient>
<linearGradient id="paint3_linear_675_731" x1="707.337" y1="15.4928" x2="683.649" y2="-48.4699" gradientUnits="userSpaceOnUse">
<stop stop-color="#5FECB4"/>
<stop offset="1" stop-color="#76DD9E"/>
</linearGradient>
<linearGradient id="paint4_linear_675_731" x1="634.213" y1="54.4438" x2="615.459" y2="100.006" gradientUnits="userSpaceOnUse">
<stop stop-color="#F7DE64"/>
<stop offset="1" stop-color="#F4D121"/>
<stop offset="1" stop-color="#FFC700"/>
</linearGradient>
<linearGradient id="paint5_linear_675_731" x1="603.161" y1="90.8966" x2="608.884" y2="89.2366" gradientUnits="userSpaceOnUse">
<stop stop-color="white" stop-opacity="0"/>
<stop offset="1" stop-color="#FFF0BB"/>
</linearGradient>
<linearGradient id="paint6_linear_675_731" x1="594.909" y1="86.9345" x2="603.61" y2="84.411" gradientUnits="userSpaceOnUse">
<stop stop-color="white" stop-opacity="0"/>
<stop offset="1" stop-color="#FFF0BB"/>
</linearGradient>
<linearGradient id="paint7_linear_675_731" x1="591.005" y1="73.528" x2="599.721" y2="70.9999" gradientUnits="userSpaceOnUse">
<stop stop-color="white" stop-opacity="0"/>
<stop offset="1" stop-color="#FFF0BB"/>
</linearGradient>
<linearGradient id="paint8_linear_675_731" x1="588.772" y1="81.3401" x2="600.767" y2="77.861" gradientUnits="userSpaceOnUse">
<stop stop-color="white" stop-opacity="0"/>
<stop offset="1" stop-color="#FFF0BB"/>
</linearGradient>
</defs>
</svg>
