<svg width="24" height="24" viewBox="0 0 24 24" fill="none" xmlns="http://www.w3.org/2000/svg">
<path d="M12 0C5.38306 0 0 5.38306 0 12C0 18.6169 5.38306 24 12 24C18.6169 24 24 18.6169 24 12C24 5.38306 18.6169 0 12 0ZM13.667 13.7531L5.90711 17.7961L10.3327 10.2469L18.0929 6.20386L13.667 13.7531ZM12 13.4352C12.7926 13.4352 13.4352 12.7926 13.4352 12C13.4352 11.2074 12.7926 10.5648 12 10.5648C11.2074 10.5648 10.5648 11.2074 10.5648 12C10.5648 12.7926 11.2074 13.4352 12 13.4352Z" fill="white"/>
</svg>
