<svg width="37" height="33" viewBox="0 0 37 33" fill="none" xmlns="http://www.w3.org/2000/svg">
<path d="M12.1085 17.589H9.90692C9.28774 17.589 8.80615 18.1394 8.80615 18.6898V31.899C8.80615 32.5182 9.28774 32.9997 9.90692 32.9997H12.1085C12.6588 32.9997 13.2092 32.5182 13.2092 31.899V18.6898C13.2092 18.1394 12.6588 17.589 12.1085 17.589ZM3.30231 24.1936H1.10077C0.481586 24.1936 0 24.744 0 25.2944V31.899C0 32.5182 0.481586 32.9997 1.10077 32.9997H3.30231C3.85269 32.9997 4.40307 32.5182 4.40307 31.899V25.2944C4.40307 24.744 3.85269 24.1936 3.30231 24.1936ZM20.9146 10.9844H18.7131C18.0939 10.9844 17.6123 11.5348 17.6123 12.0851V31.899C17.6123 32.5182 18.0939 32.9997 18.7131 32.9997H20.9146C21.465 32.9997 22.0154 32.5182 22.0154 31.899V12.0851C22.0154 11.5348 21.465 10.9844 20.9146 10.9844Z" fill="#00A79D"/>
<path d="M27.7394 3.93945H29.9409C30.4913 3.93945 31.0417 4.48984 31.0417 5.04022V31.899C31.0417 32.5182 30.4913 32.9997 29.9409 32.9997H27.7394C27.1202 32.9997 26.6386 32.5182 26.6386 31.899V5.04022C26.6386 4.48984 27.1202 3.93945 27.7394 3.93945Z" fill="#00A79D"/>
<path d="M23.1293 10.5162C23.3368 10.7746 23.6803 10.7746 23.8879 10.5162L28.6806 4.5506C28.8882 4.29222 29.2317 4.29222 29.4393 4.5506L34.232 10.5162C34.4396 10.7746 34.7831 10.7746 34.9907 10.5162L35.7483 9.57322C35.947 9.32588 35.947 8.93278 35.7483 8.68544L29.4393 0.832578C29.2317 0.574201 28.8882 0.5742 28.6806 0.832577L22.3717 8.68544C22.173 8.93278 22.173 9.32588 22.3717 9.57322L23.1293 10.5162Z" fill="#00A79D"/>
<path fill-rule="evenodd" clip-rule="evenodd" d="M29.0571 4.99344L24.2644 10.9591C23.8492 11.4759 23.1622 11.4759 22.747 10.9591L21.9895 10.0161C21.592 9.52145 21.5921 8.73523 21.9895 8.24055L28.2984 0.387571C28.7136 -0.129193 29.4006 -0.129189 29.8158 0.387572L36.1248 8.24054C36.5222 8.73523 36.5222 9.52145 36.1248 10.0161L35.3672 10.9591C34.952 11.4759 34.265 11.4759 33.8498 10.9591L29.0571 4.99344ZM22.3688 8.68444L28.6778 0.83147C28.8854 0.573089 29.2289 0.57309 29.4364 0.831472L35.7454 8.68444C35.9441 8.93179 35.9441 9.3249 35.7454 9.57224L34.9878 10.5152C34.7803 10.7736 34.4368 10.7736 34.2292 10.5152L29.4364 4.54954C29.2289 4.29116 28.8854 4.29116 28.6778 4.54954L23.885 10.5152C23.6775 10.7736 23.334 10.7736 23.1264 10.5152L22.3688 9.57224C22.1701 9.3249 22.1701 8.93179 22.3688 8.68444Z" fill="#00A79D"/>
</svg>
