<svg width="36" height="32" viewBox="0 0 36 32" fill="none" xmlns="http://www.w3.org/2000/svg">
<path d="M30 0H26C23.4375 0 21.125 1 19.375 2.5625C20.9375 4.5625 21.9375 7.0625 21.9375 9.8125C26.5 8.875 30 4.875 30 0ZM16 10V17C16 17.5625 16.4375 18 17 18H19C19.5 18 20 17.5625 20 17V10C20 4.5 15.5 0 10 0H6C6 5.5625 10.4375 10 16 10ZM35.3125 20.5625C34.5625 19.875 33.4375 19.9375 32.625 20.5625L26.875 25.125C26.1875 25.75 25.25 26 24.375 26H17C16.4375 26 16 25.5625 16 25C16 24.5 16.4375 24 17 24H21.875C22.875 24 23.8125 23.375 23.9375 22.375C24.125 21.125 23.1875 20 22 20H12C10.3125 20 8.625 20.625 7.3125 21.6875L4.4375 24H1C0.4375 24 0 24.5 0 25V31C0 31.5625 0.4375 32 1 32H23.25C24.1875 32 25.0625 31.75 25.75 31.125L35.25 23.5625C36.1875 22.8125 36.25 21.375 35.3125 20.5625Z" fill="#00A79D"/>
</svg>
