<svg width="53" height="52" viewBox="0 0 53 52" fill="none" xmlns="http://www.w3.org/2000/svg">
<g opacity="0.3">
<mask id="mask0_623_599" style="mask-type:alpha" maskUnits="userSpaceOnUse" x="0" y="0" width="53" height="52">
<circle cx="26.5" cy="26" r="26" fill="#003788"/>
</mask>
<g mask="url(#mask0_623_599)">
<circle cx="26.5" cy="26" r="26" fill="#5AD3A0"/>
<g opacity="0.5">
<path d="M41.3476 14.233C50.9119 8.37773 62.7677 11.7933 67.5 14.233V54H0.5V44.4852C16.1914 45.949 29.3922 21.5521 41.3476 14.233Z" fill="url(#paint0_linear_623_599)" style="mix-blend-mode:overlay"/>
</g>
</g>
<g clip-path="url(#clip0_623_599)">
<path d="M15.7157 16.7782C17.0655 15.4281 18.8759 14.6385 20.7837 14.5677C22.6915 14.4969 24.5554 15.1502 26.0016 16.3965C27.4464 15.1523 29.3079 14.4997 31.2134 14.5695C33.1189 14.6392 34.9277 15.4261 36.2778 16.7726C37.6278 18.1191 38.4195 19.9259 38.4942 21.8312C38.5689 23.7365 37.9212 25.5997 36.6808 27.0478L27.6457 36.112C27.2306 36.5272 26.6739 36.7702 26.0871 36.7922C25.5004 36.8142 24.927 36.6136 24.482 36.2306L24.354 36.1131L15.3201 27.0478C14.0803 25.6009 13.4323 23.7394 13.5056 21.8355C13.579 19.9315 14.3682 18.1254 15.7157 16.7782ZM17.3609 18.4235C16.4094 19.3752 15.8609 20.6569 15.8293 22.0023C15.7977 23.3478 16.2853 24.6538 17.1911 25.6492L17.3609 25.8284L26.0004 34.4678L32.1708 28.2963L28.0576 24.1831L26.8242 25.4165C26.5001 25.7407 26.1153 25.998 25.6918 26.1735C25.2683 26.349 24.8144 26.4394 24.356 26.4396C23.4301 26.4398 22.5421 26.0722 21.8872 25.4176C21.2324 24.7631 20.8644 23.8753 20.8641 22.9494C20.8639 22.0235 21.2315 21.1355 21.886 20.4806L24.3319 18.0337C23.3585 17.2568 22.1402 16.8523 20.8955 16.8926C19.6508 16.9329 18.4612 17.4154 17.5401 18.2536L17.3609 18.4235ZM27.235 21.714C27.4532 21.4959 27.7491 21.3733 28.0576 21.3733C28.3661 21.3733 28.662 21.4959 28.8802 21.714L33.8161 26.6499L34.6399 25.8284C35.6073 24.8616 36.1581 23.5547 36.1744 22.1871C36.1907 20.8195 35.6713 19.4998 34.7272 18.5102C33.7831 17.5206 32.4892 16.9398 31.1224 16.8918C29.7555 16.8439 28.4241 17.3326 27.413 18.2536L27.235 18.4235L23.5325 22.1259C23.3308 22.3275 23.2102 22.5961 23.1934 22.8807C23.1767 23.1653 23.2651 23.4462 23.4417 23.67L23.5325 23.7712C23.734 23.9729 24.0026 24.0935 24.2873 24.1103C24.5719 24.127 24.8528 24.0386 25.0765 23.862L25.1778 23.7712L27.235 21.714Z" fill="white"/>
</g>
</g>
<defs>
<linearGradient id="paint0_linear_623_599" x1="69.6713" y1="6.57802" x2="28.9741" y2="66.0621" gradientUnits="userSpaceOnUse">
<stop stop-color="white" stop-opacity="0"/>
<stop offset="1" stop-color="white"/>
</linearGradient>
<clipPath id="clip0_623_599">
<rect width="25" height="25" fill="white" transform="translate(13.5 13)"/>
</clipPath>
</defs>
</svg>
