<svg width="53" height="53" viewBox="0 0 53 53" fill="none" xmlns="http://www.w3.org/2000/svg">
<mask id="mask0_660_644" style="mask-type:alpha" maskUnits="userSpaceOnUse" x="0" y="0" width="53" height="53">
<circle cx="26.5" cy="26.25" r="26" fill="#003788"/>
</mask>
<g mask="url(#mask0_660_644)">
<circle cx="26.5" cy="26.25" r="26" fill="#5AD3A0"/>
<g opacity="0.5">
<path d="M41.3476 14.483C50.9119 8.62773 62.7677 12.0433 67.5 14.483V54.25H0.5V44.7352C16.1914 46.199 29.3922 21.8021 41.3476 14.483Z" fill="url(#paint0_linear_660_644)" style="mix-blend-mode:overlay"/>
</g>
</g>
<g clip-path="url(#clip0_660_644)">
<path d="M15.7157 17.0282C17.0655 15.6781 18.8759 14.8885 20.7837 14.8177C22.6915 14.7469 24.5554 15.4002 26.0016 16.6465C27.4464 15.4023 29.3079 14.7497 31.2134 14.8195C33.1189 14.8892 34.9277 15.6761 36.2778 17.0226C37.6278 18.3691 38.4195 20.1759 38.4942 22.0812C38.5689 23.9865 37.9212 25.8497 36.6808 27.2978L27.6457 36.362C27.2306 36.7772 26.6739 37.0202 26.0871 37.0422C25.5004 37.0642 24.927 36.8636 24.482 36.4806L24.354 36.3631L15.3201 27.2978C14.0803 25.8509 13.4323 23.9894 13.5056 22.0855C13.579 20.1815 14.3682 18.3754 15.7157 17.0282ZM17.3609 18.6735C16.4094 19.6252 15.8609 20.9069 15.8293 22.2523C15.7977 23.5978 16.2853 24.9038 17.1911 25.8992L17.3609 26.0784L26.0004 34.7178L32.1708 28.5463L28.0576 24.4331L26.8242 25.6665C26.5001 25.9907 26.1153 26.248 25.6918 26.4235C25.2683 26.599 24.8144 26.6894 24.356 26.6896C23.4301 26.6898 22.5421 26.3222 21.8872 25.6676C21.2324 25.0131 20.8644 24.1253 20.8641 23.1994C20.8639 22.2735 21.2315 21.3855 21.886 20.7306L24.3319 18.2837C23.3585 17.5068 22.1402 17.1023 20.8955 17.1426C19.6508 17.1829 18.4612 17.6654 17.5401 18.5036L17.3609 18.6735ZM27.235 21.964C27.4532 21.7459 27.7491 21.6233 28.0576 21.6233C28.3661 21.6233 28.662 21.7459 28.8802 21.964L33.8161 26.8999L34.6399 26.0784C35.6073 25.1116 36.1581 23.8047 36.1744 22.4371C36.1907 21.0695 35.6713 19.7498 34.7272 18.7602C33.7831 17.7706 32.4892 17.1898 31.1224 17.1418C29.7555 17.0939 28.4241 17.5826 27.413 18.5036L27.235 18.6735L23.5325 22.3759C23.3308 22.5775 23.2102 22.8461 23.1934 23.1307C23.1767 23.4153 23.2651 23.6962 23.4417 23.92L23.5325 24.0212C23.734 24.2229 24.0026 24.3435 24.2873 24.3603C24.5719 24.377 24.8528 24.2886 25.0765 24.112L25.1778 24.0212L27.235 21.964Z" fill="white"/>
</g>
<defs>
<linearGradient id="paint0_linear_660_644" x1="69.6713" y1="6.82802" x2="28.9741" y2="66.3121" gradientUnits="userSpaceOnUse">
<stop stop-color="white" stop-opacity="0"/>
<stop offset="1" stop-color="white"/>
</linearGradient>
<clipPath id="clip0_660_644">
<rect width="25" height="25" fill="white" transform="translate(13.5 13.25)"/>
</clipPath>
</defs>
</svg>
