<svg width="21" height="20" viewBox="0 0 21 20" fill="none" xmlns="http://www.w3.org/2000/svg">
<path fill-rule="evenodd" clip-rule="evenodd" d="M10.8095 2.91501C11.906 1.63501 13.586 0.825012 15.3363 0.825012C18.4346 0.825012 20.869 3.24501 20.869 6.32501C20.869 10.1019 17.4544 13.18 12.2809 17.8435L12.2682 17.855L10.8095 19.175L9.35089 17.865L9.31119 17.8291C4.15277 13.1693 0.75 10.0953 0.75 6.32501C0.75 3.24501 3.1844 0.825012 6.28274 0.825012C8.03309 0.825012 9.71304 1.63501 10.8095 2.91501ZM10.8095 16.475L10.9101 16.375C15.6985 12.065 18.8571 9.21501 18.8571 6.32501C18.8571 4.32501 17.3482 2.82501 15.3363 2.82501C13.7871 2.82501 12.2782 3.81501 11.7551 5.18501H9.87399C9.34083 3.81501 7.8319 2.82501 6.28274 2.82501C4.27083 2.82501 2.7619 4.32501 2.7619 6.32501C2.7619 9.21501 5.92059 12.065 10.7089 16.375L10.8095 16.475Z" fill="white"/>
</svg>
