<svg width="18" height="18" viewBox="0 0 18 18" fill="none" xmlns="http://www.w3.org/2000/svg">
<path fill-rule="evenodd" clip-rule="evenodd" d="M9 16.5C13.1421 16.5 16.5 13.1421 16.5 9C16.5 4.85786 13.1421 1.5 9 1.5C4.85786 1.5 1.5 4.85786 1.5 9C1.5 13.1421 4.85786 16.5 9 16.5ZM9 18C13.9706 18 18 13.9706 18 9C18 4.02944 13.9706 0 9 0C4.02944 0 0 4.02944 0 9C0 13.9706 4.02944 18 9 18Z" fill="white"/>
<path d="M6.69672 5.61052C6.83272 5.49052 6.98072 5.37652 7.14072 5.26852C7.30472 5.16052 7.48072 5.06652 7.66872 4.98652C7.85672 4.90652 8.06072 4.84452 8.28072 4.80052C8.50072 4.75252 8.73872 4.72852 8.99472 4.72852C9.34272 4.72852 9.65872 4.77652 9.94272 4.87252C10.2307 4.96852 10.4767 5.10652 10.6807 5.28652C10.8847 5.46252 11.0427 5.67652 11.1547 5.92851C11.2667 6.18052 11.3227 6.46252 11.3227 6.77452C11.3227 7.07852 11.2787 7.34251 11.1907 7.56652C11.1027 7.78652 10.9907 7.97852 10.8547 8.14252C10.7227 8.30651 10.5787 8.44852 10.4227 8.56852C10.2667 8.68852 10.1187 8.80252 9.97872 8.91051C9.83872 9.01451 9.71672 9.11852 9.61272 9.22252C9.51272 9.32252 9.45272 9.43652 9.43272 9.56452L9.29472 10.4405H8.28072L8.17872 9.46251C8.17472 9.44251 8.17272 9.42652 8.17272 9.41452C8.17272 9.39852 8.17272 9.38052 8.17272 9.36052C8.17272 9.18452 8.21672 9.03252 8.30472 8.90452C8.39272 8.77252 8.50272 8.65052 8.63472 8.53852C8.76672 8.42252 8.90872 8.31052 9.06072 8.20252C9.21272 8.09452 9.35472 7.97852 9.48672 7.85452C9.61872 7.72652 9.72872 7.58252 9.81672 7.42252C9.90472 7.26252 9.94872 7.07452 9.94872 6.85852C9.94872 6.71452 9.92072 6.58652 9.86472 6.47452C9.81272 6.35852 9.73872 6.26052 9.64272 6.18052C9.54672 6.09652 9.43072 6.03252 9.29472 5.98851C9.16272 5.94452 9.01872 5.92252 8.86272 5.92252C8.63472 5.92252 8.44072 5.94852 8.28072 6.00052C8.12472 6.04852 7.99072 6.10452 7.87872 6.16852C7.77072 6.22852 7.67872 6.28452 7.60272 6.33652C7.52672 6.38452 7.45872 6.40852 7.39872 6.40852C7.25472 6.40852 7.15072 6.34852 7.08672 6.22852L6.69672 5.61052ZM7.83072 12.6845C7.83072 12.5605 7.85272 12.4425 7.89672 12.3305C7.94472 12.2185 8.00872 12.1225 8.08872 12.0425C8.17272 11.9625 8.27072 11.8985 8.38272 11.8505C8.49472 11.8025 8.61472 11.7785 8.74272 11.7785C8.86672 11.7785 8.98472 11.8025 9.09672 11.8505C9.20872 11.8985 9.30472 11.9625 9.38472 12.0425C9.46472 12.1225 9.52872 12.2185 9.57672 12.3305C9.62472 12.4425 9.64872 12.5605 9.64872 12.6845C9.64872 12.8125 9.62472 12.9325 9.57672 13.0445C9.52872 13.1525 9.46472 13.2465 9.38472 13.3265C9.30472 13.4065 9.20872 13.4685 9.09672 13.5125C8.98472 13.5605 8.86672 13.5845 8.74272 13.5845C8.61472 13.5845 8.49472 13.5605 8.38272 13.5125C8.27072 13.4685 8.17272 13.4065 8.08872 13.3265C8.00872 13.2465 7.94472 13.1525 7.89672 13.0445C7.85272 12.9325 7.83072 12.8125 7.83072 12.6845Z" fill="white"/>
</svg>
