<svg width="24" height="22" viewBox="0 0 24 22" fill="none" xmlns="http://www.w3.org/2000/svg">
<path d="M21.0537 6.60001V1.46667H16.6343V2.20001L21.0537 6.60001Z" fill="white"/>
<path d="M12.3622 5.28003L3.37598 13.7867V21.2667H21.0537V13.7867L12.3622 5.28003Z" fill="white"/>
<path d="M1.75549 13.0533C1.31355 13.0533 1.01892 12.9067 0.724292 12.6133C0.135034 12.0267 0.135034 11.1467 0.724292 10.56L11.1836 0.44C11.7729 -0.146667 12.6568 -0.146667 13.246 0.44L23.5581 10.56C24.1473 11.1467 24.1473 12.0267 23.5581 12.6133C22.9688 13.2 22.0849 13.2 21.4956 12.6133L12.2148 3.52L2.7867 12.6133C2.49207 12.9067 2.19744 13.0533 1.75549 13.0533Z" fill="white"/>
</svg>
