<svg width="30" height="30" viewBox="0 0 30 30" fill="none" xmlns="http://www.w3.org/2000/svg">
<path opacity="0.5" d="M23.727 12.9197H24.9278C25.2463 12.9197 25.5517 13.0462 25.7769 13.2714C26.0021 13.4966 26.1287 13.8021 26.1287 14.1205V26.1289C26.1287 26.4473 26.0021 26.7528 25.7769 26.978C25.5517 27.2032 25.2463 27.3297 24.9278 27.3297H5.7145C5.39602 27.3297 5.09059 27.2032 4.86539 26.978C4.64019 26.7528 4.51367 26.4473 4.51367 26.1289V14.1205C4.51367 13.8021 4.64019 13.4966 4.86539 13.2714C5.09059 13.0462 5.39602 12.9197 5.7145 12.9197H6.91534V11.7189C6.91534 10.615 7.13276 9.52195 7.55519 8.50211C7.97762 7.48226 8.59679 6.55561 9.37735 5.77506C10.1579 4.99451 11.0846 4.37534 12.1044 3.9529C13.1242 3.53047 14.2173 3.31305 15.3212 3.31305C16.425 3.31305 17.5181 3.53047 18.5379 3.9529C19.5578 4.37534 20.4844 4.99451 21.265 5.77506C22.0455 6.55561 22.6647 7.48226 23.0871 8.50211C23.5096 9.52195 23.727 10.615 23.727 11.7189V12.9197ZM6.91534 15.3214V24.928H23.727V15.3214H6.91534ZM14.1203 17.723H16.522V22.5264H14.1203V17.723ZM21.3253 12.9197V11.7189C21.3253 10.1265 20.6927 8.59929 19.5667 7.47329C18.4408 6.34729 16.9136 5.71471 15.3212 5.71471C13.7288 5.71471 12.2016 6.34729 11.0756 7.47329C9.94958 8.59929 9.317 10.1265 9.317 11.7189V12.9197H21.3253Z" fill="#666D86"/>
</svg>
