<svg width="22" height="24" viewBox="0 0 22 24" fill="none" xmlns="http://www.w3.org/2000/svg">
<path opacity="0.5" d="M18.8804 9.74855H20.0062C20.3048 9.74855 20.5911 9.86716 20.8022 10.0783C21.0134 10.2894 21.132 10.5758 21.132 10.8743V22.1321C21.132 22.4307 21.0134 22.7171 20.8022 22.9282C20.5911 23.1393 20.3048 23.2579 20.0062 23.2579H1.9937C1.69512 23.2579 1.40878 23.1393 1.19765 22.9282C0.986529 22.7171 0.86792 22.4307 0.86792 22.1321V10.8743C0.86792 10.5758 0.986529 10.2894 1.19765 10.0783C1.40878 9.86716 1.69512 9.74855 1.9937 9.74855H3.11948V8.62277C3.11948 7.58789 3.32332 6.56315 3.71935 5.60705C4.11538 4.65095 4.69585 3.78221 5.42762 3.05044C6.15938 2.31867 7.02812 1.7382 7.98422 1.34217C8.94032 0.946144 9.96507 0.74231 10.9999 0.74231C12.0348 0.74231 13.0596 0.946144 14.0157 1.34217C14.9718 1.7382 15.8405 2.31867 16.5723 3.05044C17.304 3.78221 17.8845 4.65095 18.2805 5.60705C18.6766 6.56315 18.8804 7.58789 18.8804 8.62277V9.74855ZM3.11948 12.0001V21.0064H18.8804V12.0001H3.11948ZM9.87416 14.2517H12.1257V18.7548H9.87416V14.2517ZM16.6288 9.74855V8.62277C16.6288 7.12989 16.0358 5.69816 14.9802 4.64254C13.9246 3.58691 12.4928 2.99387 10.9999 2.99387C9.50707 2.99387 8.07533 3.58691 7.01971 4.64254C5.96409 5.69816 5.37104 7.12989 5.37104 8.62277V9.74855H16.6288Z" fill="#666D86"/>
</svg>
