<svg width="32" height="32" viewBox="0 0 32 32" fill="none" xmlns="http://www.w3.org/2000/svg">
<path fill-rule="evenodd" clip-rule="evenodd" d="M14.1711 21.2979C14.617 21.7337 15.3396 21.7337 15.7855 21.2979L20.3993 16.7891C20.8452 16.3533 20.8452 15.6467 20.3993 15.2112L15.7868 10.7025C15.3409 10.2666 14.618 10.2666 14.1724 10.7025H14.1721C13.7265 11.1383 13.7265 11.8449 14.1721 12.2804L16.8362 14.8844H6.14138C5.51116 14.8844 5 15.3837 5 16V16.0003C5 16.6166 5.51116 17.1163 6.14138 17.1163H16.8362L14.1711 19.7199C13.7252 20.1554 13.7252 20.862 14.1711 21.2979ZM20.108 5H13.2558C10.5542 5 8.36378 7.14101 8.36378 9.78165V10.7388C8.36378 11.3545 8.87461 11.8538 9.5045 11.8538H9.50646C10.1364 11.8538 10.6472 11.3545 10.6472 10.7388V9.78165C10.6472 8.37365 11.815 7.23188 13.2558 7.23188H20.108C21.5488 7.23188 22.7166 8.37365 22.7166 9.78165V22.2183C22.7166 23.6267 21.5488 24.7681 20.108 24.7681H13.2558C11.815 24.7681 10.6472 23.6267 10.6472 22.2183V21.2612C10.6472 20.6455 10.1364 20.1462 9.50646 20.1462H9.5045C8.87461 20.1462 8.36378 20.6455 8.36378 21.2612V22.2183C8.36378 24.859 10.5542 27 13.2558 27H20.108C22.8096 27 25 24.859 25 22.2183V9.78165C25 7.14101 22.8096 5 20.108 5Z" fill="white"/>
</svg>
