<svg width="134" height="29" viewBox="0 0 134 29" fill="none" xmlns="http://www.w3.org/2000/svg">
<path fill-rule="evenodd" clip-rule="evenodd" d="M116.533 7.21933C123.04 7.26733 130.577 6.12752 133.762 0C133.762 0 135.669 9.54538 124.865 12.982C119.697 14.6613 107.933 14.2301 107.933 14.2301C107.933 14.2301 102.49 13.8846 101.879 17.612C101.25 21.4415 105.121 23.2018 105.121 23.2018C105.121 23.2018 109.016 26.0756 117.901 23.5678C119.165 23.2077 120.415 22.7964 121.597 22.218V22.2291C121.596 22.2346 121.597 22.2397 121.597 22.2451C120.968 23.4641 118.034 25.3166 117.51 25.6254C112.9 28.6099 104.938 29.5361 100.761 24.7315C96.3475 19.6557 98.0468 13.3445 101.795 10.3942C105.543 7.44394 110.025 7.17113 116.533 7.21933ZM103.579 20.2481C103.579 20.2481 100.718 15.3244 108.279 15.4457C125.111 16.0642 128.662 12.5197 128.662 12.5197C128.662 12.5197 128.662 19.3363 118.583 22.1005C106.417 25.3019 103.763 20.5754 103.583 20.2559C103.582 20.2529 103.58 20.2503 103.579 20.2481Z" fill="url(#paint0_linear_1_5000)"/>
<path fill-rule="evenodd" clip-rule="evenodd" d="M78.9452 16.5369L78.945 15.1575C78.9445 13.41 78.9444 11.6628 78.9488 9.91555C78.949 9.81302 78.9373 9.69667 78.8498 9.61232C78.7517 9.51766 78.6078 9.52026 78.5563 9.52119L78.5524 9.52126C77.9597 9.53331 77.4773 9.53311 77.0341 9.52007C76.917 9.51731 76.7843 9.526 76.6892 9.61687C76.5928 9.70932 76.581 9.84562 76.5814 9.95427C76.5888 11.5597 76.588 13.2044 76.5872 14.6555L76.5868 16.0385L76.587 17.5011C76.5874 19.3384 76.5878 21.2384 76.5826 23.1071C76.5824 23.2124 76.594 23.3315 76.6817 23.4153C76.767 23.4973 76.8804 23.5076 76.9936 23.5052C77.5489 23.4908 78.0525 23.491 78.5337 23.5058L78.5657 23.5062C78.6459 23.5062 78.7624 23.4967 78.8482 23.4151C78.9377 23.3294 78.9496 23.2085 78.9494 23.0907C78.9441 21.4349 78.9445 19.7786 78.945 18.1224L78.9452 16.5369ZM2.8644 15.062L2.8648 16.5187L2.8644 18.053C2.86379 19.6981 2.86319 21.3993 2.87003 23.0725C2.87063 23.1966 2.85816 23.3238 2.76384 23.4135C2.67536 23.4976 2.55228 23.5073 2.46762 23.5073L2.42418 23.5065C1.97692 23.4903 1.50232 23.4901 0.884724 23.5053C0.791009 23.5029 0.677787 23.4972 0.595133 23.4172C0.510468 23.3356 0.499608 23.2232 0.50001 23.1241C0.503831 22.2573 0.503429 21.3906 0.502826 20.5242L0.502625 17.2413V9.99332C0.502625 9.59073 0.56919 9.52515 0.977232 9.52495C1.10274 9.52478 1.22781 9.52548 1.35306 9.52618L1.41624 9.52653L1.47235 9.52673C1.78708 9.52831 2.11227 9.52989 2.43021 9.52061C2.54927 9.51804 2.67295 9.52811 2.76384 9.61523C2.85836 9.7055 2.87003 9.83766 2.86963 9.94255C2.86356 11.6035 2.86397 13.2913 2.86436 14.9272V14.9273V14.9277L2.8644 15.062ZM75.3795 13.9196C75.4664 14.0048 75.4754 14.1213 75.4724 14.2347C75.4569 14.79 75.4573 15.2414 75.4738 15.6556C75.4776 15.7581 75.4704 15.8871 75.3787 15.9786C75.2852 16.071 75.151 16.0752 75.0366 16.076C74.7356 16.0693 74.4279 16.07 74.1558 16.071L74.1304 16.0711H74.1303C73.8748 16.0721 73.5879 16.0732 73.3063 16.0669C73.243 16.0643 73.2152 16.0728 73.2092 16.075C73.2093 16.0752 73.2094 16.0755 73.2094 16.0761L73.2093 16.0778L73.2086 16.083C73.2069 16.0946 73.2031 16.12 73.2035 16.1662C73.2108 17.0358 73.2098 17.92 73.2088 18.775L73.2076 20.5222C73.2068 21.374 73.206 22.2545 73.2126 23.1203C73.2132 23.2208 73.2023 23.3346 73.1175 23.4168C73.0308 23.5 72.9107 23.5059 72.8148 23.5049C72.2411 23.4919 71.7299 23.4919 71.2526 23.5057L71.2237 23.5061C71.1446 23.5061 71.03 23.4968 70.9455 23.416C70.8579 23.3318 70.8462 23.2153 70.8466 23.1019C70.8514 21.2482 70.8512 19.3939 70.8506 17.5397L70.8504 16.2152C70.8504 16.1706 70.8504 16.1086 70.8478 16.0724C70.8221 16.0718 70.783 16.0717 70.7466 16.0715L70.7177 16.0714L70.3845 16.0704C70.1671 16.0694 69.9485 16.0691 69.7309 16.0732C69.6752 16.073 69.5613 16.0726 69.4775 15.9912C69.3986 15.9144 69.3904 15.8115 69.391 15.7409C69.3948 15.3121 69.3982 14.7471 69.39 14.1792C69.3888 14.1049 69.3968 13.997 69.4789 13.9172C69.544 13.8542 69.6357 13.8262 69.7638 13.8315C69.9024 13.8349 70.0412 13.8343 70.1806 13.8338H70.1807L70.2 13.8337L70.2632 13.8333C70.4353 13.8325 70.6131 13.8317 70.7885 13.8372C70.8225 13.8362 70.8398 13.8355 70.8498 13.8341C70.852 13.824 70.8548 13.8046 70.8546 13.7701C70.8504 12.8963 71.0183 12.1686 71.3685 11.5458C71.828 10.7277 72.5749 10.1956 73.5889 9.96385C74.0512 9.85856 74.5509 9.81471 75.1179 9.83051C75.3594 9.83723 75.4748 9.95595 75.4708 10.193C75.4613 10.7912 75.4617 11.2514 75.472 11.6854C75.4742 11.7818 75.4654 11.9033 75.3765 11.9879C75.289 12.0706 75.1665 12.0754 75.0694 12.0718C74.5839 12.0455 74.2063 12.1198 73.8793 12.3023C73.3833 12.5791 73.2661 13.0637 73.2168 13.5012L73.216 13.509L73.2159 13.5092L73.2159 13.5096L73.2159 13.5097L73.2158 13.5101C73.2046 13.612 73.1851 13.7885 73.2013 13.8226C73.2261 13.8339 73.3994 13.8339 73.5261 13.8339C73.65 13.8339 73.7743 13.8345 73.8984 13.8353L73.9728 13.8355L73.977 13.8355C74.297 13.8377 74.6942 13.8403 75.0692 13.8287C75.1418 13.827 75.2838 13.826 75.3795 13.9196ZM21.1353 21.5244C22.7982 21.521 23.9986 20.3065 23.997 18.6365C23.9956 17.0317 22.7715 15.8164 21.1498 15.8095H21.1357C20.3393 15.8095 19.6083 16.0954 19.0774 16.6141C18.542 17.1374 18.2468 17.861 18.246 18.6517C18.2454 19.4593 18.541 20.1941 19.0786 20.7214C19.6063 21.2393 20.3367 21.5244 21.1353 21.5244ZM26.2803 13.915C26.3602 13.9921 26.3704 14.0999 26.3702 14.1853C26.3664 17.2687 26.3664 20.2865 26.3706 23.155C26.3706 23.2374 26.3606 23.3419 26.2809 23.4191C26.1987 23.4989 26.0838 23.5019 26.008 23.5037C25.3679 23.4954 24.8485 23.4958 24.3714 23.5047C24.246 23.5086 24.1549 23.4788 24.0909 23.4154C24.008 23.333 24.0006 23.2188 24.0032 23.1285C24.0104 22.8936 24.0081 22.656 24.0059 22.4261V22.426V22.426V22.4259V22.4258V22.4258V22.4257V22.4257V22.4256V22.4256V22.4254L24.0058 22.4164L24.0056 22.4012C23.2213 23.2834 22.1657 23.7306 20.866 23.7306L20.8308 23.7304C19.0552 23.7194 17.658 22.9434 16.6772 21.4236C16.0745 20.4894 15.8144 19.4252 15.9039 18.2605C16.069 16.1146 17.4018 14.4116 19.3818 13.8159C20.9241 13.3518 22.3198 13.5731 23.5308 14.4737C23.7072 14.6046 23.8592 14.7579 24.008 14.9189L24.0081 14.9118C24.0101 14.6938 24.0122 14.4689 24.002 14.2481C23.9974 14.1465 24.0038 14.0181 24.0953 13.9267C24.1921 13.8299 24.3383 13.8294 24.4151 13.8291L24.4229 13.8291C24.9711 13.8443 25.5332 13.8386 26.011 13.8311L26.0114 13.8311C26.0764 13.8315 26.195 13.8322 26.2803 13.915ZM8.41717 13.7671C9.806 13.4423 11.0251 13.5709 12.1438 14.1598C13.273 14.7544 14.0584 15.6945 14.4781 16.954C14.7459 17.7578 14.8246 18.5588 14.7119 19.3348C14.6768 19.5763 14.5583 19.6797 14.3154 19.6797C13.482 19.6746 12.6402 19.675 11.8224 19.6754H11.822L11.6694 19.6755L7.18319 19.6761C7.17724 19.6763 7.17082 19.6764 7.16411 19.6764L7.14909 19.6763H7.14905H7.14901H7.14897L7.12407 19.6763C7.1299 19.6955 7.13593 19.7146 7.14156 19.732C7.47902 20.7964 8.24 21.3929 9.46814 21.5567C10.6555 21.7145 11.5665 21.3989 12.2548 20.5909C12.3685 20.4576 12.4998 20.4376 12.6565 20.5289C13.0971 20.7877 13.5705 21.0626 14.0477 21.3216C14.1237 21.3629 14.2142 21.4243 14.2375 21.5318C14.2636 21.6521 14.186 21.754 14.1441 21.809L14.1438 21.8093C13.4593 22.7072 12.5631 23.2925 11.4802 23.5487C10.9374 23.6769 10.4011 23.7419 9.88624 23.7419C8.98368 23.7419 8.12114 23.5434 7.32296 23.152C5.96671 22.4869 5.10518 21.4002 4.76209 19.9222C4.42886 18.4863 4.62856 17.1523 5.35616 15.9578C6.05117 14.8166 7.08103 14.0796 8.41717 13.7671ZM11.5179 16.3109C11.9205 16.6473 12.1844 17.0928 12.3483 17.7128C12.3499 17.7188 12.3513 17.7243 12.3523 17.7298C12.3463 17.7303 12.3396 17.7304 12.3317 17.7306H12.3317C12.325 17.7307 12.3175 17.7308 12.309 17.7312C11.7152 17.7275 11.1211 17.7277 10.5275 17.7284L9.71419 17.7288L9.04351 17.7284C8.46975 17.7271 7.80209 17.7267 7.14106 17.7316C7.12095 17.732 7.10506 17.732 7.09259 17.7314C7.0942 17.7209 7.09701 17.7073 7.10084 17.6907C7.35865 16.6023 8.37805 15.7769 9.52435 15.7285C10.3626 15.6904 10.9982 15.8767 11.5179 16.3109ZM56.3265 15.2864C57.2702 14.2446 58.5798 13.6496 60.0143 13.6113C62.7214 13.4738 65.0838 15.4146 65.3832 18.0348C65.5485 19.4808 65.1459 20.8595 64.2496 21.9169C63.4126 22.9046 62.1826 23.5531 60.876 23.6965C60.6623 23.72 60.4459 23.7319 60.2329 23.7319C58.9887 23.7319 57.8406 23.3382 56.9121 22.5931C55.8529 21.7429 55.1749 20.4865 55.0525 19.146C54.9209 17.7087 55.3734 16.3381 56.3265 15.2864ZM63.0652 18.6734C63.0459 20.2979 61.8584 21.4769 60.2413 21.4769L60.2104 21.4767C59.4228 21.4695 58.7041 21.1794 58.1864 20.6596C57.6622 20.133 57.3794 19.407 57.3897 18.6155C57.4106 17.0432 58.6311 15.8576 60.2287 15.8576L60.2695 15.8578C61.8821 15.878 63.0841 17.0885 63.0652 18.6734ZM89.7368 13.8341C89.9198 13.8343 90.03 13.8345 90.0978 13.9307C90.1658 14.0271 90.1273 14.1277 90.0638 14.294L88.1897 19.2003C88.0031 19.6892 87.8183 20.1792 87.6335 20.6691L87.6234 20.6959C87.2009 21.8156 86.7639 22.9734 86.3096 24.1033C85.7968 25.3786 85.043 26.2575 84.0053 26.7904C83.4076 27.097 82.737 27.2525 82.012 27.2525C81.9567 27.2525 81.9012 27.2517 81.8451 27.2499C81.6305 27.2428 81.5227 27.1363 81.5249 26.9329C81.5299 26.4479 81.5329 25.9256 81.5239 25.3938C81.5221 25.2887 81.5488 25.2101 81.6053 25.1534C81.688 25.0707 81.7982 25.0703 81.8788 25.0701L81.9118 25.0697C82.5123 25.0568 82.9887 24.87 83.3682 24.4982C83.6972 24.176 83.883 23.7728 84.0795 23.3461L84.1588 23.1756C84.1563 23.1701 84.1519 23.161 84.1435 23.1452C84.1348 23.1288 84.1266 23.113 84.1198 23.0974C83.5601 21.8237 82.9984 20.5501 82.4367 19.2766L81.3075 16.7125C80.9513 15.9018 80.5829 15.0632 80.2153 14.2409C80.1717 14.1429 80.1359 14.0301 80.2012 13.9343C80.2718 13.8313 80.406 13.8317 80.4871 13.832L80.4912 13.832C80.703 13.8369 80.9184 13.8361 81.1273 13.8351H81.7904L81.9119 13.835C82.0509 13.8349 82.19 13.8349 82.3289 13.832C82.5352 13.8339 82.6491 13.9078 82.7233 14.0866C83.655 16.3265 84.5791 18.5267 85.3604 20.3844C85.7937 19.1872 86.2243 17.9893 86.6549 16.7915L86.6574 16.7843L86.781 16.4407L87.1804 15.3297C87.3225 14.9356 87.4696 14.5277 87.6079 14.1251C87.6779 13.9213 87.8052 13.8304 88.0202 13.8304C88.382 13.8359 88.7381 13.8355 89.0834 13.8351L89.7368 13.8341ZM44.4079 17.2847C44.3984 16.5172 44.1859 15.8152 43.7764 15.1977C43.0736 14.1375 41.9973 13.6004 40.5762 13.6004C40.5586 13.6004 40.5409 13.6004 40.523 13.6006C39.7405 13.6073 39.0837 13.7781 38.5153 14.1227C38.2527 14.2823 38.0112 14.4883 37.7803 14.7506C37.7793 14.5622 37.7789 14.3688 37.7841 14.179C37.7865 14.0974 37.7791 13.9941 37.7015 13.9164C37.621 13.8364 37.5088 13.8331 37.4396 13.8313C36.8777 13.8392 36.3199 13.839 35.7825 13.8311C35.6621 13.8259 35.5738 13.8556 35.5112 13.916C35.431 13.9937 35.4207 14.1005 35.4207 14.1851C35.4242 17.2154 35.4242 20.2328 35.4205 23.153C35.4205 23.2358 35.4306 23.3409 35.5108 23.4185C35.5925 23.4978 35.7025 23.5011 35.7853 23.5035C36.1503 23.4979 36.5222 23.4987 36.8812 23.4999L37.3312 23.5007C37.7141 23.5007 37.7815 23.4359 37.7817 23.0669V22.3068C37.7819 21.0394 37.7819 19.7719 37.7813 18.5045C37.7813 18.192 37.7869 17.8595 37.8549 17.5334C38.0208 16.7389 38.4248 16.2198 39.0899 15.9466C39.5086 15.7745 39.9854 15.7293 40.5071 15.8122C41.1522 15.9145 41.6033 16.2385 41.848 16.7748C41.9956 17.0986 42.0644 17.4668 42.0644 17.9334L42.065 19.1596C42.0656 20.4507 42.0662 21.7861 42.0596 23.0991C42.059 23.1995 42.0701 23.3263 42.1604 23.413C42.2452 23.495 42.3613 23.5055 42.453 23.5055L42.4837 23.5051C42.998 23.4924 43.5071 23.4966 44.0721 23.5031C44.1545 23.5033 44.2609 23.4956 44.3379 23.4207C44.4157 23.3447 44.4244 23.24 44.4242 23.1679C44.422 22.4828 44.4222 21.7981 44.4226 21.1132C44.4232 19.863 44.4238 18.5701 44.4079 17.2847ZM51.85 16.0679C52.1336 16.0718 52.417 16.0716 52.7007 16.0709H52.7377C53.1174 16.0695 53.437 16.0697 53.7607 16.0758C53.8506 16.0786 53.9812 16.0722 54.0737 15.981C54.1617 15.8939 54.171 15.7737 54.1682 15.6677C54.1565 15.2272 54.1563 14.7604 54.1672 14.1984C54.1688 14.1112 54.1601 14.0008 54.0783 13.92C53.9974 13.84 53.8788 13.829 53.7933 13.8307C53.4895 13.8343 53.186 13.8343 52.8823 13.8335C52.5672 13.8329 52.2102 13.8323 51.8575 13.838C51.8183 13.838 51.798 13.8357 51.7875 13.8335C51.7853 13.8228 51.7823 13.8009 51.7829 13.76C51.7881 13.3266 51.7877 12.8863 51.7873 12.4602V12.4582V12.4581V12.4581V12.458C51.7871 12.1535 51.7869 11.8493 51.7885 11.545C51.7891 11.4535 51.7823 11.3506 51.694 11.2866C51.6081 11.2244 51.5035 11.2449 51.4126 11.2732C50.8707 11.4425 50.3086 11.605 49.7425 11.7566C49.5217 11.8154 49.4243 11.9411 49.4271 12.1639C49.4324 12.5615 49.4312 16.0063 49.4304 18.2861L49.43 20.1212C49.43 20.526 49.4302 20.9448 49.505 21.361C49.6848 22.3608 50.1823 22.999 51.0259 23.3117C51.518 23.494 52.0409 23.5788 52.6714 23.5788C53.0545 23.5788 53.441 23.5492 53.9031 23.5045C54.1652 23.4792 54.1642 23.2483 54.1638 23.1609V23.1608L54.1629 22.7669C54.1619 22.4348 54.1609 22.0917 54.1666 21.7543C54.168 21.6664 54.1587 21.555 54.0743 21.4758C53.99 21.396 53.8778 21.3926 53.801 21.3973C53.5636 21.4116 53.3189 21.4118 53.0821 21.412H53.0818C52.8182 21.412 52.5197 21.412 52.2623 21.313C51.9422 21.1897 51.7919 20.9298 51.7897 20.4952C51.7871 19.999 51.7875 19.5029 51.7881 19.0065L51.7873 17.7571C51.7883 17.2247 51.7891 16.6743 51.7831 16.1329C51.7827 16.1007 51.7849 16.0819 51.7869 16.0716C51.7974 16.0697 51.8149 16.0685 51.85 16.0679ZM33.8833 13.7583C33.9593 13.8313 33.9675 13.9301 33.9671 13.9981C33.9633 14.5852 33.9603 15.2102 33.9683 15.8293C33.9697 15.9318 33.9432 16.0084 33.8877 16.0628C33.8109 16.1382 33.7115 16.1382 33.6371 16.138L33.5943 16.1376C32.8723 16.1428 32.3253 16.3057 31.874 16.6505C31.3256 17.0694 31.0419 17.6532 31.0306 18.3855C31.0083 19.8401 31.0151 21.3183 31.0217 22.7478L31.0232 23.0796C31.0236 23.2021 31.0115 23.3275 30.92 23.4146C30.8331 23.4972 30.7143 23.5069 30.6322 23.5069C30.6197 23.5069 30.6073 23.5067 30.5954 23.5063C30.1309 23.4903 29.6349 23.4901 29.0795 23.5053C28.9711 23.5071 28.8462 23.499 28.7567 23.4129C28.6658 23.3258 28.6541 23.2037 28.6547 23.0958C28.661 21.813 28.6604 20.5361 28.6596 19.3013L28.6592 18.131L28.6598 17.1427C28.6606 16.1916 28.6614 15.2076 28.6545 14.2405C28.6537 14.132 28.6652 14.0095 28.7559 13.922C28.8434 13.8379 28.9669 13.8296 29.0777 13.8294C29.5587 13.8426 30.0699 13.8428 30.6417 13.83L30.6465 13.8299C30.6987 13.8289 30.8384 13.8263 30.9327 13.9196C31.0161 14.002 31.0246 14.114 31.022 14.2128C31.0145 14.4777 31.0153 14.7456 31.0167 15.0065C31.2595 14.6531 31.5499 14.3773 31.9012 14.1662C32.4104 13.86 32.9785 13.7016 33.6381 13.6812C33.7073 13.679 33.8081 13.6862 33.8833 13.7583Z" fill="url(#paint1_linear_1_5000)"/>
<defs>
<linearGradient id="paint0_linear_1_5000" x1="126.489" y1="-18.5792" x2="78.0474" y2="12.0795" gradientUnits="userSpaceOnUse">
<stop stop-color="#FFDA80"/>
<stop offset="1" stop-color="#00D1C1"/>
</linearGradient>
<linearGradient id="paint1_linear_1_5000" x1="48.6717" y1="-0.197522" x2="37.7618" y2="39.9319" gradientUnits="userSpaceOnUse">
<stop stop-color="#00D1C1"/>
<stop offset="1" stop-color="#0052CC"/>
</linearGradient>
</defs>
</svg>
