<svg width="163" height="35" viewBox="0 0 163 35" fill="none" xmlns="http://www.w3.org/2000/svg">
<g id="Page 1 Copy">
<path id="Combined Shape" fill-rule="evenodd" clip-rule="evenodd" d="M141.494 8.97582C149.53 9.03342 158.837 7.66565 162.77 0.312622C162.77 0.312622 165.124 11.7671 151.784 15.891C145.401 17.9062 130.875 17.3887 130.875 17.3887C130.875 17.3887 124.154 16.9741 123.399 21.447C122.622 26.0424 127.403 28.1548 127.403 28.1548C127.403 28.1548 132.212 31.6033 143.183 28.594C144.745 28.1619 146.289 27.6683 147.747 26.9742V26.9875C147.747 26.9942 147.748 27.0003 147.748 27.0067C146.971 28.4696 143.348 30.6926 142.701 31.0631C137.009 34.6444 127.176 35.756 122.018 29.9905C116.568 23.8995 118.667 16.326 123.295 12.7857C127.923 9.24534 133.458 8.91798 141.494 8.97582ZM125.5 24.6101C125.5 24.6101 121.967 18.7017 131.303 18.8472C152.088 19.5894 156.474 15.3361 156.474 15.3361C156.474 15.3361 156.474 23.5159 144.027 26.8329C129.005 30.6747 125.727 25.0029 125.505 24.6194C125.503 24.6159 125.502 24.6128 125.5 24.6101Z" fill="#F3F3F3"/>
<path id="Combined Shape_2" fill-rule="evenodd" clip-rule="evenodd" d="M96.8678 20.1572L96.8675 18.5019C96.867 16.4049 96.8668 14.3082 96.8723 12.2115C96.8725 12.0885 96.8581 11.9489 96.7501 11.8477C96.6289 11.7341 96.4512 11.7372 96.3876 11.7383L96.3828 11.7384C95.6509 11.7528 95.0552 11.7526 94.5079 11.737C94.3633 11.7336 94.1994 11.7441 94.082 11.8531C93.963 11.964 93.9484 12.1276 93.9489 12.258C93.9581 14.1845 93.9571 16.1582 93.9561 17.8995L93.9556 19.5591L93.9558 21.3142C93.9563 23.519 93.9568 25.7989 93.9504 28.0414C93.9501 28.1678 93.9645 28.3107 94.0728 28.4112C94.1781 28.5096 94.3181 28.5219 94.458 28.5191C95.1436 28.5018 95.7654 28.502 96.3597 28.5198L96.3992 28.5203C96.4983 28.5203 96.6421 28.5089 96.7481 28.411C96.8586 28.3081 96.8733 28.163 96.873 28.0218C96.8665 26.0348 96.867 24.0471 96.8675 22.0597L96.8678 20.1572ZM2.91967 18.3871L2.92017 20.1351L2.91967 21.9763C2.91893 23.9504 2.91818 25.9919 2.92663 27.9997C2.92737 28.1486 2.91197 28.3012 2.79551 28.4088C2.68624 28.5098 2.53426 28.5214 2.42971 28.5214L2.37607 28.5205C1.82378 28.501 1.23771 28.5008 0.475075 28.5191C0.359352 28.5162 0.21954 28.5093 0.117475 28.4133C0.0129263 28.3154 -0.000483774 28.1806 1.28936e-05 28.0616C0.00473123 27.0214 0.00423457 25.9814 0.00348957 24.9417L0.00324123 21.0022V12.3047C0.00324123 11.8216 0.0854397 11.7429 0.589309 11.7426C0.744293 11.7424 0.898732 11.7433 1.0534 11.7441L1.13142 11.7445L1.20071 11.7448C1.58935 11.7466 1.9909 11.7485 2.38352 11.7374C2.53053 11.7343 2.68326 11.7464 2.79551 11.8509C2.91222 11.9593 2.92663 12.1179 2.92613 12.2437C2.91864 14.2369 2.91914 16.2624 2.91963 18.2256V18.2257L2.91967 18.3871ZM92.4666 17.0165C92.5738 17.1187 92.585 17.2585 92.5813 17.3946C92.5622 18.061 92.5627 18.6026 92.583 19.0997C92.5878 19.2227 92.5788 19.3775 92.4656 19.4873C92.3501 19.5982 92.1845 19.6032 92.0432 19.6041C91.6714 19.5961 91.2915 19.597 90.9555 19.5982L90.9241 19.5983C90.6085 19.5995 90.2543 19.6008 89.9065 19.5932C89.8283 19.5902 89.794 19.6004 89.7865 19.603C89.7871 19.6036 89.7867 19.6066 89.7858 19.6125C89.7837 19.6265 89.7791 19.657 89.7796 19.7125C89.7885 20.756 89.7873 21.817 89.786 22.8429L89.7846 24.9396C89.7836 25.9618 89.7826 27.0183 89.7908 28.0573C89.7915 28.178 89.7781 28.3145 89.6733 28.4131C89.5663 28.5129 89.418 28.52 89.2996 28.5189C88.5911 28.5032 87.9598 28.5032 87.3705 28.5198L87.3347 28.5203C87.2372 28.5203 87.0956 28.5091 86.9913 28.4122C86.883 28.3112 86.8686 28.1713 86.8691 28.0353C86.8751 25.8108 86.8748 23.5856 86.8741 21.3607L86.8738 19.7713C86.8738 19.7177 86.8738 19.6433 86.8706 19.5999C86.8388 19.5991 86.7906 19.599 86.7457 19.5988L86.7099 19.5987L86.2985 19.5975C86.03 19.5963 85.7601 19.5958 85.4914 19.6008C85.4226 19.6006 85.282 19.6001 85.1785 19.5024C85.0811 19.4102 85.0709 19.2867 85.0717 19.2021C85.0764 18.6875 85.0806 18.0095 85.0704 17.328C85.069 17.2389 85.0789 17.1094 85.1802 17.0137C85.2607 16.9381 85.3739 16.9044 85.5321 16.9108C85.7032 16.9149 85.8746 16.9142 86.0468 16.9135L86.0707 16.9134L86.1487 16.9129C86.3613 16.912 86.5808 16.911 86.7974 16.9177C86.8393 16.9165 86.8607 16.9155 86.8731 16.9139C86.8758 16.9018 86.8793 16.8786 86.8791 16.8371C86.8738 15.7886 87.0812 14.9153 87.5135 14.1679C88.081 13.1863 89.0033 12.5477 90.2554 12.2696C90.8263 12.1433 91.4434 12.0906 92.1435 12.1096C92.4417 12.1177 92.5843 12.2601 92.5793 12.5446C92.5676 13.2624 92.5681 13.8147 92.5808 14.3355C92.5835 14.4512 92.5726 14.597 92.4628 14.6984C92.3548 14.7977 92.2036 14.8034 92.0836 14.7992C91.4842 14.7676 91.0178 14.8568 90.614 15.0758C90.0016 15.4079 89.8568 15.9894 89.796 16.5144L89.7949 16.5239C89.781 16.646 89.7568 16.859 89.7769 16.9001C89.8074 16.9136 90.0215 16.9136 90.1779 16.9136C90.3309 16.9136 90.4844 16.9143 90.6376 16.9153L90.7295 16.9155L90.7347 16.9156C91.1299 16.9182 91.6203 16.9214 92.0834 16.9075C92.173 16.9053 92.3484 16.9042 92.4666 17.0165ZM25.4814 26.142C27.5349 26.1379 29.0172 24.6805 29.0152 22.6765C29.0135 20.7507 27.5019 19.2924 25.4993 19.2841H25.4819C24.4985 19.2841 23.5958 19.6271 22.9402 20.2496C22.2791 20.8776 21.9146 21.7459 21.9136 22.6948C21.9129 23.6638 22.2779 24.5457 22.9417 25.1783C23.5933 25.7999 24.4953 26.142 25.4814 26.142ZM31.8348 17.0108C31.9334 17.1033 31.946 17.2327 31.9458 17.3351C31.9411 21.0352 31.9411 24.6566 31.9463 28.0988C31.9463 28.1976 31.9339 28.323 31.8355 28.4157C31.734 28.5115 31.5922 28.5151 31.4985 28.5172C30.7081 28.5072 30.0666 28.5077 29.4776 28.5184C29.3226 28.5231 29.2101 28.4873 29.1312 28.4112C29.0289 28.3124 29.0197 28.1754 29.0229 28.067C29.0317 27.7848 29.0289 27.4993 29.0262 27.2231L29.0261 27.2125L29.0259 27.1942C28.0574 28.2529 26.7539 28.7896 25.1489 28.7896L25.1054 28.7893C22.9129 28.776 21.1875 27.8449 19.9763 26.0211C19.2321 24.9001 18.911 23.6231 19.0215 22.2254C19.2254 19.6504 20.8711 17.6068 23.3162 16.8918C25.2207 16.335 26.9441 16.6005 28.4396 17.6812C28.6573 17.8384 28.8451 18.0223 29.0289 18.2155L29.0289 18.2067C29.0314 17.9452 29.0339 17.6754 29.0214 17.4105C29.0157 17.2886 29.0236 17.1346 29.1366 17.0248C29.2561 16.9087 29.4367 16.9081 29.5315 16.9077L29.5412 16.9077C30.2181 16.926 30.9122 16.9191 31.5023 16.9101L31.5026 16.9101C31.5829 16.9106 31.7294 16.9114 31.8348 17.0108ZM9.77636 16.8336C11.4914 16.4439 12.9968 16.5982 14.3782 17.3049C15.7726 18.0184 16.7424 19.1465 17.2606 20.6579C17.5914 21.6225 17.6885 22.5837 17.5495 23.5149C17.506 23.8048 17.3597 23.9287 17.0597 23.9287C16.0309 23.9227 14.9918 23.9232 13.9823 23.9237H13.9821H13.9819H13.9816H13.9814H13.9812H13.981H13.9809H13.9807L13.7924 23.9238L8.25259 23.9245C8.23985 23.9249 8.22534 23.9248 8.21032 23.9247H8.2103H8.21027C8.20014 23.9247 8.18978 23.9246 8.17958 23.9247C8.18678 23.9477 8.19423 23.9707 8.20118 23.9916C8.61789 25.2688 9.55758 25.9847 11.0742 26.1812C12.5403 26.3706 13.6653 25.9918 14.5153 25.0223C14.6556 24.8622 14.8178 24.8383 15.0112 24.9478C15.5553 25.2584 16.1399 25.5883 16.7292 25.8991C16.8231 25.9486 16.9348 26.0224 16.9636 26.1513C16.9959 26.2956 16.9 26.418 16.8482 26.484L16.8479 26.4844C16.0026 27.5618 14.896 28.2641 13.5587 28.5716C12.8885 28.7254 12.2262 28.8034 11.5904 28.8034C10.4759 28.8034 9.41082 28.5652 8.42518 28.0956C6.75042 27.2974 5.68656 25.9934 5.2629 24.2198C4.85141 22.4967 5.09801 20.8959 5.99648 19.4625C6.85472 18.0931 8.12644 17.2086 9.77636 16.8336ZM13.6052 19.8859C14.1023 20.2896 14.4282 20.8241 14.6305 21.5682C14.6325 21.5753 14.6343 21.582 14.6355 21.5886C14.6281 21.5891 14.6198 21.5893 14.6102 21.5895H14.6101L14.6101 21.5895L14.61 21.5895C14.6018 21.5896 14.5926 21.5898 14.5821 21.5903C13.8488 21.5858 13.1152 21.586 12.3821 21.5869L11.3779 21.5874L10.5497 21.5869C9.84118 21.5853 9.01671 21.5848 8.20044 21.5907C8.1756 21.5912 8.15599 21.5912 8.14059 21.5905C8.14258 21.5779 8.14605 21.5616 8.15077 21.5417C8.46914 20.2355 9.72794 19.2451 11.1434 19.187C12.1785 19.1413 12.9635 19.3648 13.6052 19.8859ZM68.937 18.6565C70.1024 17.4063 71.7195 16.6923 73.4909 16.6464C76.8337 16.4814 79.7509 18.8104 80.1207 21.9546C80.3248 23.6898 79.8277 25.3442 78.7208 26.6131C77.6873 27.7983 76.1684 28.5766 74.555 28.7487C74.291 28.7769 74.0238 28.7911 73.7608 28.7911C72.2244 28.7911 70.8067 28.3187 69.6601 27.4245C68.3521 26.4042 67.515 24.8966 67.3638 23.288C67.2014 21.5632 67.7601 19.9186 68.937 18.6565ZM77.2584 22.7207C77.2345 24.6702 75.7681 26.0849 73.7713 26.0849L73.733 26.0847C72.7606 26.0762 71.873 25.7279 71.2338 25.1043C70.5864 24.4723 70.2373 23.6011 70.2499 22.6513C70.2757 20.7646 71.7829 19.3418 73.7556 19.3418L73.8061 19.3421C75.7974 19.3663 77.2817 20.8189 77.2584 22.7207ZM110.194 16.9138C110.42 16.914 110.556 16.9143 110.64 17.0297C110.724 17.1454 110.676 17.2661 110.598 17.4656L108.283 23.3532C108.053 23.9399 107.825 24.5278 107.597 25.1157L107.584 25.1479C107.062 26.4915 106.523 27.8809 105.962 29.2368C105.329 30.7672 104.398 31.8218 103.116 32.4614C102.378 32.8293 101.55 33.0158 100.655 33.0158C100.587 33.0158 100.518 33.0149 100.449 33.0128C100.184 33.0042 100.051 32.8764 100.053 32.6323C100.06 32.0503 100.063 31.4236 100.052 30.7854C100.05 30.6593 100.083 30.565 100.153 30.4969C100.255 30.3976 100.391 30.3972 100.49 30.3969L100.531 30.3964C101.273 30.381 101.861 30.1568 102.33 29.7107C102.736 29.324 102.965 28.8402 103.208 28.3282L103.306 28.1236C103.303 28.117 103.297 28.1061 103.287 28.0871C103.276 28.0674 103.266 28.0485 103.258 28.0297C102.567 26.503 101.875 24.9766 101.182 23.4501L101.181 23.4493L101.181 23.4486L101.181 23.4478L101.18 23.447L101.18 23.4463L101.18 23.4455L101.179 23.4447L99.785 20.3678C99.3452 19.395 98.8902 18.3887 98.4363 17.4019C98.3824 17.2843 98.3382 17.1489 98.4189 17.034C98.5061 16.9104 98.6717 16.9109 98.7719 16.9112L98.777 16.9112C99.0385 16.9171 99.3044 16.9162 99.5625 16.915H100.381L100.531 16.9148C100.703 16.9148 100.875 16.9147 101.046 16.9112C101.301 16.9136 101.442 17.0022 101.533 17.2167C102.684 19.9046 103.825 22.5449 104.79 24.7741C105.326 23.3341 105.859 21.8931 106.392 20.4524L106.544 20.0417L107.037 18.7085C107.213 18.2356 107.394 17.7461 107.565 17.263C107.651 17.0183 107.809 16.9093 108.074 16.9093C108.521 16.9159 108.961 16.9155 109.387 16.915L110.194 16.9138ZM54.2196 21.0545C54.2079 20.1335 53.9454 19.291 53.4398 18.55C52.5719 17.2778 51.2428 16.6332 49.4881 16.6332C49.4662 16.6332 49.4444 16.6332 49.4223 16.6335C48.456 16.6415 47.645 16.8466 46.9432 17.26C46.6189 17.4515 46.3206 17.6988 46.0355 18.0136C46.0343 17.7874 46.0338 17.5554 46.0402 17.3276C46.0432 17.2297 46.034 17.1057 45.9382 17.0125C45.8388 16.9165 45.7003 16.9125 45.6148 16.9104C44.921 16.9198 44.2321 16.9196 43.5686 16.9101C43.4198 16.904 43.3108 16.9395 43.2336 17.0121C43.1345 17.1052 43.1218 17.2335 43.1218 17.3349C43.126 20.9712 43.126 24.5922 43.1216 28.0965C43.1216 28.1958 43.134 28.3219 43.2331 28.4151C43.3339 28.5101 43.4697 28.5142 43.572 28.517C44.0228 28.5104 44.4819 28.5113 44.9252 28.5127L45.481 28.5137C45.9538 28.5137 46.037 28.4359 46.0373 27.9931V27.081C46.0375 25.56 46.0375 24.0391 46.0368 22.5182C46.0368 22.1432 46.0437 21.7443 46.1277 21.3529C46.3325 20.3995 46.8314 19.7765 47.6527 19.4487C48.1697 19.2422 48.7585 19.1879 49.4027 19.2875C50.1993 19.4103 50.7563 19.799 51.0586 20.4426C51.2408 20.8312 51.3258 21.273 51.3258 21.8329L51.3265 23.3043C51.3273 24.8536 51.328 26.4561 51.3198 28.0318C51.3191 28.1522 51.3327 28.3044 51.4442 28.4084C51.549 28.5068 51.6923 28.5194 51.8055 28.5194L51.8435 28.5189C52.4785 28.5037 53.1073 28.5087 53.8049 28.5165C53.9067 28.5168 54.0381 28.5075 54.1332 28.4177C54.2293 28.3264 54.24 28.2008 54.2397 28.1143C54.237 27.2922 54.2372 26.4705 54.2377 25.6487C54.2385 24.1484 54.2392 22.5969 54.2196 21.0545ZM63.4097 19.5944C63.7598 19.5992 64.1097 19.5989 64.4601 19.598H64.5058C64.9747 19.5963 65.3693 19.5966 65.7691 19.6039C65.8801 19.6072 66.0413 19.5996 66.1555 19.4901C66.2643 19.3856 66.2757 19.2415 66.2722 19.1142C66.2578 18.5855 66.2576 18.0254 66.271 17.351C66.2729 17.2464 66.2623 17.1139 66.1612 17.017C66.0614 16.921 65.9148 16.9077 65.8093 16.9098C65.4341 16.9141 65.0593 16.9141 64.6844 16.9132C64.2952 16.9124 63.8544 16.9117 63.4188 16.9186C63.3704 16.9186 63.3453 16.9158 63.3324 16.9132C63.3297 16.9004 63.326 16.874 63.3267 16.825C63.3332 16.3049 63.3327 15.7765 63.3322 15.2652V15.2651V15.265V15.265V15.2649C63.3319 14.8987 63.3317 14.5328 63.3337 14.1669C63.3344 14.0572 63.326 13.9337 63.217 13.8569C63.1109 13.7822 62.9818 13.8069 62.8695 13.8408C62.2003 14.0439 61.5062 14.239 60.8071 14.4208C60.5345 14.4915 60.4143 14.6422 60.4177 14.9096C60.4242 15.3868 60.4227 19.5205 60.4217 22.2562L60.4212 24.4584C60.4212 24.9441 60.4215 25.4467 60.5138 25.9461C60.7359 27.1459 61.3502 27.9118 62.392 28.287C62.9997 28.5058 63.6453 28.6075 64.4239 28.6075C64.8969 28.6075 65.3742 28.5719 65.9449 28.5184C66.2685 28.488 66.2672 28.211 66.2667 28.1061V28.1059L66.2657 27.6332C66.2645 27.2347 66.2633 26.823 66.2702 26.4181C66.272 26.3126 66.2605 26.1789 66.1562 26.0839C66.0522 25.9881 65.9136 25.9841 65.8187 25.9898C65.5256 26.0068 65.2236 26.0071 64.9312 26.0073H64.9307C64.6051 26.0073 64.2366 26.0073 63.9187 25.8885C63.5234 25.7406 63.3379 25.4287 63.3352 24.9072C63.3319 24.3117 63.3324 23.7165 63.3332 23.1208L63.3322 21.6214C63.3334 20.9826 63.3344 20.3222 63.327 19.6724C63.3265 19.6338 63.3292 19.6112 63.3317 19.5989C63.3446 19.5966 63.3662 19.5951 63.4097 19.5944ZM41.2232 16.8227C41.3171 16.9104 41.3273 17.029 41.3268 17.1105C41.322 17.815 41.3183 18.565 41.3283 19.3079C41.33 19.431 41.2972 19.5229 41.2287 19.5881C41.1338 19.6787 41.0111 19.6787 40.9193 19.6785L40.8664 19.678C39.9748 19.6841 39.2994 19.8797 38.7421 20.2934C38.0649 20.7961 37.7145 21.4966 37.7006 22.3754C37.673 24.121 37.6815 25.8948 37.6897 27.6101L37.6914 28.0084C37.6919 28.1553 37.677 28.3059 37.564 28.4104C37.4567 28.5095 37.31 28.5211 37.2086 28.5211C37.1932 28.5211 37.1779 28.5209 37.1632 28.5204C36.5896 28.5012 35.9772 28.5009 35.2913 28.5192C35.1574 28.5213 35.0032 28.5116 34.8927 28.4083C34.7804 28.3037 34.766 28.1572 34.7668 28.0278C34.7745 26.4884 34.7737 24.9561 34.7727 23.4743L34.7722 22.07L34.773 20.8841C34.774 19.7427 34.775 18.562 34.7665 17.4014C34.7655 17.2712 34.7797 17.1242 34.8917 17.0192C34.9997 16.9183 35.1522 16.9083 35.289 16.9081C35.883 16.9239 36.5143 16.9242 37.2203 16.9088L37.2263 16.9087C37.2907 16.9075 37.4633 16.9044 37.5797 17.0164C37.6827 17.1152 37.6931 17.2496 37.6899 17.3682C37.6807 17.6861 37.6817 18.0075 37.6835 18.3206C37.9832 17.8966 38.3418 17.5656 38.7756 17.3122C39.4044 16.9448 40.106 16.7547 40.9205 16.7303C41.0059 16.7277 41.1303 16.7362 41.2232 16.8227Z" fill="#CDCDCD"/>
</g>
</svg>
