<svg width="29" height="41" viewBox="0 0 29 41" fill="none" xmlns="http://www.w3.org/2000/svg">
<path d="M8.3357 40.0019L5.77936 34.7002L0.0465088 36.0313L7.31468 20.8672L15.6039 24.8378L8.3357 40.0019Z" fill="#F5BE1A"/>
<path d="M20.6643 40.0019L23.2206 34.7002L28.9535 36.0313L21.6853 20.8672L13.3961 24.8378L20.6643 40.0019Z" fill="#F5BE1A"/>
<path d="M14.5003 24.7523C20.5987 24.7523 25.5425 19.8086 25.5425 13.7101C25.5425 7.61172 20.5987 2.66797 14.5003 2.66797C8.40188 2.66797 3.45813 7.61172 3.45813 13.7101C3.45813 19.8086 8.40188 24.7523 14.5003 24.7523Z" fill="#F7DE64"/>
<path d="M26.5849 16.1095C26.7512 15.2927 28.2034 14.5742 28.2034 13.7044C28.2034 12.8346 26.7512 12.1237 26.5849 11.2993C26.4185 10.4523 27.4849 9.24215 27.1596 8.46315C27.0008 8.08499 26.547 7.8581 26.0706 7.65389C25.5487 7.43456 24.989 7.23036 24.747 6.85976C24.2705 6.14883 24.7924 4.62108 24.1873 4.01602C23.9378 3.76644 23.5293 3.70594 23.0831 3.69837C22.4554 3.67568 21.7596 3.73619 21.3436 3.46391C21.1091 3.30509 20.9352 3.01769 20.7915 2.69248C20.4965 2.04961 20.2696 1.26304 19.7478 1.04371C18.9688 0.718498 17.7511 1.7849 16.9116 1.61851C16.0872 1.45968 15.3763 0 14.5065 0C13.6368 0 12.9258 1.45212 12.1015 1.61851C12.0107 1.63364 11.9124 1.6412 11.8141 1.63364C10.9972 1.57313 9.95352 0.756314 9.26528 1.04371C8.47115 1.36893 8.37283 2.98744 7.66946 3.45635C6.95852 3.93283 5.43077 3.41097 4.82572 4.01602C4.22067 4.62108 4.74252 6.14883 4.26605 6.85976C3.79713 7.56313 2.17862 7.66902 1.8534 8.45558C1.56601 9.15139 2.38282 10.1875 2.44333 11.0044C2.45089 11.1027 2.45089 11.201 2.4282 11.2918C2.26181 12.1161 0.809692 12.8271 0.809692 13.6968C0.809692 14.5666 2.26181 15.2775 2.4282 16.1019C2.59459 16.949 1.52819 18.1666 1.8534 18.9381C2.07274 19.4599 2.8593 19.6868 3.50217 19.9818C3.82738 20.1331 4.11478 20.2994 4.27361 20.5415C4.55344 20.9574 4.48537 21.6532 4.50806 22.281C4.52319 22.7272 4.57613 23.1356 4.82572 23.3852C5.4232 23.9903 6.95852 23.4684 7.66946 23.9449C8.03249 24.1869 8.23669 24.7466 8.46358 25.2684C8.66779 25.7525 8.89468 26.1987 9.27284 26.3575C10.0518 26.6827 11.2695 25.6163 12.109 25.7827C12.9334 25.9415 13.6443 27.4012 14.5141 27.4012C15.3839 27.4012 16.0948 25.9491 16.9192 25.7827C17.7662 25.6163 18.9763 26.6827 19.7553 26.3575C20.5495 26.0323 20.6478 24.4138 21.3512 23.9449C22.0621 23.4684 23.5898 23.9903 24.1949 23.3852C24.7999 22.7802 24.2781 21.2524 24.7546 20.5415C25.2235 19.8381 26.842 19.7322 27.1672 18.9457C27.4773 18.1742 26.4109 16.9565 26.5849 16.1095ZM14.499 24.4743C12.9561 24.4743 11.4888 24.1491 10.1653 23.5592C8.62241 22.8785 7.27617 21.8499 6.20977 20.5717C5.70304 19.9591 5.26438 19.2936 4.90135 18.5826C4.1526 17.1229 3.73663 15.4666 3.73663 13.712C3.73663 11.6926 4.2963 9.79426 5.27194 8.17575C6.17952 6.66312 7.45013 5.39251 8.96275 4.48494C10.5813 3.50929 12.472 2.94962 14.499 2.94962C16.2536 2.94962 17.9024 3.37316 19.3696 4.11434C20.0806 4.47737 20.7461 4.91604 21.3587 5.42277C22.6369 6.48161 23.673 7.83541 24.3462 9.37829C24.9361 10.7018 25.2613 12.1691 25.2613 13.712C25.2613 19.6415 20.436 24.4743 14.499 24.4743Z" fill="url(#paint0_linear_1_2182)"/>
<path d="M14.4701 23.4498C19.8961 23.4498 24.2946 19.0512 24.2946 13.6253C24.2946 8.19936 19.8961 3.80078 14.4701 3.80078C9.04421 3.80078 4.64563 8.19936 4.64563 13.6253C4.64563 19.0512 9.04421 23.4498 14.4701 23.4498Z" fill="white"/>
<path d="M14.4701 23.4498C19.8961 23.4498 24.2946 19.0512 24.2946 13.6253C24.2946 8.19936 19.8961 3.80078 14.4701 3.80078C9.04421 3.80078 4.64563 8.19936 4.64563 13.6253C4.64563 19.0512 9.04421 23.4498 14.4701 23.4498Z" fill="url(#paint1_linear_1_2182)"/>
<path opacity="0.6" fill-rule="evenodd" clip-rule="evenodd" d="M14.7549 10.9734C17.3378 10.9925 20.3304 10.5524 21.5946 8.19922C21.5946 8.19922 22.35 11.8694 18.0612 13.1895C16.0096 13.8336 11.3367 13.6678 11.3367 13.6678C11.3367 13.6678 9.17629 13.5338 8.93304 14.9687C8.68339 16.4419 10.2197 17.1179 10.2197 17.1179C10.2197 17.1179 11.7656 18.2212 15.2926 17.2582C15.7951 17.1211 16.2912 16.9616 16.7617 16.7384V16.7416C16.7617 16.7448 16.7617 16.7448 16.7617 16.748C16.5121 17.2167 15.347 17.9278 15.139 18.049C13.3083 19.1969 10.1461 19.5508 8.48815 17.7046C6.73742 15.7531 7.40955 13.3266 8.89783 12.1946C10.3893 11.0594 12.1688 10.9574 14.7549 10.9734ZM9.61157 15.9827C9.61157 15.9827 8.47535 14.0887 11.4775 14.1365C18.1604 14.3756 19.5718 13.0109 19.5718 13.0109C19.5718 13.0109 19.5718 15.632 15.5711 16.6938C10.7382 17.9246 9.68518 16.1103 9.61157 15.9827C9.61157 15.9859 9.61157 15.9827 9.61157 15.9827Z" fill="white"/>
<path opacity="0.6" fill-rule="evenodd" clip-rule="evenodd" d="M14.7549 10.9734C17.3378 10.9925 20.3304 10.5524 21.5946 8.19922C21.5946 8.19922 22.35 11.8694 18.0612 13.1895C16.0096 13.8336 11.3367 13.6678 11.3367 13.6678C11.3367 13.6678 9.17629 13.5338 8.93304 14.9687C8.68339 16.4419 10.2197 17.1179 10.2197 17.1179C10.2197 17.1179 11.7656 18.2212 15.2926 17.2582C15.7951 17.1211 16.2912 16.9616 16.7617 16.7384V16.7416C16.7617 16.7448 16.7617 16.7448 16.7617 16.748C16.5121 17.2167 15.347 17.9278 15.139 18.049C13.3083 19.1969 10.1461 19.5508 8.48815 17.7046C6.73742 15.7531 7.40955 13.3266 8.89783 12.1946C10.3893 11.0594 12.1688 10.9574 14.7549 10.9734ZM9.61157 15.9827C9.61157 15.9827 8.47535 14.0887 11.4775 14.1365C18.1604 14.3756 19.5718 13.0109 19.5718 13.0109C19.5718 13.0109 19.5718 15.632 15.5711 16.6938C10.7382 17.9246 9.68518 16.1103 9.61157 15.9827C9.61157 15.9859 9.61157 15.9827 9.61157 15.9827Z" fill="white"/>
<path opacity="0.6" fill-rule="evenodd" clip-rule="evenodd" d="M14.7549 10.9734C17.3378 10.9925 20.3304 10.5524 21.5946 8.19922C21.5946 8.19922 22.35 11.8694 18.0612 13.1895C16.0096 13.8336 11.3367 13.6678 11.3367 13.6678C11.3367 13.6678 9.17629 13.5338 8.93304 14.9687C8.68339 16.4419 10.2197 17.1179 10.2197 17.1179C10.2197 17.1179 11.7656 18.2212 15.2926 17.2582C15.7951 17.1211 16.2912 16.9616 16.7617 16.7384V16.7416C16.7617 16.7448 16.7617 16.7448 16.7617 16.748C16.5121 17.2167 15.347 17.9278 15.139 18.049C13.3083 19.1969 10.1461 19.5508 8.48815 17.7046C6.73742 15.7531 7.40955 13.3266 8.89783 12.1946C10.3893 11.0594 12.1688 10.9574 14.7549 10.9734ZM9.61157 15.9827C9.61157 15.9827 8.47535 14.0887 11.4775 14.1365C18.1604 14.3756 19.5718 13.0109 19.5718 13.0109C19.5718 13.0109 19.5718 15.632 15.5711 16.6938C10.7382 17.9246 9.68518 16.1103 9.61157 15.9827C9.61157 15.9859 9.61157 15.9827 9.61157 15.9827Z" fill="white"/>
<path opacity="0.6" fill-rule="evenodd" clip-rule="evenodd" d="M14.7549 10.9734C17.3378 10.9925 20.3304 10.5524 21.5946 8.19922C21.5946 8.19922 22.35 11.8694 18.0612 13.1895C16.0096 13.8336 11.3367 13.6678 11.3367 13.6678C11.3367 13.6678 9.17629 13.5338 8.93304 14.9687C8.68339 16.4419 10.2197 17.1179 10.2197 17.1179C10.2197 17.1179 11.7656 18.2212 15.2926 17.2582C15.7951 17.1211 16.2912 16.9616 16.7617 16.7384V16.7416C16.7617 16.7448 16.7617 16.7448 16.7617 16.748C16.5121 17.2167 15.347 17.9278 15.139 18.049C13.3083 19.1969 10.1461 19.5508 8.48815 17.7046C6.73742 15.7531 7.40955 13.3266 8.89783 12.1946C10.3893 11.0594 12.1688 10.9574 14.7549 10.9734ZM9.61157 15.9827C9.61157 15.9827 8.47535 14.0887 11.4775 14.1365C18.1604 14.3756 19.5718 13.0109 19.5718 13.0109C19.5718 13.0109 19.5718 15.632 15.5711 16.6938C10.7382 17.9246 9.68518 16.1103 9.61157 15.9827Z" fill="white"/>
<defs>
<linearGradient id="paint0_linear_1_2182" x1="0.809692" y1="27.4012" x2="28.2109" y2="0.00756368" gradientUnits="userSpaceOnUse">
<stop stop-color="#FD8B25"/>
<stop offset="1" stop-color="#FEC62E"/>
</linearGradient>
<linearGradient id="paint1_linear_1_2182" x1="18.7456" y1="4.93179" x2="3.8942" y2="25.3329" gradientUnits="userSpaceOnUse">
<stop stop-color="#F5BE1A"/>
<stop offset="1" stop-color="white"/>
</linearGradient>
</defs>
</svg>
