<svg width="32" height="32" viewBox="0 0 32 32" fill="none" xmlns="http://www.w3.org/2000/svg">
<g opacity="0.5">
<path fill-rule="evenodd" clip-rule="evenodd" d="M11.0007 16C13.7606 16 16 13.7615 16 11C16 8.23846 13.7606 6 11.0007 6C8.23939 6 6 8.23846 6 11C6 13.7615 8.23939 16 11.0007 16ZM15 16.7C12.7323 18.5338 11.2813 21.3277 11.2813 24.4615C11.2813 24.9862 11.3339 25.4969 11.4128 26H3.00547C2.45169 26 2 25.5508 2 25C2 20.0492 6.07139 16 11.0493 16H11.5133C12.7477 16 13.9249 16.2508 15 16.7ZM26.5 11C26.5 13.7615 24.2606 16 21.5007 16C18.7394 16 16.5 13.7615 16.5 11C16.5 8.23846 18.7394 6 21.5007 6C24.2606 6 26.5 8.23846 26.5 11ZM21.5007 16H21.7125C26.2713 16 30 20.0492 30 25C30 25.5508 29.5849 26 29.0792 26H13.9208C13.4137 26 13 25.5508 13 25C13 20.0492 16.7287 16 21.2875 16H21.5007Z" fill="white"/>
</g>
</svg>
