<svg width="24" height="21" viewBox="0 0 24 21" fill="none" xmlns="http://www.w3.org/2000/svg">
<path fill-rule="evenodd" clip-rule="evenodd" d="M1.27935 0.00014685C0.942363 -0.0054767 0.617214 0.150625 0.376001 0.431885C0.135977 0.714561 0 1.0985 0 1.50072C0 1.90153 0.135974 2.28686 0.376001 2.56811C0.617208 2.85079 0.942363 3.00547 1.27935 2.99985H22.7207C23.0576 3.00548 23.3828 2.85078 23.624 2.56811C23.864 2.28685 24 1.9015 24 1.50072C24 1.0985 23.864 0.714575 23.624 0.431885C23.3828 0.150618 23.0576 -0.0054695 22.7207 0.00014685H1.27935ZM1.24565 9.00015C0.917545 8.99453 0.600959 9.15055 0.366099 9.43168C0.132396 9.71422 0 10.098 0 10.5C0 10.902 0.132393 11.2858 0.366099 11.5683C0.600953 11.8495 0.917545 12.0055 1.24565 11.9999H14.7543C15.0825 12.0055 15.399 11.8494 15.6339 11.5683C15.8676 11.2858 16 10.902 16 10.5C16 10.098 15.8676 9.71423 15.6339 9.43168C15.399 9.15055 15.0825 8.99453 14.7543 9.00015H1.24565ZM0.376001 18.4319C0.617214 18.1492 0.942363 17.9945 1.27935 18.0001H22.7207C23.0576 17.9945 23.3828 18.1492 23.624 18.4319C23.864 18.7131 24 19.0985 24 19.4993C24 19.9015 23.864 20.2854 23.624 20.5681C23.3828 20.8494 23.0576 21.0055 22.7207 20.9999H1.27935C0.942363 21.0055 0.617208 20.8494 0.376001 20.5681C0.135974 20.2854 0 19.9015 0 19.4993C0 19.0985 0.135977 18.7132 0.376001 18.4319Z" fill="white"/>
</svg>
