<svg width="328" height="176" viewBox="0 0 328 176" fill="none" xmlns="http://www.w3.org/2000/svg">
<g filter="url(#filter0_d_729_304)">
<rect x="109" width="218.667" height="176" rx="5.33333" fill="#047453"/>
</g>
<g filter="url(#filter1_d_729_304)">
<rect x="109" width="218.667" height="176" rx="5.33333" fill="url(#paint0_linear_729_304)" shape-rendering="crispEdges"/>
</g>
<mask id="mask0_729_304" style="mask-type:alpha" maskUnits="userSpaceOnUse" x="109" y="0" width="219" height="176">
<rect x="109" width="218.667" height="176" rx="5.33333" fill="url(#paint1_linear_729_304)"/>
</mask>
<g mask="url(#mask0_729_304)">
<circle cx="345.324" cy="103.263" r="99.5724" fill="url(#paint2_linear_729_304)" fill-opacity="0.8"/>
<path d="M227.69 46.4888C226.396 46.92 225.036 47.1523 223.593 47.1523C217.307 47.1523 212.065 42.6738 210.888 36.7522C209.511 37.1503 208.068 37.3493 206.575 37.3493C203.987 37.3493 201.533 36.719 199.376 35.6077L199.376 -5.2627L365.246 -5.2627L365.246 37.2498C362.991 38.3777 360.453 39.0246 357.766 39.0246C357.036 39.0246 356.323 38.9749 355.626 38.8919C355.709 39.572 355.759 40.2521 355.759 40.9487C355.759 49.4579 348.858 56.3581 340.349 56.3581C335.406 56.3581 331.011 54.0359 328.191 50.4199C326.433 54.6828 322.236 57.685 317.326 57.685C310.841 57.685 305.583 52.4269 305.583 45.9414C305.583 45.7921 305.583 45.6263 305.599 45.477C305.052 45.5599 304.488 45.6097 303.924 45.6097C299.844 45.6097 296.311 43.2875 294.569 39.8872C292.977 42.8396 289.858 44.8633 286.259 44.8633C281.631 44.8633 277.783 41.5293 276.987 37.1337C275.793 37.6977 274.466 37.9962 273.072 37.9962C272.492 37.9962 271.928 37.9465 271.38 37.847C270.452 42.5577 266.305 46.1073 261.329 46.1073C259.355 46.1073 257.514 45.5433 255.938 44.5813C255.507 52.062 249.303 58.0002 241.706 58.0002C234.756 57.9836 228.984 53.0407 227.69 46.4888Z" fill="url(#paint3_linear_729_304)" fill-opacity="0.8"/>
<path d="M227.69 30.2139C226.396 30.6451 225.036 30.8774 223.593 30.8774C217.307 30.8774 212.065 26.3989 210.888 20.4773C209.511 20.8754 208.068 21.0744 206.575 21.0744C203.987 21.0744 201.533 20.4441 199.376 19.3328L199.376 -21.5376L365.246 -21.5376L365.246 20.9749C362.991 22.1028 360.453 22.7497 357.766 22.7497C357.036 22.7497 356.323 22.7 355.626 22.617C355.709 23.2971 355.759 23.9772 355.759 24.6738C355.759 33.183 348.858 40.0832 340.349 40.0832C335.406 40.0832 331.011 37.761 328.191 34.145C326.433 38.4079 322.236 41.4101 317.326 41.4101C310.841 41.4101 305.583 36.152 305.583 29.6665C305.583 29.5172 305.583 29.3514 305.599 29.2021C305.052 29.285 304.488 29.3348 303.924 29.3348C299.844 29.3348 296.311 27.0126 294.569 23.6123C292.977 26.5647 289.858 28.5884 286.259 28.5884C281.631 28.5884 277.783 25.2544 276.987 20.8588C275.793 21.4228 274.466 21.7213 273.072 21.7213C272.492 21.7213 271.928 21.6716 271.38 21.572C270.452 26.2828 266.305 29.8324 261.329 29.8324C259.355 29.8324 257.514 29.2684 255.938 28.3064C255.507 35.7871 249.303 41.7253 241.706 41.7253C234.756 41.7087 228.984 36.7658 227.69 30.2139Z" fill="url(#paint4_linear_729_304)"/>
<g filter="url(#filter2_d_729_304)">
<path d="M249.872 51.8669C250.135 42.5659 257.882 35.2462 267.183 35.5097C276.484 35.7731 283.803 43.5195 283.54 52.8206C283.435 56.5295 282.146 59.9163 280.031 62.6451C277.526 66.1899 271.165 70.1062 271.095 72.566L271.016 75.3716C271 75.9289 270.525 76.3771 269.968 76.3613L267.259 76.2845L264.78 76.2143L262.07 76.1376C261.513 76.1218 261.065 75.6475 261.08 75.0902L261.16 72.2846C261.229 69.844 255.099 65.5739 252.8 61.8738C250.861 59.0302 249.767 55.5758 249.872 51.8669Z" fill="url(#paint5_linear_729_304)"/>
</g>
<path d="M246.529 50.5965C246.492 50.6516 246.444 50.6988 246.389 50.7354C246.334 50.772 246.271 50.7973 246.206 50.8098L241.607 51.7C241.476 51.7237 241.341 51.6949 241.232 51.6198C241.122 51.5446 241.046 51.4293 241.021 51.2987C240.996 51.1681 241.023 51.0328 241.097 50.9221C241.17 50.8115 241.285 50.7344 241.415 50.7076L246.014 49.8174C246.112 49.7984 246.214 49.8089 246.306 49.8476C246.398 49.8863 246.477 49.9515 246.532 50.0349C246.587 50.1183 246.616 50.2162 246.616 50.3162C246.615 50.4161 246.585 50.5137 246.529 50.5965Z" fill="url(#paint6_linear_729_304)"/>
<path d="M246.439 45.9116C246.382 45.9965 246.3 46.062 246.205 46.0993C246.109 46.1366 246.005 46.1441 245.905 46.1206L240.105 44.755C239.978 44.7207 239.87 44.6386 239.803 44.526C239.736 44.4133 239.715 44.279 239.745 44.1513C239.775 44.0237 239.853 43.9127 239.964 43.8419C240.074 43.771 240.207 43.7458 240.336 43.7715L246.136 45.137C246.216 45.1558 246.29 45.1936 246.351 45.2472C246.413 45.3009 246.461 45.3687 246.491 45.4449C246.521 45.5211 246.532 45.6035 246.523 45.6848C246.514 45.7662 246.485 45.8441 246.439 45.9119L246.439 45.9116Z" fill="url(#paint7_linear_729_304)"/>
<path d="M250.952 39.2345C250.906 39.3023 250.844 39.358 250.772 39.3967C250.7 39.4354 250.619 39.4561 250.538 39.4568C250.456 39.4576 250.375 39.4385 250.302 39.4012C250.229 39.3639 250.167 39.3094 250.119 39.2425L246.688 34.371C246.612 34.2614 246.583 34.1261 246.606 33.9948C246.629 33.8635 246.704 33.7467 246.813 33.6699C246.922 33.5931 247.057 33.5625 247.188 33.5848C247.32 33.6071 247.437 33.6804 247.515 33.7889L250.946 38.6605C251.005 38.7443 251.037 38.8441 251.038 38.9467C251.039 39.0492 251.009 39.1496 250.952 39.2345Z" fill="url(#paint8_linear_729_304)"/>
<path d="M248.187 42.1526C248.112 42.2636 247.996 42.3403 247.865 42.3658C247.733 42.3913 247.597 42.3634 247.486 42.2884L240.822 37.7864C240.767 37.7493 240.72 37.7017 240.684 37.6463C240.647 37.591 240.622 37.5289 240.609 37.4637C240.597 37.3986 240.597 37.3316 240.61 37.2666C240.623 37.2016 240.649 37.1398 240.687 37.0848C240.724 37.0299 240.771 36.9827 240.827 36.9462C240.882 36.9096 240.944 36.8842 241.009 36.8716C241.074 36.859 241.141 36.8593 241.206 36.8726C241.271 36.8859 241.333 36.9119 241.388 36.949L248.051 41.451C248.162 41.526 248.239 41.6421 248.265 41.7737C248.29 41.9053 248.262 42.0415 248.187 42.1526Z" fill="url(#paint9_linear_729_304)"/>
<g opacity="0.55">
<g opacity="0.55">
<g opacity="0.55">
<path opacity="0.55" d="M283.485 54.0479C282.368 60.9207 276.592 67.9115 266.273 67.6192C255.972 67.3275 250.823 59.7002 249.856 53.0953C249.954 56.4253 251.02 59.5135 252.793 62.1024C255.093 65.7832 261.223 70.0533 261.153 72.5131L261.073 75.3188C261.058 75.8761 261.506 76.3504 262.063 76.3662L264.773 76.4429L267.252 76.5131L269.98 76.5904C270.538 76.6062 271.012 76.158 271.028 75.6008L271.107 72.7951C271.176 70.3545 277.538 66.4382 280.043 62.8742C281.94 60.4085 283.18 57.3664 283.485 54.0479Z" fill="#F6AD15"/>
</g>
</g>
</g>
<path d="M271.459 74.0162L260.735 73.7125L260.591 78.8242C260.567 79.6506 260.774 80.4834 261.216 81.2075C262.024 82.5575 263.461 83.4059 265.037 83.4506L266.613 83.4952C268.189 83.5398 269.672 82.7741 270.555 81.4721C271.017 80.7736 271.29 79.9735 271.314 79.128L271.459 74.0162Z" fill="#484D5F"/>
<path d="M285.161 189.81C285.901 184.683 286.548 179.301 285.189 174.215C284.601 172.016 283.66 169.614 281.89 168.097C280.38 166.805 278.332 166.462 276.75 167.831C276.091 168.403 275.589 169.249 275.608 170.142C275.625 171.103 276.238 171.859 276.978 172.415C278.367 173.459 280.165 173.831 281.87 173.646C283.494 173.471 285.13 172.778 286.226 171.536C287.529 170.057 287.779 168.043 287.189 166.19C286.48 163.976 284.835 162.02 283.068 160.56C281.384 159.166 279.141 158.065 276.898 158.504C275.047 158.866 273.293 160.339 272.819 162.194C272.358 163.99 273.265 165.755 274.935 166.518C276.518 167.242 278.435 166.939 279.532 165.531C280.629 164.123 280.734 161.956 279.76 160.454C278.759 158.915 276.753 158.356 275.032 158.845C273.063 159.408 271.926 161.217 271.802 163.202C271.655 165.553 272.849 167.664 274.425 169.321C276.006 170.981 278.059 172.695 280.352 173.194C282.261 173.613 284.464 173.013 285.561 171.296C286.558 169.733 286.074 167.822 284.7 166.674C283.29 165.497 281.313 165.348 279.838 166.488C278.384 167.608 277.709 169.59 277.964 171.382C278.255 173.436 279.815 175.115 281.643 175.971C283.837 176.997 286.35 176.803 288.571 175.974C290.501 175.253 292.931 174 293.543 171.851C294.096 169.906 292.852 167.865 291.145 166.965C289.601 166.15 287.666 166.075 286.093 166.854C284.479 167.652 283.552 169.306 283.45 171.075C283.349 172.796 284 174.627 285.339 175.754C287.121 177.251 289.675 177.143 291.768 176.459C293.841 175.778 295.91 174.538 296.872 172.504C297.778 170.589 297.685 168.171 296.506 166.386C295.381 164.682 293.359 163.588 291.307 163.65C289.481 163.707 287.586 164.779 287.657 166.814C287.72 168.56 289.049 170.193 290.591 170.912C292.329 171.72 294.472 171.383 296.112 170.505C297.867 169.567 299.272 167.915 299.741 165.963C300.201 164.067 299.785 162.002 298.755 160.361C297.755 158.774 296.105 157.425 294.186 157.23C292.539 157.059 290.684 157.721 289.654 159.046C288.415 160.635 289.025 162.653 290.469 163.872C291.851 165.036 293.686 165.506 295.464 165.303C297.121 165.113 298.808 164.293 299.618 162.777C300.65 160.849 299.957 158.631 298.734 156.973C297.407 155.171 295.316 153.348 293.022 153.058C291.256 152.835 289.178 153.849 288.855 155.733C288.571 157.404 289.972 158.879 291.49 159.323C293.2 159.822 294.797 158.907 295.525 157.336C296.278 155.706 296.084 153.639 295.052 152.175C293.805 150.399 291.655 149.531 289.546 149.363C287.441 149.194 285.089 149.674 283.492 151.132C282.147 152.356 281.634 154.17 281.885 155.945C282.122 157.644 283.083 159.322 284.636 160.138C286.156 160.937 288.143 160.744 289.472 159.652C291.084 158.331 290.94 156.045 289.706 154.503C288.569 153.08 286.657 152.476 284.883 152.678C280.654 153.157 278.84 158.037 280.211 161.696C281.422 164.917 285.417 167.032 288.717 165.727C290.497 165.022 292.086 163.102 291.149 161.146C290.318 159.419 288.287 158.642 286.463 158.888C284.596 159.14 283.039 160.458 282.605 162.311C282.189 164.071 282.711 166.103 284.103 167.304C285.476 168.488 287.474 168.613 289.094 167.883C290.974 167.037 291.949 165.107 291.858 163.091C291.754 160.806 290.572 158.683 289.13 156.966C287.676 155.237 285.793 153.757 283.588 153.144C279.979 152.146 275.038 154.236 275.062 158.484C275.074 160.201 275.923 162.005 277.404 162.927C278.833 163.815 280.599 163.616 281.836 162.502C283.044 161.419 283.672 159.681 283.508 158.077C283.329 156.315 282.091 154.922 280.444 154.333C278.733 153.722 276.704 153.986 275.193 154.984C273.473 156.121 272.597 158.113 272.332 160.099C272.03 162.389 272.466 164.74 273.151 166.926C273.859 169.188 274.87 171.367 276.299 173.268C279.01 176.869 283.713 179.357 288.264 178.043C290.148 177.498 292.154 176.184 292.534 174.117C292.843 172.442 291.682 170.444 289.849 170.457C289.688 170.456 289.503 170.592 289.518 170.769C289.625 172.407 290.804 173.751 292.358 174.229C294.103 174.765 295.969 174.01 297.287 172.862C300.081 170.421 300.891 165.947 298.647 162.886C297.668 161.552 296.139 160.488 294.455 160.34C293.12 160.222 291.435 160.845 291.208 162.333C290.946 164.066 292.711 165.33 294.226 165.59C295.778 165.855 297.4 165.326 298.59 164.323C301.435 161.932 301 157.403 298.683 154.817C296.225 152.071 291.706 150.999 288.29 152.429C286.643 153.118 285.342 154.5 284.978 156.274C284.676 157.732 285.089 159.315 286.321 160.222C288.604 161.906 292.134 160.712 293.21 158.199C294.574 155.018 292.665 151.187 289.78 149.606C286.935 148.047 283.211 148.295 280.578 150.182C279.224 151.152 277.947 152.671 277.862 154.4C277.774 156.102 279.099 157.538 280.726 157.857C282.288 158.163 283.899 157.485 285.057 156.457C286.5 155.176 287.14 153.301 287.39 151.435C287.695 149.153 287.422 146.903 287.011 144.653C286.605 142.399 286.261 140.22 286.422 137.926C286.497 136.847 286.642 135.826 287.227 134.898C287.795 134.002 288.556 133.244 289.3 132.498C290.736 131.051 292.515 129.398 294.713 129.533C296.683 129.653 298.626 131.701 297.394 133.631C296.284 135.372 293.824 136.239 291.866 136.404C287.806 136.747 283.945 133.873 283.726 129.667C283.62 127.623 284.568 125.785 285.99 124.371C287.446 122.929 289.386 121.682 291.367 121.127C292.448 120.824 293.636 120.746 294.67 121.253C295.685 121.752 296.376 122.736 296.675 123.813C297.189 125.677 296.501 127.69 295.212 129.077C292.166 132.354 286.981 131.246 284.135 128.313C282.678 126.817 281.683 124.912 281.093 122.918C280.484 120.851 280.253 118.502 281.142 116.482C282.835 112.636 287.984 111.857 291.663 112.644C295.266 113.418 298.612 115.739 300.131 119.161C301.574 122.409 301.187 126.421 299.226 129.371C298.232 130.87 296.515 132.585 294.623 132.717C292.227 132.886 291.048 129.549 290.432 127.732C289.186 124.051 288.659 119.536 285.384 116.984C284.011 115.916 282.196 115.302 280.456 115.59C278.74 115.875 277.443 117.108 276.737 118.651C275.272 121.845 275.656 126.292 277.505 129.25C278.421 130.711 279.948 132.253 281.802 132.221C283.591 132.191 284.709 130.599 285.401 129.14C287.379 124.989 288.518 120.404 289.017 115.845C289.479 111.617 289.707 107.145 287.926 103.282C287.123 101.531 286.152 99.6673 284.875 98.2166C283.808 97.0009 282.237 95.9799 280.549 96.2817C279.018 96.5558 278.141 98.0018 278.252 99.4958C278.356 100.937 279.214 102.432 280.483 103.16C282.073 104.065 283.798 103.724 284.986 102.371C287.789 99.1752 286.462 94.255 289.389 91.0789C290.695 89.6611 292.6 88.8029 294.535 89.2796C296.491 89.761 297.953 91.3536 298.363 93.3102C298.771 95.2426 298.273 97.491 296.682 98.768C294.893 100.2 292.488 99.9914 290.472 99.215C286.497 97.6799 282.07 94.641 281.707 90.0053C281.563 88.1366 282.241 85.9376 283.937 84.9247C285.723 83.8621 287.293 85.4618 289.033 85.7602C290.745 86.0538 292.439 85.1173 293.492 83.817C294.742 82.2771 295.053 80.2244 294.758 78.3032C294.418 76.1034 292.859 74.1223 293.281 71.8356C293.618 70.0167 294.683 68.4394 295.184 66.6734C295.594 65.2222 295.527 63.641 294.499 62.4586C293.487 61.2967 291.842 60.7799 290.356 61.1959C289.959 61.3093 290.11 61.9364 290.511 61.8232C292.297 61.3192 294.319 62.4294 294.713 64.285C295.088 66.0639 294.07 67.8273 293.402 69.4078C292.687 71.0954 292.287 72.7478 292.863 74.5444C293.195 75.5825 293.694 76.5571 293.957 77.6174C294.246 78.7749 294.324 80.0068 294.053 81.1806C293.613 83.1011 292.096 84.8825 290.063 85.1384C288.313 85.3621 286.968 83.8894 285.256 83.8891C283.681 83.8887 282.424 85.127 281.748 86.446C280.948 88.0027 280.865 89.8006 281.308 91.4809C282.342 95.4002 285.854 97.8224 289.349 99.4284C291.075 100.221 292.989 100.753 294.882 100.308C296.484 99.9318 297.848 98.8854 298.541 97.3861C299.966 94.3161 298.793 90.3446 295.605 88.9563C292.319 87.521 288.958 89.6883 287.531 92.6859C286.625 94.5892 286.524 96.7242 286.025 98.7435C285.617 100.396 284.659 102.703 282.737 103.015C280.739 103.34 279.06 101.343 278.89 99.5099C278.817 98.696 279.07 97.8352 279.736 97.3156C280.492 96.7262 281.543 96.7961 282.39 97.1335C284.265 97.8738 285.374 99.8743 286.283 101.556C287.302 103.441 288.118 105.305 288.572 107.411C288.985 112.561 288.717 110.26 288.63 113.314C288.378 115.694 288.13 118.062 287.618 120.402C287.128 122.647 286.459 124.854 285.611 126.988C284.97 128.598 284.126 131.182 282.142 131.539C279.989 131.929 278.233 129.536 277.473 127.839C276.672 126.044 276.424 124.003 276.564 122.054C276.691 120.274 277.217 118.287 278.649 117.098C280.238 115.781 282.482 115.997 284.183 116.966C285.99 117.997 287.111 119.833 287.87 121.715C288.662 123.679 289.085 125.768 289.756 127.773C290.326 129.477 291.077 131.487 292.511 132.661C295.382 135.013 299.059 131.187 300.317 128.767C301.795 125.928 302.059 122.439 300.927 119.433C299.745 116.309 297.116 113.944 294.06 112.704C290.894 111.421 287.084 111.293 283.971 112.804C282.394 113.567 281.101 114.809 280.444 116.45C279.726 118.234 279.798 120.257 280.207 122.109C281.002 125.696 283.147 129.253 286.566 130.853C289.735 132.337 293.736 131.972 296.011 129.119C297.99 126.64 298.188 122.185 294.892 120.645C293.195 119.853 291.252 120.336 289.636 121.09C287.966 121.867 286.343 122.974 285.115 124.35C282.778 126.968 282.418 130.603 284.384 133.556C286.396 136.579 290.175 137.674 293.609 136.747C295.22 136.31 297.018 135.425 297.943 133.972C298.776 132.662 298.483 131.086 297.371 130.042C296.154 128.898 294.465 128.633 292.903 129.152C291.114 129.744 289.778 131.085 288.492 132.394C287.192 133.72 286.13 135.036 285.872 136.921C285.598 138.919 285.702 140.935 286.04 142.914C286.432 145.228 286.958 147.521 286.863 149.885C286.78 151.973 286.377 154.276 284.819 155.795C283.571 157.009 281.551 157.816 279.914 156.878C277.652 155.584 278.554 152.945 280.055 151.457C282.482 149.054 286.54 148.518 289.514 150.198C291.108 151.095 292.291 152.619 292.771 154.389C293.223 156.049 293.025 158.069 291.68 159.277C290.6 160.247 288.93 160.609 287.549 160.14C285.798 159.544 285.183 157.678 285.713 155.993C287.043 151.763 292.899 151.853 296.113 153.615C297.897 154.594 299.258 156.204 299.74 158.199C300.197 160.08 299.851 162.225 298.417 163.611C297.166 164.817 295.212 165.405 293.551 164.743C292.601 164.362 291.513 163.331 291.899 162.2C292.197 161.325 293.247 160.993 294.084 160.976C295.953 160.949 297.681 162.368 298.545 163.932C299.535 165.724 299.51 167.889 298.73 169.756C297.975 171.563 296.422 173.203 294.464 173.654C292.539 174.097 290.298 172.909 290.157 170.795C290.045 170.9 289.934 171.006 289.826 171.107C290.787 171.098 291.51 171.822 291.798 172.706C292.091 173.598 291.872 174.512 291.352 175.277C290.241 176.894 288.118 177.637 286.235 177.732C282.271 177.93 278.708 175.614 276.495 172.453C274.394 169.456 272.965 165.554 272.884 161.875C272.843 160.053 273.194 158.17 274.313 156.687C275.303 155.381 276.878 154.654 278.51 154.656C280.041 154.659 281.629 155.327 282.414 156.699C283.134 157.962 282.979 159.589 282.309 160.84C281.66 162.051 280.452 162.997 279.018 162.832C277.403 162.646 276.252 161.174 275.864 159.689C274.932 156.13 278.359 153.466 281.653 153.503C285.413 153.545 288.763 156.735 290.332 159.938C291.175 161.661 291.636 163.812 290.674 165.589C289.889 167.034 288.212 167.81 286.6 167.668C283.029 167.354 281.836 162.205 284.734 160.205C286.054 159.294 287.937 159.215 289.307 160.065C290.176 160.604 290.939 161.602 290.76 162.674C290.61 163.582 289.873 164.345 289.105 164.806C286.509 166.364 282.883 164.979 281.344 162.556C279.578 159.782 280.234 155.203 283.423 153.734C284.835 153.083 286.574 153.124 287.944 153.87C289.511 154.726 290.708 156.874 289.608 158.543C288.759 159.825 286.903 160.258 285.493 159.805C284.055 159.342 283.069 158.004 282.67 156.594C282.269 155.164 282.407 153.537 283.286 152.304C284.408 150.736 286.452 150.075 288.303 149.986C291.747 149.819 295.848 151.892 295.272 155.894C295.057 157.399 293.956 158.939 292.284 158.816C290.877 158.715 289.261 157.448 289.469 155.903C289.738 153.921 292.165 153.367 293.778 153.883C295.654 154.482 297.393 156.087 298.464 157.713C299.473 159.248 299.95 161.303 298.775 162.889C297.906 164.066 296.395 164.626 294.975 164.695C293.365 164.774 291.705 164.244 290.556 163.083C289.318 161.826 289.296 160.037 290.679 158.895C293.497 156.563 297.172 158.488 298.576 161.401C300.14 164.648 298.84 168.409 295.62 170.021C294.144 170.759 292.199 171.038 290.687 170.243C289.408 169.568 288.215 168.116 288.282 166.599C288.377 164.52 290.89 164.044 292.536 164.408C294.345 164.805 295.903 166.123 296.508 167.889C297.113 169.662 296.813 171.727 295.658 173.209C294.44 174.774 292.396 175.721 290.492 176.121C288.657 176.507 286.553 176.287 285.261 174.791C284.269 173.642 283.878 171.999 284.137 170.516C284.708 167.213 288.629 165.982 291.274 167.817C292.937 168.969 293.584 171.222 292.248 172.871C291.023 174.388 288.887 175.32 287.038 175.766C285.108 176.234 283.042 176.111 281.311 175.081C279.762 174.157 278.557 172.556 278.534 170.703C278.509 169.139 279.269 167.448 280.689 166.689C282.211 165.872 284.111 166.593 285.004 168.005C286.003 169.592 285.12 171.412 283.566 172.212C281.772 173.137 279.763 172.57 278.135 171.564C275.039 169.651 271.335 165.918 272.682 161.917C273.253 160.221 274.845 159.178 276.629 159.329C278.401 159.479 279.676 160.853 279.759 162.62C279.831 164.205 278.94 165.864 277.295 166.199C275.759 166.513 273.968 165.623 273.468 164.097C272.899 162.353 274.066 160.586 275.533 159.715C277.23 158.707 279.239 158.985 280.921 159.888C282.679 160.83 284.184 162.331 285.319 163.959C286.4 165.505 287.217 167.473 286.685 169.374C285.906 172.181 282.588 173.394 279.932 172.965C278.54 172.74 276.295 171.829 276.246 170.16C276.192 168.245 278.525 167.166 280.12 167.766C281.905 168.435 282.995 170.259 283.711 171.922C284.533 173.826 284.989 175.885 285.188 177.944C285.566 181.897 285.072 185.881 284.507 189.791C284.455 190.204 285.102 190.218 285.161 189.81Z" fill="white"/>
<path d="M271.466 77.0671C273.991 78.2078 279.476 79.3443 281.216 74.765C283.39 69.0407 285.79 63.3143 290.385 61.5208" stroke="white" stroke-width="0.6" stroke-linecap="round" stroke-linejoin="round"/>
<path fill-rule="evenodd" clip-rule="evenodd" d="M300.333 14.7417C301.242 13.675 302.633 13 304.083 13C306.65 13 308.667 15.0167 308.667 17.5833C308.667 20.7307 305.838 23.2958 301.552 27.1821L301.542 27.1917L300.333 28.2917L299.125 27.2L299.092 27.1701C294.819 23.2869 292 20.7253 292 17.5833C292 15.0167 294.017 13 296.583 13C298.033 13 299.425 13.675 300.333 14.7417ZM300.333 26.0415L300.417 25.9582C304.383 22.3665 307 19.9915 307 17.5832C307 15.9165 305.75 14.6665 304.083 14.6665C302.8 14.6665 301.55 15.4915 301.117 16.6332H299.558C299.117 15.4915 297.867 14.6665 296.583 14.6665C294.917 14.6665 293.667 15.9165 293.667 17.5832C293.667 19.9915 296.283 22.3665 300.25 25.9582L300.333 26.0415Z" fill="white"/>
</g>
<path d="M232 82.5316C232 -40.643 132.202 -140.957 7.5803 -144.881C3.40421 -145.012 -1.97434e-05 -141.613 -1.95608e-05 -137.435L-3.30686e-07 302.498C-1.48053e-07 306.676 3.40424 310.075 7.58032 309.944C132.202 306.021 232 205.706 232 82.5316Z" fill="white"/>
<defs>
<filter id="filter0_d_729_304" x="93.6667" y="-8.66667" width="244" height="201.333" filterUnits="userSpaceOnUse" color-interpolation-filters="sRGB">
<feFlood flood-opacity="0" result="BackgroundImageFix"/>
<feColorMatrix in="SourceAlpha" type="matrix" values="0 0 0 0 0 0 0 0 0 0 0 0 0 0 0 0 0 0 127 0" result="hardAlpha"/>
<feOffset dx="-2.66667" dy="4"/>
<feGaussianBlur stdDeviation="6.33333"/>
<feComposite in2="hardAlpha" operator="out"/>
<feColorMatrix type="matrix" values="0 0 0 0 0 0 0 0 0 0.321569 0 0 0 0 0.8 0 0 0 0.1 0"/>
<feBlend mode="normal" in2="BackgroundImageFix" result="effect1_dropShadow_729_304"/>
<feBlend mode="normal" in="SourceGraphic" in2="effect1_dropShadow_729_304" result="shape"/>
</filter>
<filter id="filter1_d_729_304" x="93.6667" y="-8.66667" width="244" height="201.333" filterUnits="userSpaceOnUse" color-interpolation-filters="sRGB">
<feFlood flood-opacity="0" result="BackgroundImageFix"/>
<feColorMatrix in="SourceAlpha" type="matrix" values="0 0 0 0 0 0 0 0 0 0 0 0 0 0 0 0 0 0 127 0" result="hardAlpha"/>
<feOffset dx="-2.66667" dy="4"/>
<feGaussianBlur stdDeviation="6.33333"/>
<feComposite in2="hardAlpha" operator="out"/>
<feColorMatrix type="matrix" values="0 0 0 0 0 0 0 0 0 0.321569 0 0 0 0 0.8 0 0 0 0.1 0"/>
<feBlend mode="normal" in2="BackgroundImageFix" result="effect1_dropShadow_729_304"/>
<feBlend mode="normal" in="SourceGraphic" in2="effect1_dropShadow_729_304" result="shape"/>
</filter>
<filter id="filter2_d_729_304" x="229.865" y="12.5028" width="73.682" height="80.8589" filterUnits="userSpaceOnUse" color-interpolation-filters="sRGB">
<feFlood flood-opacity="0" result="BackgroundImageFix"/>
<feColorMatrix in="SourceAlpha" type="matrix" values="0 0 0 0 0 0 0 0 0 0 0 0 0 0 0 0 0 0 127 0" result="hardAlpha"/>
<feOffset dy="-3"/>
<feGaussianBlur stdDeviation="10"/>
<feComposite in2="hardAlpha" operator="out"/>
<feColorMatrix type="matrix" values="0 0 0 0 0.956863 0 0 0 0 0.819608 0 0 0 0 0.129412 0 0 0 0.6 0"/>
<feBlend mode="normal" in2="BackgroundImageFix" result="effect1_dropShadow_729_304"/>
<feBlend mode="normal" in="SourceGraphic" in2="effect1_dropShadow_729_304" result="shape"/>
</filter>
<linearGradient id="paint0_linear_729_304" x1="274.94" y1="6.98853" x2="218.333" y2="176" gradientUnits="userSpaceOnUse">
<stop stop-color="white" stop-opacity="0.3"/>
<stop offset="1" stop-color="white" stop-opacity="0"/>
</linearGradient>
<linearGradient id="paint1_linear_729_304" x1="251.739" y1="5.88033" x2="196.111" y2="97.1675" gradientUnits="userSpaceOnUse">
<stop stop-color="#0047B9"/>
<stop offset="0.987859" stop-color="#0058CD"/>
</linearGradient>
<linearGradient id="paint2_linear_729_304" x1="465.54" y1="-29.7023" x2="345.324" y2="202.836" gradientUnits="userSpaceOnUse">
<stop stop-color="white" stop-opacity="0.5"/>
<stop offset="1" stop-color="white" stop-opacity="0"/>
</linearGradient>
<linearGradient id="paint3_linear_729_304" x1="348.095" y1="48.8373" x2="183.555" y2="6.6093" gradientUnits="userSpaceOnUse">
<stop stop-color="#76DD9E"/>
<stop offset="1" stop-color="#1FB381"/>
</linearGradient>
<linearGradient id="paint4_linear_729_304" x1="379.219" y1="20.4494" x2="364.107" y2="-20.115" gradientUnits="userSpaceOnUse">
<stop stop-color="#5FECB4"/>
<stop offset="1" stop-color="#76DD9E"/>
</linearGradient>
<linearGradient id="paint5_linear_729_304" x1="273.215" y1="43.2943" x2="258.558" y2="76.0381" gradientUnits="userSpaceOnUse">
<stop stop-color="#F7DE64"/>
<stop offset="1" stop-color="#F4D121"/>
<stop offset="1" stop-color="#FFC700"/>
</linearGradient>
<linearGradient id="paint6_linear_729_304" x1="242.024" y1="49.5491" x2="245.603" y2="51.967" gradientUnits="userSpaceOnUse">
<stop stop-color="white" stop-opacity="0"/>
<stop offset="1" stop-color="#FFF0BB"/>
</linearGradient>
<linearGradient id="paint7_linear_729_304" x1="240.408" y1="43.1103" x2="245.849" y2="46.7859" gradientUnits="userSpaceOnUse">
<stop stop-color="white" stop-opacity="0"/>
<stop offset="1" stop-color="#FFF0BB"/>
</linearGradient>
<linearGradient id="paint8_linear_729_304" x1="246.093" y1="34.6761" x2="251.543" y2="38.3585" gradientUnits="userSpaceOnUse">
<stop stop-color="white" stop-opacity="0"/>
<stop offset="1" stop-color="#FFF0BB"/>
</linearGradient>
<linearGradient id="paint9_linear_729_304" x1="240.687" y1="37.0848" x2="248.187" y2="42.1526" gradientUnits="userSpaceOnUse">
<stop stop-color="white" stop-opacity="0"/>
<stop offset="1" stop-color="#FFF0BB"/>
</linearGradient>
</defs>
</svg>
