<svg width="14" height="18" viewBox="0 0 14 18" fill="none" xmlns="http://www.w3.org/2000/svg">
<path fill-rule="evenodd" clip-rule="evenodd" d="M1.39417 17.0164C1.08719 16.9896 0.853074 16.7482 0.854622 16.4598V1.98782C0.854622 1.27829 1.48487 0.689056 2.24379 0.689056H12.1664C12.9253 0.689056 13.5556 1.27829 13.5556 1.98782V16.4598C13.5563 16.6678 13.4331 16.8584 13.2362 16.9548C13.0393 17.0512 12.8013 17.0367 12.6191 16.9178L7.20513 13.4275L1.79116 16.9178C1.67565 16.9939 1.53456 17.0287 1.39425 17.0164L1.39417 17.0164ZM2.04549 15.3989L6.8641 12.2911C7.06874 12.157 7.34161 12.157 7.54628 12.2911L12.3649 15.3989V1.98801C12.3649 1.87567 12.2866 1.80247 12.1664 1.80247H2.24384C2.12368 1.80247 2.04539 1.87567 2.04539 1.98801L2.04549 15.3989Z" fill="#1B2B3A" fill-opacity="0.3"/>
</svg>
