<svg width="14" height="14" viewBox="0 0 14 14" fill="none" xmlns="http://www.w3.org/2000/svg">
<path opacity="0.6" fill-rule="evenodd" clip-rule="evenodd" d="M10.8566 9.56222C11.5955 8.59214 12.0112 7.3449 12.0112 6.00497C12.0112 2.67897 9.33217 0 6.00606 0C2.67996 0 0 2.67986 0 6.00585C0 9.33184 2.67907 12.0108 6.00518 12.0108C7.34515 12.0108 8.54566 11.5951 9.56256 10.8563L12.4293 13.7228C12.6138 13.9073 12.845 14 13.0763 14C13.3076 14 13.538 13.9073 13.7234 13.7228C14.0924 13.353 14.0924 12.7987 13.7225 12.4288L10.8566 9.56222ZM6.00606 10.1633C3.69597 10.1633 1.84843 8.31586 1.84843 6.00585C1.84843 3.69584 3.69597 1.84836 6.00606 1.84836C8.31615 1.84836 10.1637 3.69584 10.1637 6.00585C10.1637 8.31498 8.31529 10.1633 6.00606 10.1633Z" fill="#1B2B3A"/>
</svg>
