<svg width="32" height="32" viewBox="0 0 32 32" fill="none" xmlns="http://www.w3.org/2000/svg">
<path fill-rule="evenodd" clip-rule="evenodd" d="M15.0472 5.31245C16.081 5.31245 16.9854 6.23042 16.9854 7.28038H13.1075C13.1075 6.23042 14.0134 5.31245 15.0472 5.31245ZM23.3207 11.7382L23.1913 11.2147C22.5457 8.98431 20.4766 7.54137 18.2796 7.28038C18.2796 5.44295 16.856 4 15.0472 4C13.2369 4 11.8149 5.44295 11.8149 7.28038C9.61779 7.54137 7.67809 8.98431 6.90162 11.2147L6.77368 11.7382C6.64426 12.0007 6.64426 12.2632 6.64426 12.5257C6.64426 13.9686 7.8075 15.1476 9.22956 15.1476H13.7546V13.5741C13.7546 13.0492 14.2722 12.5257 15.0472 12.5257C15.8222 12.5257 16.3399 13.0492 16.3399 13.5741V15.1476H20.8649C21.1237 15.1476 21.3825 15.1476 21.6399 15.0171C23.0619 14.6241 23.8384 13.0492 23.3207 11.7382ZM19.0506 22.819H19.6846C20.0659 22.819 20.3187 22.5461 20.3187 22.1375C20.3187 21.7289 20.0659 21.4559 19.6846 21.4559H10.7968C10.4156 21.4559 10.1614 21.7289 10.1614 22.1375C10.1614 22.5461 10.4156 22.819 10.7968 22.819H17.7797V24.8652C17.7797 25.2738 18.0324 25.5468 18.4152 25.5468C18.7964 25.5468 19.0506 25.2738 19.0506 24.8652V22.819ZM16.5102 16.0005H22.8576L24 25.2738C24 26.7726 22.7305 28 21.0812 28H9.27318C7.62242 28 6.35294 26.7726 6.35294 25.2738L7.62242 16.0005H13.9713V16.2734C13.9713 16.8192 14.4796 17.3651 15.2407 17.3651C16.0018 17.3651 16.5102 16.8192 16.5102 16.2734V16.0005ZM25 18.2762C25 17.5111 25.546 17 26.3635 17C27.3175 17 28 17.6381 28 18.5318V21.3412C28 21.9779 27.5905 22.6174 27.0445 22.8715C26.9678 22.9445 26.9347 22.976 26.8954 22.9896C26.8655 23 26.832 23 26.773 23C26.3635 23 25.954 22.7459 25.8175 22.3619L25 18.5318V18.2762ZM6.35294 19.6765C6.35294 18.9114 5.92469 18.4004 5.28353 18.4004C4.5341 18.4004 4 19.0384 4 19.9321V22.7414C4 23.378 4.31997 24.0176 4.74822 24.2716C4.85528 24.4001 4.85528 24.4001 4.96235 24.4001C5.28353 24.4001 5.60472 24.1461 5.71178 23.762L6.35294 19.9321V19.6765Z" fill="white"/>
</svg>
