<svg width="23" height="23" viewBox="0 0 23 23" fill="none" xmlns="http://www.w3.org/2000/svg">
<path d="M11.5006 17.7501C9.84297 17.7501 8.25326 17.0916 7.08115 15.9195C5.90905 14.7474 5.25057 13.1577 5.25057 11.5001C5.25057 9.84248 5.90905 8.25277 7.08115 7.08066C8.25326 5.90856 9.84297 5.25008 11.5006 5.25008C13.1582 5.25008 14.7479 5.90856 15.92 7.08066C17.0921 8.25277 17.7506 9.84248 17.7506 11.5001C17.7506 13.1577 17.0921 14.7474 15.92 15.9195C14.7479 17.0916 13.1582 17.7501 11.5006 17.7501ZM11.5006 15.6667C12.6056 15.6667 13.6654 15.2278 14.4468 14.4464C15.2283 13.665 15.6672 12.6052 15.6672 11.5001C15.6672 10.395 15.2283 9.33521 14.4468 8.5538C13.6654 7.7724 12.6056 7.33342 11.5006 7.33342C10.3955 7.33342 9.33569 7.7724 8.55429 8.5538C7.77289 9.33521 7.3339 10.395 7.3339 11.5001C7.3339 12.6052 7.77289 13.665 8.55429 14.4464C9.33569 15.2278 10.3955 15.6667 11.5006 15.6667ZM10.4589 0.041748H12.5422V3.16675H10.4589V0.041748ZM10.4589 19.8334H12.5422V22.9584H10.4589V19.8334ZM2.66203 4.13446L4.13494 2.66154L6.34432 4.87092L4.8714 6.34383L2.66203 4.1355V4.13446ZM16.6568 18.1292L18.1297 16.6563L20.3391 18.8657L18.8662 20.3386L16.6568 18.1292ZM18.8662 2.6605L20.3391 4.13446L18.1297 6.34383L16.6568 4.87092L18.8662 2.66154V2.6605ZM4.8714 16.6563L6.34432 18.1292L4.13494 20.3386L2.66203 18.8657L4.8714 16.6563ZM22.9589 10.4584V12.5417H19.8339V10.4584H22.9589ZM3.16724 10.4584V12.5417H0.0422363V10.4584H3.16724Z" fill="white"/>
</svg>
