<svg width="25" height="25" viewBox="0 0 25 25" fill="none" xmlns="http://www.w3.org/2000/svg">
<path d="M13.6364 0L13.6375 3.47955C15.64 3.73272 17.5014 4.64481 18.9286 6.07218C20.3557 7.49954 21.2676 9.36108 21.5205 11.3636H25V13.6364L21.5205 13.6375C21.2673 15.6398 20.3554 17.5011 18.9283 18.9283C17.5011 20.3554 15.6398 21.2673 13.6375 21.5205L13.6364 25H11.3636V21.5205C9.36108 21.2676 7.49954 20.3557 6.07218 18.9286C4.64481 17.5014 3.73272 15.64 3.47955 13.6375L0 13.6364V11.3636H3.47955C3.73248 9.36092 4.64447 7.49924 6.07186 6.07186C7.49924 4.64447 9.36092 3.73248 11.3636 3.47955V0H13.6364ZM12.5 5.68182C10.6917 5.68182 8.95747 6.40016 7.67882 7.67882C6.40016 8.95747 5.68182 10.6917 5.68182 12.5C5.68182 14.3083 6.40016 16.0425 7.67882 17.3212C8.95747 18.5998 10.6917 19.3182 12.5 19.3182C14.3083 19.3182 16.0425 18.5998 17.3212 17.3212C18.5998 16.0425 19.3182 14.3083 19.3182 12.5C19.3182 10.6917 18.5998 8.95747 17.3212 7.67882C16.0425 6.40016 14.3083 5.68182 12.5 5.68182ZM12.5 10.2273C13.1028 10.2273 13.6808 10.4667 14.1071 10.8929C14.5333 11.3192 14.7727 11.8972 14.7727 12.5C14.7727 13.1028 14.5333 13.6808 14.1071 14.1071C13.6808 14.5333 13.1028 14.7727 12.5 14.7727C11.8972 14.7727 11.3192 14.5333 10.8929 14.1071C10.4667 13.6808 10.2273 13.1028 10.2273 12.5C10.2273 11.8972 10.4667 11.3192 10.8929 10.8929C11.3192 10.4667 11.8972 10.2273 12.5 10.2273Z" fill="white"/>
</svg>
