<svg width="32" height="32" viewBox="0 0 32 32" fill="none" xmlns="http://www.w3.org/2000/svg">
<path fill-rule="evenodd" clip-rule="evenodd" d="M15.4 5C14.6268 5 14 5.6268 14 6.4V8H4L8.3125 12.5L4 17H14V25.6C14 25.739 14.0203 25.8733 14.058 26H12.5C12.2239 26 12 26.2239 12 26.5C12 26.7761 12.2239 27 12.5 27H15.4H15.6H18.5C18.7761 27 19 26.7761 19 26.5C19 26.2239 18.7761 26 18.5 26H16.942C16.9797 25.8733 17 25.739 17 25.6V17H23.6875L28 12.5L23.6875 8H17V6.4C17 5.6268 16.3732 5 15.6 5H15.4Z" fill="white"/>
</svg>
