<svg width="43" height="16" viewBox="0 0 43 16" fill="none" xmlns="http://www.w3.org/2000/svg">
<path d="M31.2126 8.48345C29.3933 8.59083 25.9688 14.4965 34.4231 12.1343C39.881 10.631 39.881 6.8728 39.881 6.8728C39.881 6.8728 40.3091 7.94657 31.2126 8.48345Z" fill="#2684FF"/>
<path d="M42.6602 0.000976562C40.9479 3.32965 36.8812 3.75916 33.3497 3.97391C30.7813 4.08129 28.1058 4.72555 26.6076 6.87308C25.3234 8.69848 26.3936 11.4903 22.0059 14.3894C26.3936 18.7919 34.3128 12.7788 34.3128 12.7788C29.4971 14.1747 27.2497 12.2419 28.7479 9.77224C29.9251 7.83947 31.6374 7.94684 31.6374 7.94684C31.6374 7.94684 35.169 8.05422 37.9514 7.08783C43.6233 5.26243 42.6602 0.000976562 42.6602 0.000976562Z" fill="#2684FF"/>
<path d="M1.03166 0.000976562C2.74394 3.32965 6.81058 3.75916 10.3421 3.97391C12.9106 4.08129 15.586 4.72555 17.0842 6.87308C18.3684 8.69848 17.2983 11.4903 21.686 14.3894C17.2983 18.7919 9.37899 12.7788 9.37899 12.7788C14.1948 14.1747 16.4421 12.2419 14.9439 9.77224C13.7667 7.83947 12.0544 7.94684 12.0544 7.94684C12.0544 7.94684 8.52286 8.05422 5.74041 7.08783C-0.0385074 5.26243 1.03166 0.000976562 1.03166 0.000976562Z" fill="#2684FF"/>
<path d="M12.3764 8.48345C14.1957 8.59083 17.6202 14.4965 9.16587 12.1343C3.708 10.631 3.708 6.8728 3.708 6.8728C3.708 6.8728 3.27993 7.94657 12.3764 8.48345Z" fill="#2684FF"/>
</svg>
