<svg width="32" height="32" viewBox="0 0 32 32" fill="none" xmlns="http://www.w3.org/2000/svg">
<g opacity="0.5">
<path fill-rule="evenodd" clip-rule="evenodd" d="M10.4286 10.4286C10.9 10.4286 11.2857 10.0429 11.2857 9.57143V7.42857V6.57143V4.85714C11.2857 4.38571 10.9 4 10.4286 4C9.95714 4 9.57143 4.38571 9.57143 4.85714V6.57143V7.42857V9.57143C9.57143 10.0429 9.95714 10.4286 10.4286 10.4286ZM23.2857 6.57143H26.176C26.8831 6.57143 27.4617 7.15 27.4617 7.85714V12.5714H26.6045H5.42184H4.5647V7.85714C4.5647 7.15 5.14327 6.57143 5.85041 6.57143H8.71429V7.42857V9.57143C8.71429 10.5186 9.48143 11.2857 10.4286 11.2857C11.3757 11.2857 12.1429 10.5186 12.1429 9.57143V7.42857V6.57143H19.8571V7.42857V9.57143C19.8571 10.5186 20.6243 11.2857 21.5714 11.2857C22.5186 11.2857 23.2857 10.5186 23.2857 9.57143V7.42857V6.57143ZM5.85041 28C5.14327 28 4.5647 27.4214 4.5647 26.7143V13.4286H27.4617V26.7143C27.4617 27.4214 26.8831 28 26.176 28H5.85041ZM20.7143 15.5714C20.4786 15.5714 20.2857 15.7643 20.2857 16V19.4286C20.2857 19.6643 20.4786 19.8571 20.7143 19.8571H24.1429C24.3786 19.8571 24.5714 19.6643 24.5714 19.4286V16C24.5714 15.7643 24.3786 15.5714 24.1429 15.5714H20.7143ZM13.8571 16C13.8571 15.7643 14.05 15.5714 14.2857 15.5714H17.7143C17.95 15.5714 18.1429 15.7643 18.1429 16V19.4286C18.1429 19.6643 17.95 19.8571 17.7143 19.8571H14.2857C14.05 19.8571 13.8571 19.6643 13.8571 19.4286V16ZM14.2857 21.1429C14.05 21.1429 13.8571 21.3357 13.8571 21.5714V25C13.8571 25.2357 14.05 25.4286 14.2857 25.4286H17.7143C17.95 25.4286 18.1429 25.2357 18.1429 25V21.5714C18.1429 21.3357 17.95 21.1429 17.7143 21.1429H14.2857ZM7.42857 21.5714C7.42857 21.3357 7.62143 21.1429 7.85714 21.1429H11.2857C11.5214 21.1429 11.7143 21.3357 11.7143 21.5714V25C11.7143 25.2357 11.5214 25.4286 11.2857 25.4286H7.85714C7.62143 25.4286 7.42857 25.2357 7.42857 25V21.5714ZM22.4286 9.57143C22.4286 10.0429 22.0429 10.4286 21.5714 10.4286C21.1 10.4286 20.7143 10.0429 20.7143 9.57143V7.42857V6.57143V4.85714C20.7143 4.38571 21.1 4 21.5714 4C22.0429 4 22.4286 4.38571 22.4286 4.85714V6.57143V7.42857V9.57143Z" fill="white"/>
<path fill-rule="evenodd" clip-rule="evenodd" d="M0 0H32V32H0V0Z" fill="white" fill-opacity="0.01"/>
</g>
</svg>
