<svg width="32" height="32" viewBox="0 0 32 32" fill="none" xmlns="http://www.w3.org/2000/svg">
<g opacity="0.5">
<path d="M16 4C9.38306 4 4 9.38306 4 16C4 22.6169 9.38306 28 16 28C22.6169 28 28 22.6169 28 16C28 9.38306 22.6169 4 16 4ZM17.667 17.7531L9.90711 21.7961L14.3327 14.2469L22.0929 10.2039L17.667 17.7531ZM16 17.4352C16.7926 17.4352 17.4352 16.7926 17.4352 16C17.4352 15.2074 16.7926 14.5648 16 14.5648C15.2074 14.5648 14.5648 15.2074 14.5648 16C14.5648 16.7926 15.2074 17.4352 16 17.4352Z" fill="white"/>
</g>
</svg>
