<svg width="32" height="32" viewBox="0 0 32 32" fill="none" xmlns="http://www.w3.org/2000/svg">
  <path fill-rule="evenodd" clip-rule="evenodd" d="M5.27935 6.00015C4.94236 5.99452 4.61721 6.15063 4.376 6.43189C4.13598 6.71456 4 7.0985 4 7.50072C4 7.90153 4.13597 8.28686 4.376 8.56811C4.61721 8.85079 4.94236 9.00547 5.27935 8.99985H26.7207C27.0576 9.00548 27.3828 8.85078 27.624 8.56811C27.864 8.28685 28 7.9015 28 7.50072C28 7.0985 27.864 6.71457 27.624 6.43189C27.3828 6.15062 27.0576 5.99453 26.7207 6.00015H5.27935ZM5.24565 15.0001C4.91755 14.9945 4.60096 15.1506 4.3661 15.4317C4.1324 15.7142 4 16.098 4 16.5C4 16.902 4.13239 17.2858 4.3661 17.5683C4.60095 17.8495 4.91755 18.0055 5.24565 17.9999H18.7543C19.0825 18.0055 19.399 17.8494 19.6339 17.5683C19.8676 17.2858 20 16.902 20 16.5C20 16.098 19.8676 15.7142 19.6339 15.4317C19.399 15.1505 19.0825 14.9945 18.7543 15.0001H5.24565ZM4.376 24.4319C4.61721 24.1492 4.94236 23.9945 5.27935 24.0001H26.7207C27.0576 23.9945 27.3828 24.1492 27.624 24.4319C27.864 24.7131 28 25.0985 28 25.4993C28 25.9015 27.864 26.2854 27.624 26.5681C27.3828 26.8494 27.0576 27.0055 26.7207 26.9999H5.27935C4.94236 27.0055 4.61721 26.8494 4.376 26.5681C4.13597 26.2854 4 25.9015 4 25.4993C4 25.0985 4.13598 24.7132 4.376 24.4319Z" fill="white"/>
</svg>
