<svg width="32" height="32" viewBox="0 0 32 32" fill="none" xmlns="http://www.w3.org/2000/svg">
<path d="M25.0537 11.6V6.46667H20.6343V7.20001L25.0537 11.6Z" fill="white"/>
<path d="M16.3622 10.28L7.37598 18.7867V26.2667H25.0537V18.7867L16.3622 10.28Z" fill="white"/>
<path d="M5.75562 18.0533C5.31367 18.0533 5.01904 17.9067 4.72441 17.6133C4.13516 17.0267 4.13516 16.1467 4.72441 15.56L15.1837 5.44C15.773 4.85333 16.6569 4.85333 17.2462 5.44L27.5582 15.56C28.1474 16.1467 28.1474 17.0267 27.5582 17.6133C26.9689 18.2 26.085 18.2 25.4958 17.6133L16.215 8.52L6.78682 17.6133C6.49219 17.9067 6.19756 18.0533 5.75562 18.0533Z" fill="white"/>
</svg>
