<svg width="32" height="32" viewBox="0 0 32 32" fill="none" xmlns="http://www.w3.org/2000/svg">
<g opacity="0.5">
<path fill-rule="evenodd" clip-rule="evenodd" d="M14.7374 4.09033C9.33723 4.73598 5.1946 8.61457 4.21295 13.7245C2.9855 20.2196 7.18926 26.5592 13.6035 27.883C13.9416 27.9443 17.408 28.2834 20.0163 27.4213C24.4345 25.6972 27.1352 22.528 27.9337 17.7871C27.9648 17.6945 28.3628 13.8172 26.7674 10.6765C24.6493 6.33721 19.9851 3.44335 14.7374 4.09033H14.7374ZM15.8114 23.3886C14.8297 23.3886 14.0925 22.6504 14.0925 21.6957C14.0925 20.6497 14.7985 19.9103 15.8114 19.9103C16.8243 19.879 17.5914 20.6485 17.5914 21.6645C17.5914 22.6504 16.8555 23.3886 15.8114 23.3886ZM19.6171 15.3546C19.188 15.7237 18.7576 16.0628 18.2974 16.3706C17.6225 16.8323 17.2233 17.5404 17.2233 18.4638H14.4616C14.3393 17.4791 14.4004 16.3706 15.2899 15.6624C15.8113 15.262 16.3639 14.9242 16.793 14.4925C17.1922 14.0621 17.5913 13.5379 17.7747 13.0149C17.9893 12.338 17.4678 11.5372 16.8853 11.322C16.0258 11.0142 14.983 11.2607 14.615 11.9689C14.4004 12.3693 14.277 12.861 14.0936 13.354H11.5164C11.2407 11.9689 12.0079 10.276 13.2965 9.4453C15.0765 8.33676 18.1139 8.58324 19.6795 9.99957C21.2438 11.3846 21.2126 13.9695 19.6172 15.3545L19.6171 15.3546Z" fill="white"/>
</g>
</svg>
