<svg width="1370" height="200" viewBox="0 0 1370 200" fill="none" xmlns="http://www.w3.org/2000/svg">
<mask id="mask0_1_304" style="mask-type:alpha" maskUnits="userSpaceOnUse" x="0" y="0" width="1370" height="200">
<path d="M0 0H1370V200H1212.91H745.28H182.667H0V0Z" fill="#66E1E7"/>
</mask>
<g mask="url(#mask0_1_304)">
<rect width="1370" height="200" fill="#76DD9E"/>
<g style="mix-blend-mode:soft-light" opacity="0.5" filter="url(#filter0_f_1_304)">
<ellipse cx="683.856" cy="99.1667" rx="219.2" ry="200" fill="white"/>
</g>
<g style="mix-blend-mode:overlay" opacity="0.4">
<path d="M345.355 45.3754C391.05 32.515 505.528 14.5104 597.88 45.3754C713.32 83.9566 840.785 212.561 992.3 204.844V255H345.355L-5.70703 259.167V103.333C26.6402 105 105.986 106.5 164.592 99.1666C223.197 91.8333 309.52 60.2502 345.355 45.3754Z" fill="black"/>
</g>
<g style="mix-blend-mode:soft-light" opacity="0.5">
<ellipse cx="684.998" cy="110" rx="95.1389" ry="86.6667" fill="url(#paint0_linear_1_304)"/>
</g>
</g>
<defs>
<filter id="filter0_f_1_304" x="264.656" y="-300.833" width="838.4" height="800" filterUnits="userSpaceOnUse" color-interpolation-filters="sRGB">
<feFlood flood-opacity="0" result="BackgroundImageFix"/>
<feBlend mode="normal" in="SourceGraphic" in2="BackgroundImageFix" result="shape"/>
<feGaussianBlur stdDeviation="100" result="effect1_foregroundBlur_1_304"/>
</filter>
<linearGradient id="paint0_linear_1_304" x1="615.938" y1="55.8882" x2="741.8" y2="187.291" gradientUnits="userSpaceOnUse">
<stop stop-color="white" stop-opacity="0"/>
<stop offset="1" stop-color="white"/>
</linearGradient>
</defs>
</svg>
