<svg width="117" height="80" viewBox="0 0 117 80" fill="none" xmlns="http://www.w3.org/2000/svg">
<g opacity="0.5" filter="url(#filter0_d_540_443)">
<path d="M103.141 69.5147C106.418 70.6538 110.035 68.9116 110.768 65.5202C112.118 59.2839 112.364 52.8387 111.479 46.4847C110.304 38.0458 107.167 30.0075 102.325 23.0269C97.482 16.0463 91.0713 10.3216 83.6167 6.32083C76.1621 2.3201 67.8753 0.156949 59.4337 0.00822443C50.9921 -0.140501 42.6355 1.72943 35.0471 5.46512C27.4588 9.20082 20.854 14.6962 15.773 21.502C10.692 28.3078 7.27887 36.2307 5.81278 44.623C4.70858 50.9438 4.73244 57.3957 5.86613 63.6774C6.48204 67.0902 10.0332 68.9563 13.3468 67.9337C16.6362 66.9187 18.437 63.4362 17.94 60.0298C17.3018 55.6563 17.3601 51.1942 18.1252 46.8143C19.2487 40.3832 21.8642 34.3118 25.7579 29.0964C29.6515 23.8811 34.7128 19.6699 40.5278 16.8072C46.3429 13.9445 52.7466 12.5116 59.2155 12.6255C65.6844 12.7395 72.0347 14.3972 77.7472 17.463C83.4597 20.5288 88.3723 24.9156 92.0833 30.265C95.7942 35.6143 98.1982 41.7742 99.0986 48.2409C99.7119 52.6455 99.6158 57.1073 98.8266 61.456C98.212 64.8425 99.8897 68.3848 103.141 69.5147Z" fill="white"/>
</g>
<defs>
<filter id="filter0_d_540_443" x="0.03125" y="0" width="116.938" height="79.8002" filterUnits="userSpaceOnUse" color-interpolation-filters="sRGB">
<feFlood flood-opacity="0" result="BackgroundImageFix"/>
<feColorMatrix in="SourceAlpha" type="matrix" values="0 0 0 0 0 0 0 0 0 0 0 0 0 0 0 0 0 0 127 0" result="hardAlpha"/>
<feOffset dy="4.96875"/>
<feGaussianBlur stdDeviation="2.48438"/>
<feComposite in2="hardAlpha" operator="out"/>
<feColorMatrix type="matrix" values="0 0 0 0 0 0 0 0 0 0 0 0 0 0 0 0 0 0 0.25 0"/>
<feBlend mode="normal" in2="BackgroundImageFix" result="effect1_dropShadow_540_443"/>
<feBlend mode="normal" in="SourceGraphic" in2="effect1_dropShadow_540_443" result="shape"/>
</filter>
</defs>
</svg>
