<svg width="53" height="21" viewBox="0 0 53 21" fill="none" xmlns="http://www.w3.org/2000/svg">
<path d="M37.8239 11.1022C35.5498 11.2364 31.2691 18.6185 41.837 15.6657C48.6594 13.7866 48.6594 9.08887 48.6594 9.08887C48.6594 9.08887 49.1944 10.4311 37.8239 11.1022Z" fill="#2684FF"/>
<path d="M52.1333 0.499023C49.993 4.65987 44.9097 5.19675 40.4952 5.46519C37.2847 5.59941 33.9404 6.40474 32.0676 9.08915C30.4624 11.3709 31.8001 14.8606 26.3155 18.4846C31.8001 23.9876 41.6992 16.4713 41.6992 16.4713C35.6794 18.2162 32.8702 15.8002 34.743 12.7131C36.2145 10.2971 38.3549 10.4314 38.3549 10.4314C38.3549 10.4314 42.7693 10.5656 46.2474 9.35759C53.3373 7.07584 52.1333 0.499023 52.1333 0.499023Z" fill="#2684FF"/>
<path d="M0.0977146 0.499023C2.23806 4.65987 7.32137 5.19675 11.7358 5.46519C14.9463 5.59941 18.2906 6.40474 20.1634 9.08915C21.7687 11.3709 20.431 14.8606 25.9156 18.4846C20.431 23.9876 10.5319 16.4713 10.5319 16.4713C16.5516 18.2162 19.3608 15.8002 17.488 12.7131C16.0165 10.2971 13.8762 10.4314 13.8762 10.4314C13.8762 10.4314 9.46171 10.5656 5.98365 9.35759C-1.24 7.07584 0.0977146 0.499023 0.0977146 0.499023Z" fill="#2684FF"/>
<path d="M14.2789 11.1022C16.553 11.2364 20.8337 18.6185 10.2658 15.6657C3.44341 13.7866 3.44341 9.08887 3.44341 9.08887C3.44341 9.08887 2.90833 10.4311 14.2789 11.1022Z" fill="#2684FF"/>
</svg>
